%
M48
METRIC,000.000
T01C0.50
%
T01
X010910Y078512
X009910Y078512
X008910Y078512
X007910Y078512
X006910Y078512
X007249Y081639
X008249Y081639
X009249Y081639
X010249Y081639
X011249Y081639
X010910Y018512
X009910Y018512
X008910Y018512
X007910Y018512
X006910Y018512
X007249Y021639
X008249Y021639
X009249Y021639
X010249Y021639
X011249Y021639
X010910Y038512
X009910Y038512
X008910Y038512
X007910Y038512
X006910Y038512
X007249Y041639
X008249Y041639
X009249Y041639
X010249Y041639
X011249Y041639
X010910Y058512
X009910Y058512
X008910Y058512
X007910Y058512
X006910Y058512
X007249Y061639
X008249Y061639
X009249Y061639
X010249Y061639
X011249Y061639
X033910Y078512
X032910Y078512
X031910Y078512
X030910Y078512
X029910Y078512
X030249Y081639
X031249Y081639
X032249Y081639
X033249Y081639
X034249Y081639
X033910Y058512
X032910Y058512
X031910Y058512
X030910Y058512
X029910Y058512
X030249Y061639
X031249Y061639
X032249Y061639
X033249Y061639
X034249Y061639
X033910Y038512
X032910Y038512
X031910Y038512
X030910Y038512
X029910Y038512
X030249Y041639
X031249Y041639
X032249Y041639
X033249Y041639
X034249Y041639
X033910Y018512
X032910Y018512
X031910Y018512
X030910Y018512
X029910Y018512
X030249Y021639
X031249Y021639
X032249Y021639
X033249Y021639
X034249Y021639
X056910Y018512
X055910Y018512
X054910Y018512
X053910Y018512
X052910Y018512
X053249Y021639
X054249Y021639
X055249Y021639
X056249Y021639
X057249Y021639
X079910Y018512
X078910Y018512
X077910Y018512
X076910Y018512
X075910Y018512
X076249Y021639
X077249Y021639
X078249Y021639
X079249Y021639
X080249Y021639
X079910Y038512
X078910Y038512
X077910Y038512
X076910Y038512
X075910Y038512
X076249Y041639
X077249Y041639
X078249Y041639
X079249Y041639
X080249Y041639
X079910Y058512
X078910Y058512
X077910Y058512
X076910Y058512
X075910Y058512
X076249Y061639
X077249Y061639
X078249Y061639
X079249Y061639
X080249Y061639
X079910Y078512
X078910Y078512
X077910Y078512
X076910Y078512
X075910Y078512
X076249Y081639
X077249Y081639
X078249Y081639
X079249Y081639
X080249Y081639
X056910Y078512
X055910Y078512
X054910Y078512
X053910Y078512
X052910Y078512
X053249Y081639
X054249Y081639
X055249Y081639
X056249Y081639
X057249Y081639
X056910Y058512
X055910Y058512
X054910Y058512
X053910Y058512
X052910Y058512
X053249Y061639
X054249Y061639
X055249Y061639
X056249Y061639
X057249Y061639
X056910Y038512
X055910Y038512
X054910Y038512
X053910Y038512
X052910Y038512
X053249Y041639
X054249Y041639
X055249Y041639
X056249Y041639
X057249Y041639
X019002Y095496
X019002Y096496
X019002Y097496
X018899Y098463
X022949Y098398
X022908Y097406
X022908Y096406
X022908Y095406
X019002Y075496
X019002Y076496
X019002Y077496
X018899Y078463
X022949Y078398
X022908Y077406
X022908Y076406
X022908Y075406
X019002Y055496
X019002Y056496
X019002Y057496
X018899Y058463
X022949Y058398
X022908Y057406
X022908Y056406
X022908Y055406
X019002Y035496
X019002Y036496
X019002Y037496
X018899Y038463
X022949Y038398
X022908Y037406
X022908Y036406
X022908Y035406
X019002Y015496
X019002Y016496
X019002Y017496
X018899Y018463
X022949Y018398
X022908Y017406
X022908Y016406
X022908Y015406
X042001Y015496
X042001Y016496
X042001Y017496
X041899Y018463
X045949Y018398
X045908Y017406
X045908Y016406
X045908Y015406
X042001Y035496
X042001Y036496
X042001Y037496
X041899Y038463
X045949Y038398
X045908Y037406
X045908Y036406
X045908Y035406
X042001Y055496
X042001Y056496
X042001Y057496
X041899Y058463
X045949Y058398
X045908Y057406
X045908Y056406
X045908Y055406
X042001Y075496
X042001Y076496
X042001Y077496
X041899Y078463
X045949Y078398
X045908Y077406
X045908Y076406
X045908Y075406
X042001Y095496
X042001Y096496
X042001Y097496
X041899Y098463
X045949Y098398
X045908Y097406
X045908Y096406
X045908Y095406
X065001Y095496
X065001Y096496
X065001Y097496
X064899Y098463
X068949Y098398
X068908Y097406
X068908Y096406
X068908Y095406
X065001Y075496
X065001Y076496
X065001Y077496
X064899Y078463
X068949Y078398
X068908Y077406
X068908Y076406
X068908Y075406
X065001Y055496
X065001Y056496
X065001Y057496
X064899Y058463
X068949Y058398
X068908Y057406
X068908Y056406
X068908Y055406
X065001Y035496
X065001Y036496
X065001Y037496
X064899Y038463
X068949Y038398
X068908Y037406
X068908Y036406
X068908Y035406
X065001Y015496
X065001Y016496
X065001Y017496
X064899Y018463
X068949Y018398
X068908Y017406
X068908Y016406
X068908Y015406
M30