%MOIN*%
%OFA0B0*%
%FSLAX34Y34*%
%IPPOS*%
%LPD*%
%AMOC8*
5,1,8,0,0,$1,22.5*%
%AMOC80*
5,1,8,0,0,$1,22.5*%
%AMOC81*
5,1,8,0,0,$1,22.5*%
%AMOC80*
5,1,8,0,0,$1,22.5*%
%AMOC81*
5,1,8,0,0,$1,22.5*%
%AMOC80*
5,1,8,0,0,$1,22.5*%
%AMOC81*
5,1,8,0,0,$1,22.5*%
%AMOC80*
5,1,8,0,0,$1,22.5*%
%AMOC81*
5,1,8,0,0,$1,22.5*%
%AMOC80*
5,1,8,0,0,$1,22.5*%
%AMOC81*
5,1,8,0,0,$1,22.5*%
%AMOC80*
5,1,8,0,0,$1,22.5*%
%AMOC81*
5,1,8,0,0,$1,22.5*%
%AMOC80*
5,1,8,0,0,$1,22.5*%
%AMOC81*
5,1,8,0,0,$1,22.5*%
%AMOC80*
5,1,8,0,0,$1,22.5*%
%AMOC81*
5,1,8,0,0,$1,22.5*%
%AMOC80*
5,1,8,0,0,$1,22.5*%
%AMOC81*
5,1,8,0,0,$1,22.5*%
%AMOC80*
5,1,8,0,0,$1,22.5*%
%ADD10C,0.078000000000000014*%
%ADD21C,0.078000000000000014*%
%ADD22C,0.078000000000000014*%
%ADD23C,0.078000000000000014*%
%ADD24C,0.078000000000000014*%
%ADD25C,0.078000000000000014*%
%ADD26C,0.078000000000000014*%
%ADD27C,0.078000000000000014*%
%ADD28C,0.078000000000000014*%
%ADD29C,0.078000000000000014*%
%ADD30C,0.078000000000000014*%
%ADD31C,0.078000000000000014*%
%ADD32C,0.078000000000000014*%
%ADD33C,0.078000000000000014*%
%ADD34C,0.078000000000000014*%
%ADD35C,0.078000000000000014*%
%ADD36C,0.078000000000000014*%
%ADD37C,0.078000000000000014*%
%ADD38C,0.078000000000000014*%
%ADD39C,0.078000000000000014*%
G75*
G01G01*
D10*
X-0000787Y0000393D02*
X0000212Y0004393D03*
X0000212Y0005393D03*
X0000212Y0003393D03*
X0000212Y0002393D03*
X0007212Y0005393D03*
X0007212Y0004393D03*
X0007212Y0003393D03*
X0007212Y0002393D03*
G04 next file*
G04 EAGLE Gerber X2 export*
G75*
G01G01*
D21*
X0008267Y0000393D02*
X0009267Y0004393D03*
X0009267Y0005393D03*
X0009267Y0003393D03*
X0009267Y0002393D03*
X0016267Y0005393D03*
X0016267Y0004393D03*
X0016267Y0003393D03*
X0016267Y0002393D03*
G04 next file*
G04 EAGLE Gerber X2 export*
G75*
G01G01*
D22*
X0017322Y0000393D02*
X0018322Y0004393D03*
X0018322Y0005393D03*
X0018322Y0003393D03*
X0018322Y0002393D03*
X0025322Y0005393D03*
X0025322Y0004393D03*
X0025322Y0003393D03*
X0025322Y0002393D03*
G04 next file*
G04 EAGLE Gerber X2 export*
G75*
G01G01*
D23*
X0026377Y0000393D02*
X0027377Y0004393D03*
X0027377Y0005393D03*
X0027377Y0003393D03*
X0027377Y0002393D03*
X0034377Y0005393D03*
X0034377Y0004393D03*
X0034377Y0003393D03*
X0034377Y0002393D03*
G04 next file*
G04 EAGLE Gerber X2 export*
G75*
G01G01*
D24*
X-0000787Y0008267D02*
X0000212Y0012267D03*
X0000212Y0013267D03*
X0000212Y0011267D03*
X0000212Y0010267D03*
X0007212Y0013267D03*
X0007212Y0012267D03*
X0007212Y0011267D03*
X0007212Y0010267D03*
G04 next file*
G04 EAGLE Gerber X2 export*
G75*
G01G01*
D25*
X0008267Y0008267D02*
X0009267Y0012267D03*
X0009267Y0013267D03*
X0009267Y0011267D03*
X0009267Y0010267D03*
X0016267Y0013267D03*
X0016267Y0012267D03*
X0016267Y0011267D03*
X0016267Y0010267D03*
G04 next file*
G04 EAGLE Gerber X2 export*
G75*
G01G01*
D26*
X0017322Y0008267D02*
X0018322Y0012267D03*
X0018322Y0013267D03*
X0018322Y0011267D03*
X0018322Y0010267D03*
X0025322Y0013267D03*
X0025322Y0012267D03*
X0025322Y0011267D03*
X0025322Y0010267D03*
G04 next file*
G04 EAGLE Gerber X2 export*
G75*
G01G01*
D27*
X0026377Y0008267D02*
X0027377Y0012267D03*
X0027377Y0013267D03*
X0027377Y0011267D03*
X0027377Y0010267D03*
X0034377Y0013267D03*
X0034377Y0012267D03*
X0034377Y0011267D03*
X0034377Y0010267D03*
G04 next file*
G04 EAGLE Gerber X2 export*
G75*
G01G01*
D28*
X-0000787Y0016141D02*
X0000212Y0020141D03*
X0000212Y0021141D03*
X0000212Y0019141D03*
X0000212Y0018141D03*
X0007212Y0021141D03*
X0007212Y0020141D03*
X0007212Y0019141D03*
X0007212Y0018141D03*
G04 next file*
G04 EAGLE Gerber X2 export*
G75*
G01G01*
D29*
X0008267Y0016141D02*
X0009267Y0020141D03*
X0009267Y0021141D03*
X0009267Y0019141D03*
X0009267Y0018141D03*
X0016267Y0021141D03*
X0016267Y0020141D03*
X0016267Y0019141D03*
X0016267Y0018141D03*
G04 next file*
G04 EAGLE Gerber X2 export*
G75*
G01G01*
D30*
X0017322Y0016141D02*
X0018322Y0020141D03*
X0018322Y0021141D03*
X0018322Y0019141D03*
X0018322Y0018141D03*
X0025322Y0021141D03*
X0025322Y0020141D03*
X0025322Y0019141D03*
X0025322Y0018141D03*
G04 next file*
G04 EAGLE Gerber X2 export*
G75*
G01G01*
D31*
X0026377Y0016141D02*
X0027377Y0020141D03*
X0027377Y0021141D03*
X0027377Y0019141D03*
X0027377Y0018141D03*
X0034377Y0021141D03*
X0034377Y0020141D03*
X0034377Y0019141D03*
X0034377Y0018141D03*
G04 next file*
G04 EAGLE Gerber X2 export*
G75*
G01G01*
D32*
X-0000787Y0024015D02*
X0000212Y0028015D03*
X0000212Y0029015D03*
X0000212Y0027015D03*
X0000212Y0026015D03*
X0007212Y0029015D03*
X0007212Y0028015D03*
X0007212Y0027015D03*
X0007212Y0026015D03*
G04 next file*
G04 EAGLE Gerber X2 export*
G75*
G01G01*
D33*
X0008267Y0024015D02*
X0009267Y0028015D03*
X0009267Y0029015D03*
X0009267Y0027015D03*
X0009267Y0026015D03*
X0016267Y0029015D03*
X0016267Y0028015D03*
X0016267Y0027015D03*
X0016267Y0026015D03*
G04 next file*
G04 EAGLE Gerber X2 export*
G75*
G01G01*
D34*
X0017322Y0024015D02*
X0018322Y0028015D03*
X0018322Y0029015D03*
X0018322Y0027015D03*
X0018322Y0026015D03*
X0025322Y0029015D03*
X0025322Y0028015D03*
X0025322Y0027015D03*
X0025322Y0026015D03*
G04 next file*
G04 EAGLE Gerber X2 export*
G75*
G01G01*
D35*
X0026377Y0024015D02*
X0027377Y0028015D03*
X0027377Y0029015D03*
X0027377Y0027015D03*
X0027377Y0026015D03*
X0034377Y0029015D03*
X0034377Y0028015D03*
X0034377Y0027015D03*
X0034377Y0026015D03*
G04 next file*
G04 EAGLE Gerber X2 export*
G75*
G01G01*
D36*
X-0000787Y0031889D02*
X0000212Y0035889D03*
X0000212Y0036889D03*
X0000212Y0034889D03*
X0000212Y0033889D03*
X0007212Y0036889D03*
X0007212Y0035889D03*
X0007212Y0034889D03*
X0007212Y0033889D03*
G04 next file*
G04 EAGLE Gerber X2 export*
G75*
G01G01*
D37*
X0008267Y0031889D02*
X0009267Y0035889D03*
X0009267Y0036889D03*
X0009267Y0034889D03*
X0009267Y0033889D03*
X0016267Y0036889D03*
X0016267Y0035889D03*
X0016267Y0034889D03*
X0016267Y0033889D03*
G04 next file*
G04 EAGLE Gerber X2 export*
G75*
G01G01*
D38*
X0017322Y0031889D02*
X0018322Y0035889D03*
X0018322Y0036889D03*
X0018322Y0034889D03*
X0018322Y0033889D03*
X0025322Y0036889D03*
X0025322Y0035889D03*
X0025322Y0034889D03*
X0025322Y0033889D03*
G04 next file*
G04 EAGLE Gerber X2 export*
G75*
G01G01*
D39*
X0026377Y0031889D02*
X0027377Y0035889D03*
X0027377Y0036889D03*
X0027377Y0034889D03*
X0027377Y0033889D03*
X0034377Y0036889D03*
X0034377Y0035889D03*
X0034377Y0034889D03*
X0034377Y0033889D03*
M02*