%
M48
METRIC,000.000
T02C0.35
T01C1.02
%
T02
X008815Y007203
X007970Y003096
X008160Y010525
X008160Y009255
X009430Y009255
X009430Y010525
X004858Y017256
X010192Y017256
X014129Y009890
X004477Y009382
X008180Y012831
X009557Y013192
X006890Y007477
X014180Y007262
X031814Y007203
X030970Y003096
X031160Y010525
X031160Y009255
X032430Y009255
X032430Y010525
X027858Y017256
X033192Y017256
X037129Y009890
X027477Y009382
X031180Y012831
X032557Y013192
X029890Y007477
X037180Y007262
X054815Y007203
X053970Y003096
X054160Y010525
X054160Y009255
X055430Y009255
X055430Y010525
X050858Y017256
X056192Y017256
X060129Y009890
X050477Y009382
X054180Y012831
X055557Y013192
X052890Y007477
X060180Y007262
X077815Y007203
X076970Y003096
X077160Y010525
X077160Y009255
X078430Y009255
X078430Y010525
X073858Y017256
X079192Y017256
X083129Y009890
X073477Y009382
X077180Y012831
X078557Y013192
X075890Y007477
X083180Y007262
X008815Y027203
X007970Y023096
X008160Y030525
X008160Y029255
X009430Y029255
X009430Y030525
X004858Y037256
X010192Y037256
X014129Y029890
X004477Y029381
X008180Y032831
X009557Y033192
X006890Y027477
X014180Y027262
X031814Y027203
X030970Y023096
X031160Y030525
X031160Y029255
X032430Y029255
X032430Y030525
X027858Y037256
X033192Y037256
X037129Y029890
X027477Y029381
X031180Y032831
X032557Y033192
X029890Y027477
X037180Y027262
X054815Y027203
X053970Y023096
X054160Y030525
X054160Y029255
X055430Y029255
X055430Y030525
X050858Y037256
X056192Y037256
X060129Y029890
X050477Y029381
X054180Y032831
X055557Y033192
X052890Y027477
X060180Y027262
X077815Y027203
X076970Y023096
X077160Y030525
X077160Y029255
X078430Y029255
X078430Y030525
X073858Y037256
X079192Y037256
X083129Y029890
X073477Y029381
X077180Y032831
X078557Y033192
X075890Y027477
X083180Y027262
X008815Y047203
X007970Y043096
X008160Y050525
X008160Y049255
X009430Y049255
X009430Y050525
X004858Y057256
X010192Y057256
X014129Y049890
X004477Y049382
X008180Y052831
X009557Y053192
X006890Y047477
X014180Y047262
X031814Y047203
X030970Y043096
X031160Y050525
X031160Y049255
X032430Y049255
X032430Y050525
X027858Y057256
X033192Y057256
X037129Y049890
X027477Y049382
X031180Y052831
X032557Y053192
X029890Y047477
X037180Y047262
X054815Y047203
X053970Y043096
X054160Y050525
X054160Y049255
X055430Y049255
X055430Y050525
X050858Y057256
X056192Y057256
X060129Y049890
X050477Y049382
X054180Y052831
X055557Y053192
X052890Y047477
X060180Y047262
X077815Y047203
X076970Y043096
X077160Y050525
X077160Y049255
X078430Y049255
X078430Y050525
X073858Y057256
X079192Y057256
X083129Y049890
X073477Y049382
X077180Y052831
X078557Y053192
X075890Y047477
X083180Y047262
X008815Y067203
X007970Y063096
X008160Y070525
X008160Y069255
X009430Y069255
X009430Y070525
X004858Y077256
X010192Y077256
X014129Y069890
X004477Y069382
X008180Y072831
X009557Y073192
X006890Y067477
X014180Y067262
X031814Y067203
X030970Y063096
X031160Y070525
X031160Y069255
X032430Y069255
X032430Y070525
X027858Y077256
X033192Y077256
X037129Y069890
X027477Y069382
X031180Y072831
X032557Y073192
X029890Y067477
X037180Y067262
X054815Y067203
X053970Y063096
X054160Y070525
X054160Y069255
X055430Y069255
X055430Y070525
X050858Y077256
X056192Y077256
X060129Y069890
X050477Y069382
X054180Y072831
X055557Y073192
X052890Y067477
X060180Y067262
X077815Y067203
X076970Y063096
X077160Y070525
X077160Y069255
X078430Y069255
X078430Y070525
X073858Y077256
X079192Y077256
X083129Y069890
X073477Y069382
X077180Y072831
X078557Y073192
X075890Y067477
X083180Y067262
X008815Y087203
X007970Y083096
X008160Y090525
X008160Y089255
X009430Y089255
X009430Y090525
X004858Y097256
X010192Y097256
X014129Y089890
X004477Y089382
X008180Y092831
X009557Y093192
X006890Y087477
X014180Y087262
X031814Y087203
X030970Y083096
X031160Y090525
X031160Y089255
X032430Y089255
X032430Y090525
X027858Y097256
X033192Y097256
X037129Y089890
X027477Y089382
X031180Y092831
X032557Y093192
X029890Y087477
X037180Y087262
X054815Y087203
X053970Y083096
X054160Y090525
X054160Y089255
X055430Y089255
X055430Y090525
X050858Y097256
X056192Y097256
X060129Y089890
X050477Y089382
X054180Y092831
X055557Y093192
X052890Y087477
X060180Y087262
X077815Y087203
X076970Y083096
X077160Y090525
X077160Y089255
X078430Y089255
X078430Y090525
X073858Y097256
X079192Y097256
X083129Y089890
X073477Y089382
X077180Y092831
X078557Y093192
X075890Y087477
X083180Y087262
T01
X000540Y011160
X000540Y013700
X000540Y008620
X000540Y006080
X018320Y013700
X018320Y011160
X018320Y008620
X018320Y006080
X023540Y011160
X023540Y013700
X023540Y008620
X023540Y006080
X041320Y013700
X041320Y011160
X041320Y008620
X041320Y006080
X046540Y011160
X046540Y013700
X046540Y008620
X046540Y006080
X064319Y013700
X064319Y011160
X064319Y008620
X064319Y006080
X069540Y011160
X069540Y013700
X069540Y008620
X069540Y006080
X087320Y013700
X087320Y011160
X087320Y008620
X087320Y006080
X000540Y031160
X000540Y033700
X000540Y028620
X000540Y026080
X018320Y033700
X018320Y031160
X018320Y028620
X018320Y026080
X023540Y031160
X023540Y033700
X023540Y028620
X023540Y026080
X041320Y033700
X041320Y031160
X041320Y028620
X041320Y026080
X046540Y031160
X046540Y033700
X046540Y028620
X046540Y026080
X064319Y033700
X064319Y031160
X064319Y028620
X064319Y026080
X069540Y031160
X069540Y033700
X069540Y028620
X069540Y026080
X087320Y033700
X087320Y031160
X087320Y028620
X087320Y026080
X000540Y051160
X000540Y053700
X000540Y048620
X000540Y046080
X018320Y053700
X018320Y051160
X018320Y048620
X018320Y046080
X023540Y051160
X023540Y053700
X023540Y048620
X023540Y046080
X041320Y053700
X041320Y051160
X041320Y048620
X041320Y046080
X046540Y051160
X046540Y053700
X046540Y048620
X046540Y046080
X064319Y053700
X064319Y051160
X064319Y048620
X064319Y046080
X069540Y051160
X069540Y053700
X069540Y048620
X069540Y046080
X087320Y053700
X087320Y051160
X087320Y048620
X087320Y046080
X000540Y071160
X000540Y073700
X000540Y068620
X000540Y066080
X018320Y073700
X018320Y071160
X018320Y068620
X018320Y066080
X023540Y071160
X023540Y073700
X023540Y068620
X023540Y066080
X041320Y073700
X041320Y071160
X041320Y068620
X041320Y066080
X046540Y071160
X046540Y073700
X046540Y068620
X046540Y066080
X064319Y073700
X064319Y071160
X064319Y068620
X064319Y066080
X069540Y071160
X069540Y073700
X069540Y068620
X069540Y066080
X087320Y073700
X087320Y071160
X087320Y068620
X087320Y066080
X000540Y091160
X000540Y093700
X000540Y088620
X000540Y086080
X018320Y093700
X018320Y091160
X018320Y088620
X018320Y086080
X023540Y091160
X023540Y093700
X023540Y088620
X023540Y086080
X041320Y093700
X041320Y091160
X041320Y088620
X041320Y086080
X046540Y091160
X046540Y093700
X046540Y088620
X046540Y086080
X064319Y093700
X064319Y091160
X064319Y088620
X064319Y086080
X069540Y091160
X069540Y093700
X069540Y088620
X069540Y086080
X087320Y093700
X087320Y091160
X087320Y088620
X087320Y086080
M30