%MOIN*%
%OFA0B0*%
%FSLAX44Y44*%
%IPPOS*%
%LPD*%
%ADD10C,0*%
D10*
X00027449Y00007189D02*
X00027449Y00007189D01*
X00025306Y00007189D01*
X00022616Y00007189D01*
X00022586Y00007190D01*
X00022557Y00007194D01*
X00022528Y00007199D01*
X00022499Y00007207D01*
X00022472Y00007217D01*
X00022444Y00007228D01*
X00022418Y00007242D01*
X00022393Y00007258D01*
X00022370Y00007276D01*
X00022347Y00007295D01*
X00022326Y00007316D01*
X00022307Y00007338D01*
X00022290Y00007362D01*
X00022274Y00007387D01*
X00022260Y00007413D01*
X00022249Y00007440D01*
X00022239Y00007468D01*
X00022232Y00007497D01*
X00022226Y00007526D01*
X00022223Y00007555D01*
X00022178Y00008196D01*
X00022177Y00008228D01*
X00022179Y00008260D01*
X00022183Y00008292D01*
X00022190Y00008324D01*
X00022199Y00008355D01*
X00022211Y00008385D01*
X00022226Y00008414D01*
X00022243Y00008441D01*
X00022262Y00008467D01*
X00022283Y00008492D01*
X00022306Y00008515D01*
X00022330Y00008535D01*
X00022357Y00008554D01*
X00022384Y00008570D01*
X00022414Y00008585D01*
X00022444Y00008596D01*
X00022475Y00008605D01*
X00022506Y00008612D01*
X00022538Y00008616D01*
X00022571Y00008617D01*
X00025492Y00008617D01*
X00025492Y00013784D01*
X00025494Y00013816D01*
X00025498Y00013847D01*
X00025504Y00013879D01*
X00025513Y00013909D01*
X00025524Y00013939D01*
X00025537Y00013967D01*
X00025553Y00013995D01*
X00025571Y00014021D01*
X00025591Y00014045D01*
X00025613Y00014068D01*
X00025637Y00014089D01*
X00025662Y00014108D01*
X00025689Y00014125D01*
X00025717Y00014140D01*
X00025746Y00014152D01*
X00025777Y00014162D01*
X00025807Y00014170D01*
X00025839Y00014175D01*
X00025870Y00014178D01*
X00025902Y00014178D01*
X00026850Y00014140D01*
X00026880Y00014137D01*
X00026909Y00014133D01*
X00026939Y00014126D01*
X00026967Y00014117D01*
X00026995Y00014105D01*
X00027022Y00014092D01*
X00027048Y00014077D01*
X00027073Y00014059D01*
X00027096Y00014040D01*
X00027118Y00014019D01*
X00027138Y00013997D01*
X00027156Y00013973D01*
X00027172Y00013947D01*
X00027187Y00013921D01*
X00027199Y00013893D01*
X00027209Y00013865D01*
X00027217Y00013836D01*
X00027223Y00013806D01*
X00027226Y00013776D01*
X00027227Y00013746D01*
X00027227Y00008617D01*
X00029791Y00008617D01*
X00029823Y00008616D01*
X00029855Y00008612D01*
X00029887Y00008605D01*
X00029918Y00008596D01*
X00029948Y00008585D01*
X00029977Y00008570D01*
X00030005Y00008554D01*
X00030031Y00008535D01*
X00030056Y00008515D01*
X00030079Y00008492D01*
X00030100Y00008467D01*
X00030119Y00008441D01*
X00030135Y00008414D01*
X00030150Y00008385D01*
X00030162Y00008355D01*
X00030171Y00008324D01*
X00030178Y00008292D01*
X00030183Y00008260D01*
X00030184Y00008228D01*
X00030183Y00008196D01*
X00030138Y00007555D01*
X00030135Y00007526D01*
X00030130Y00007497D01*
X00030122Y00007468D01*
X00030112Y00007440D01*
X00030101Y00007413D01*
X00030087Y00007387D01*
X00030071Y00007362D01*
X00030054Y00007338D01*
X00030035Y00007316D01*
X00030014Y00007295D01*
X00029992Y00007276D01*
X00029968Y00007258D01*
X00029943Y00007242D01*
X00029917Y00007228D01*
X00029890Y00007217D01*
X00029862Y00007207D01*
X00029833Y00007199D01*
X00029804Y00007194D01*
X00029775Y00007190D01*
X00029745Y00007189D01*
X00027449Y00007189D01*
X00027449Y00015063D02*
X00027449Y00015063D01*
X00025306Y00015063D01*
X00022616Y00015063D01*
X00022586Y00015064D01*
X00022557Y00015068D01*
X00022528Y00015073D01*
X00022499Y00015081D01*
X00022472Y00015091D01*
X00022444Y00015102D01*
X00022418Y00015116D01*
X00022393Y00015132D01*
X00022370Y00015150D01*
X00022347Y00015169D01*
X00022326Y00015190D01*
X00022307Y00015212D01*
X00022290Y00015236D01*
X00022274Y00015261D01*
X00022260Y00015287D01*
X00022249Y00015314D01*
X00022239Y00015342D01*
X00022232Y00015371D01*
X00022226Y00015400D01*
X00022223Y00015429D01*
X00022178Y00016070D01*
X00022177Y00016102D01*
X00022179Y00016134D01*
X00022183Y00016166D01*
X00022190Y00016198D01*
X00022199Y00016229D01*
X00022211Y00016259D01*
X00022226Y00016288D01*
X00022243Y00016315D01*
X00022262Y00016341D01*
X00022283Y00016366D01*
X00022306Y00016389D01*
X00022330Y00016409D01*
X00022357Y00016428D01*
X00022384Y00016444D01*
X00022414Y00016459D01*
X00022444Y00016470D01*
X00022475Y00016479D01*
X00022506Y00016486D01*
X00022538Y00016490D01*
X00022571Y00016491D01*
X00025492Y00016491D01*
X00025492Y00021658D01*
X00025494Y00021690D01*
X00025498Y00021721D01*
X00025504Y00021753D01*
X00025513Y00021783D01*
X00025524Y00021813D01*
X00025537Y00021841D01*
X00025553Y00021869D01*
X00025571Y00021895D01*
X00025591Y00021919D01*
X00025613Y00021942D01*
X00025637Y00021963D01*
X00025662Y00021982D01*
X00025689Y00021999D01*
X00025717Y00022014D01*
X00025746Y00022026D01*
X00025777Y00022036D01*
X00025807Y00022044D01*
X00025839Y00022049D01*
X00025870Y00022052D01*
X00025902Y00022052D01*
X00026850Y00022014D01*
X00026880Y00022011D01*
X00026909Y00022007D01*
X00026939Y00022000D01*
X00026967Y00021991D01*
X00026995Y00021979D01*
X00027022Y00021966D01*
X00027048Y00021951D01*
X00027073Y00021933D01*
X00027096Y00021914D01*
X00027118Y00021893D01*
X00027138Y00021871D01*
X00027156Y00021847D01*
X00027172Y00021821D01*
X00027187Y00021795D01*
X00027199Y00021767D01*
X00027209Y00021739D01*
X00027217Y00021710D01*
X00027223Y00021680D01*
X00027226Y00021650D01*
X00027227Y00021620D01*
X00027227Y00016491D01*
X00029791Y00016491D01*
X00029823Y00016490D01*
X00029855Y00016486D01*
X00029887Y00016479D01*
X00029918Y00016470D01*
X00029948Y00016459D01*
X00029977Y00016444D01*
X00030005Y00016428D01*
X00030031Y00016409D01*
X00030056Y00016389D01*
X00030079Y00016366D01*
X00030100Y00016341D01*
X00030119Y00016315D01*
X00030135Y00016288D01*
X00030150Y00016259D01*
X00030162Y00016229D01*
X00030171Y00016198D01*
X00030178Y00016166D01*
X00030183Y00016134D01*
X00030184Y00016102D01*
X00030183Y00016070D01*
X00030138Y00015429D01*
X00030135Y00015400D01*
X00030130Y00015371D01*
X00030122Y00015342D01*
X00030112Y00015314D01*
X00030101Y00015287D01*
X00030087Y00015261D01*
X00030071Y00015236D01*
X00030054Y00015212D01*
X00030035Y00015190D01*
X00030014Y00015169D01*
X00029992Y00015150D01*
X00029968Y00015132D01*
X00029943Y00015116D01*
X00029917Y00015102D01*
X00029890Y00015091D01*
X00029862Y00015081D01*
X00029833Y00015073D01*
X00029804Y00015068D01*
X00029775Y00015064D01*
X00029745Y00015063D01*
X00027449Y00015063D01*
X00027449Y00022937D02*
X00027449Y00022937D01*
X00025306Y00022937D01*
X00022616Y00022937D01*
X00022586Y00022938D01*
X00022557Y00022942D01*
X00022528Y00022947D01*
X00022499Y00022955D01*
X00022472Y00022965D01*
X00022444Y00022977D01*
X00022418Y00022990D01*
X00022393Y00023006D01*
X00022370Y00023024D01*
X00022347Y00023043D01*
X00022326Y00023064D01*
X00022307Y00023086D01*
X00022290Y00023110D01*
X00022274Y00023135D01*
X00022260Y00023161D01*
X00022249Y00023188D01*
X00022239Y00023216D01*
X00022232Y00023245D01*
X00022226Y00023274D01*
X00022223Y00023303D01*
X00022178Y00023944D01*
X00022177Y00023976D01*
X00022179Y00024008D01*
X00022183Y00024040D01*
X00022190Y00024072D01*
X00022199Y00024103D01*
X00022211Y00024133D01*
X00022226Y00024162D01*
X00022243Y00024189D01*
X00022262Y00024215D01*
X00022283Y00024240D01*
X00022306Y00024263D01*
X00022330Y00024283D01*
X00022357Y00024302D01*
X00022384Y00024318D01*
X00022414Y00024333D01*
X00022444Y00024344D01*
X00022475Y00024353D01*
X00022506Y00024360D01*
X00022538Y00024364D01*
X00022571Y00024365D01*
X00025492Y00024365D01*
X00025492Y00029532D01*
X00025494Y00029564D01*
X00025498Y00029595D01*
X00025504Y00029627D01*
X00025513Y00029657D01*
X00025524Y00029687D01*
X00025537Y00029715D01*
X00025553Y00029743D01*
X00025571Y00029769D01*
X00025591Y00029793D01*
X00025613Y00029816D01*
X00025637Y00029837D01*
X00025662Y00029856D01*
X00025689Y00029873D01*
X00025717Y00029888D01*
X00025746Y00029900D01*
X00025777Y00029910D01*
X00025807Y00029918D01*
X00025839Y00029923D01*
X00025870Y00029926D01*
X00025902Y00029926D01*
X00026850Y00029888D01*
X00026880Y00029885D01*
X00026909Y00029881D01*
X00026939Y00029874D01*
X00026967Y00029865D01*
X00026995Y00029853D01*
X00027022Y00029840D01*
X00027048Y00029825D01*
X00027073Y00029807D01*
X00027096Y00029788D01*
X00027118Y00029767D01*
X00027138Y00029745D01*
X00027156Y00029721D01*
X00027172Y00029695D01*
X00027187Y00029669D01*
X00027199Y00029641D01*
X00027209Y00029613D01*
X00027217Y00029584D01*
X00027223Y00029554D01*
X00027226Y00029524D01*
X00027227Y00029494D01*
X00027227Y00024365D01*
X00029791Y00024365D01*
X00029823Y00024364D01*
X00029855Y00024360D01*
X00029887Y00024353D01*
X00029918Y00024344D01*
X00029948Y00024333D01*
X00029977Y00024318D01*
X00030005Y00024302D01*
X00030031Y00024283D01*
X00030056Y00024263D01*
X00030079Y00024240D01*
X00030100Y00024215D01*
X00030119Y00024189D01*
X00030135Y00024162D01*
X00030150Y00024133D01*
X00030162Y00024103D01*
X00030171Y00024072D01*
X00030178Y00024040D01*
X00030183Y00024008D01*
X00030184Y00023976D01*
X00030183Y00023944D01*
X00030138Y00023303D01*
X00030135Y00023274D01*
X00030130Y00023245D01*
X00030122Y00023216D01*
X00030112Y00023188D01*
X00030101Y00023161D01*
X00030087Y00023135D01*
X00030071Y00023110D01*
X00030054Y00023086D01*
X00030035Y00023064D01*
X00030014Y00023043D01*
X00029992Y00023024D01*
X00029968Y00023006D01*
X00029943Y00022990D01*
X00029917Y00022977D01*
X00029890Y00022965D01*
X00029862Y00022955D01*
X00029833Y00022947D01*
X00029804Y00022942D01*
X00029775Y00022938D01*
X00029745Y00022937D01*
X00027449Y00022937D01*
X00027449Y00030811D02*
X00027449Y00030811D01*
X00025306Y00030811D01*
X00022616Y00030811D01*
X00022586Y00030812D01*
X00022557Y00030816D01*
X00022528Y00030821D01*
X00022499Y00030829D01*
X00022472Y00030839D01*
X00022444Y00030851D01*
X00022418Y00030864D01*
X00022393Y00030880D01*
X00022370Y00030898D01*
X00022347Y00030917D01*
X00022326Y00030938D01*
X00022307Y00030960D01*
X00022290Y00030984D01*
X00022274Y00031009D01*
X00022260Y00031035D01*
X00022249Y00031062D01*
X00022239Y00031090D01*
X00022232Y00031119D01*
X00022226Y00031148D01*
X00022223Y00031177D01*
X00022178Y00031818D01*
X00022177Y00031850D01*
X00022179Y00031882D01*
X00022183Y00031914D01*
X00022190Y00031946D01*
X00022199Y00031977D01*
X00022211Y00032007D01*
X00022226Y00032036D01*
X00022243Y00032063D01*
X00022262Y00032089D01*
X00022283Y00032114D01*
X00022306Y00032137D01*
X00022330Y00032157D01*
X00022357Y00032176D01*
X00022384Y00032193D01*
X00022414Y00032207D01*
X00022444Y00032218D01*
X00022475Y00032227D01*
X00022506Y00032234D01*
X00022538Y00032238D01*
X00022571Y00032239D01*
X00025492Y00032239D01*
X00025492Y00037406D01*
X00025494Y00037438D01*
X00025498Y00037470D01*
X00025504Y00037501D01*
X00025513Y00037531D01*
X00025524Y00037561D01*
X00025537Y00037589D01*
X00025553Y00037617D01*
X00025571Y00037643D01*
X00025591Y00037667D01*
X00025613Y00037690D01*
X00025637Y00037711D01*
X00025662Y00037730D01*
X00025689Y00037747D01*
X00025717Y00037762D01*
X00025746Y00037774D01*
X00025777Y00037784D01*
X00025807Y00037792D01*
X00025839Y00037797D01*
X00025870Y00037800D01*
X00025902Y00037800D01*
X00026850Y00037762D01*
X00026880Y00037759D01*
X00026909Y00037755D01*
X00026939Y00037748D01*
X00026967Y00037739D01*
X00026995Y00037727D01*
X00027022Y00037714D01*
X00027048Y00037699D01*
X00027073Y00037681D01*
X00027096Y00037662D01*
X00027118Y00037641D01*
X00027138Y00037619D01*
X00027156Y00037595D01*
X00027172Y00037569D01*
X00027187Y00037543D01*
X00027199Y00037515D01*
X00027209Y00037487D01*
X00027217Y00037458D01*
X00027223Y00037428D01*
X00027226Y00037399D01*
X00027227Y00037368D01*
X00027227Y00032239D01*
X00029791Y00032239D01*
X00029823Y00032238D01*
X00029855Y00032234D01*
X00029887Y00032227D01*
X00029918Y00032218D01*
X00029948Y00032207D01*
X00029977Y00032193D01*
X00030005Y00032176D01*
X00030031Y00032157D01*
X00030056Y00032137D01*
X00030079Y00032114D01*
X00030100Y00032089D01*
X00030119Y00032063D01*
X00030135Y00032036D01*
X00030150Y00032007D01*
X00030162Y00031977D01*
X00030171Y00031946D01*
X00030178Y00031914D01*
X00030183Y00031882D01*
X00030184Y00031850D01*
X00030183Y00031818D01*
X00030138Y00031177D01*
X00030135Y00031148D01*
X00030130Y00031119D01*
X00030122Y00031090D01*
X00030112Y00031062D01*
X00030101Y00031035D01*
X00030087Y00031009D01*
X00030071Y00030984D01*
X00030054Y00030960D01*
X00030035Y00030938D01*
X00030014Y00030917D01*
X00029992Y00030898D01*
X00029968Y00030880D01*
X00029943Y00030864D01*
X00029917Y00030851D01*
X00029890Y00030839D01*
X00029862Y00030829D01*
X00029833Y00030821D01*
X00029804Y00030816D01*
X00029775Y00030812D01*
X00029745Y00030811D01*
X00027449Y00030811D01*
X00018394Y00030811D02*
X00018394Y00030811D01*
X00016251Y00030811D01*
X00013561Y00030811D01*
X00013531Y00030812D01*
X00013502Y00030816D01*
X00013473Y00030821D01*
X00013444Y00030829D01*
X00013416Y00030839D01*
X00013389Y00030851D01*
X00013363Y00030864D01*
X00013338Y00030880D01*
X00013315Y00030898D01*
X00013292Y00030917D01*
X00013271Y00030938D01*
X00013252Y00030960D01*
X00013235Y00030984D01*
X00013219Y00031009D01*
X00013205Y00031035D01*
X00013194Y00031062D01*
X00013184Y00031090D01*
X00013176Y00031119D01*
X00013171Y00031148D01*
X00013168Y00031177D01*
X00013123Y00031818D01*
X00013122Y00031850D01*
X00013124Y00031882D01*
X00013128Y00031914D01*
X00013135Y00031946D01*
X00013144Y00031977D01*
X00013156Y00032007D01*
X00013171Y00032036D01*
X00013187Y00032063D01*
X00013206Y00032089D01*
X00013227Y00032114D01*
X00013250Y00032137D01*
X00013275Y00032157D01*
X00013302Y00032176D01*
X00013329Y00032193D01*
X00013358Y00032207D01*
X00013389Y00032218D01*
X00013420Y00032227D01*
X00013451Y00032234D01*
X00013483Y00032238D01*
X00013515Y00032239D01*
X00016437Y00032239D01*
X00016437Y00037406D01*
X00016439Y00037438D01*
X00016442Y00037470D01*
X00016449Y00037501D01*
X00016458Y00037531D01*
X00016469Y00037561D01*
X00016482Y00037589D01*
X00016498Y00037617D01*
X00016516Y00037643D01*
X00016536Y00037667D01*
X00016558Y00037690D01*
X00016582Y00037711D01*
X00016607Y00037730D01*
X00016634Y00037747D01*
X00016662Y00037762D01*
X00016691Y00037774D01*
X00016721Y00037784D01*
X00016752Y00037792D01*
X00016783Y00037797D01*
X00016815Y00037800D01*
X00016847Y00037800D01*
X00017794Y00037762D01*
X00017824Y00037759D01*
X00017854Y00037755D01*
X00017884Y00037748D01*
X00017912Y00037739D01*
X00017940Y00037727D01*
X00017967Y00037714D01*
X00017993Y00037699D01*
X00018018Y00037681D01*
X00018041Y00037662D01*
X00018063Y00037641D01*
X00018083Y00037619D01*
X00018101Y00037595D01*
X00018117Y00037569D01*
X00018132Y00037543D01*
X00018144Y00037515D01*
X00018154Y00037487D01*
X00018162Y00037458D01*
X00018168Y00037428D01*
X00018171Y00037399D01*
X00018172Y00037368D01*
X00018172Y00032239D01*
X00020735Y00032239D01*
X00020768Y00032238D01*
X00020800Y00032234D01*
X00020831Y00032227D01*
X00020862Y00032218D01*
X00020893Y00032207D01*
X00020922Y00032193D01*
X00020949Y00032176D01*
X00020976Y00032157D01*
X00021001Y00032137D01*
X00021023Y00032114D01*
X00021045Y00032089D01*
X00021063Y00032063D01*
X00021080Y00032036D01*
X00021095Y00032007D01*
X00021107Y00031977D01*
X00021116Y00031946D01*
X00021123Y00031914D01*
X00021127Y00031882D01*
X00021129Y00031850D01*
X00021128Y00031818D01*
X00021083Y00031177D01*
X00021080Y00031148D01*
X00021075Y00031119D01*
X00021067Y00031090D01*
X00021057Y00031062D01*
X00021046Y00031035D01*
X00021032Y00031009D01*
X00021016Y00030984D01*
X00020999Y00030960D01*
X00020980Y00030938D01*
X00020959Y00030917D01*
X00020936Y00030898D01*
X00020913Y00030880D01*
X00020888Y00030864D01*
X00020862Y00030851D01*
X00020835Y00030839D01*
X00020807Y00030829D01*
X00020778Y00030821D01*
X00020749Y00030816D01*
X00020720Y00030812D01*
X00020690Y00030811D01*
X00018394Y00030811D01*
X00018394Y00022937D02*
X00018394Y00022937D01*
X00016251Y00022937D01*
X00013561Y00022937D01*
X00013531Y00022938D01*
X00013502Y00022942D01*
X00013473Y00022947D01*
X00013444Y00022955D01*
X00013416Y00022965D01*
X00013389Y00022977D01*
X00013363Y00022990D01*
X00013338Y00023006D01*
X00013315Y00023024D01*
X00013292Y00023043D01*
X00013271Y00023064D01*
X00013252Y00023086D01*
X00013235Y00023110D01*
X00013219Y00023135D01*
X00013205Y00023161D01*
X00013194Y00023188D01*
X00013184Y00023216D01*
X00013176Y00023245D01*
X00013171Y00023274D01*
X00013168Y00023303D01*
X00013123Y00023944D01*
X00013122Y00023976D01*
X00013124Y00024008D01*
X00013128Y00024040D01*
X00013135Y00024072D01*
X00013144Y00024103D01*
X00013156Y00024133D01*
X00013171Y00024162D01*
X00013187Y00024189D01*
X00013206Y00024215D01*
X00013227Y00024240D01*
X00013250Y00024263D01*
X00013275Y00024283D01*
X00013302Y00024302D01*
X00013329Y00024318D01*
X00013358Y00024333D01*
X00013389Y00024344D01*
X00013420Y00024353D01*
X00013451Y00024360D01*
X00013483Y00024364D01*
X00013515Y00024365D01*
X00016437Y00024365D01*
X00016437Y00029532D01*
X00016439Y00029564D01*
X00016442Y00029595D01*
X00016449Y00029627D01*
X00016458Y00029657D01*
X00016469Y00029687D01*
X00016482Y00029715D01*
X00016498Y00029743D01*
X00016516Y00029769D01*
X00016536Y00029793D01*
X00016558Y00029816D01*
X00016582Y00029837D01*
X00016607Y00029856D01*
X00016634Y00029873D01*
X00016662Y00029888D01*
X00016691Y00029900D01*
X00016721Y00029910D01*
X00016752Y00029918D01*
X00016783Y00029923D01*
X00016815Y00029926D01*
X00016847Y00029926D01*
X00017794Y00029888D01*
X00017824Y00029885D01*
X00017854Y00029881D01*
X00017884Y00029874D01*
X00017912Y00029865D01*
X00017940Y00029853D01*
X00017967Y00029840D01*
X00017993Y00029825D01*
X00018018Y00029807D01*
X00018041Y00029788D01*
X00018063Y00029767D01*
X00018083Y00029745D01*
X00018101Y00029721D01*
X00018117Y00029695D01*
X00018132Y00029669D01*
X00018144Y00029641D01*
X00018154Y00029613D01*
X00018162Y00029584D01*
X00018168Y00029554D01*
X00018171Y00029524D01*
X00018172Y00029494D01*
X00018172Y00024365D01*
X00020735Y00024365D01*
X00020768Y00024364D01*
X00020800Y00024360D01*
X00020831Y00024353D01*
X00020862Y00024344D01*
X00020893Y00024333D01*
X00020922Y00024318D01*
X00020949Y00024302D01*
X00020976Y00024283D01*
X00021001Y00024263D01*
X00021023Y00024240D01*
X00021045Y00024215D01*
X00021063Y00024189D01*
X00021080Y00024162D01*
X00021095Y00024133D01*
X00021107Y00024103D01*
X00021116Y00024072D01*
X00021123Y00024040D01*
X00021127Y00024008D01*
X00021129Y00023976D01*
X00021128Y00023944D01*
X00021083Y00023303D01*
X00021080Y00023274D01*
X00021075Y00023245D01*
X00021067Y00023216D01*
X00021057Y00023188D01*
X00021046Y00023161D01*
X00021032Y00023135D01*
X00021016Y00023110D01*
X00020999Y00023086D01*
X00020980Y00023064D01*
X00020959Y00023043D01*
X00020936Y00023024D01*
X00020913Y00023006D01*
X00020888Y00022990D01*
X00020862Y00022977D01*
X00020835Y00022965D01*
X00020807Y00022955D01*
X00020778Y00022947D01*
X00020749Y00022942D01*
X00020720Y00022938D01*
X00020690Y00022937D01*
X00018394Y00022937D01*
X00018394Y00015063D02*
X00018394Y00015063D01*
X00016251Y00015063D01*
X00013561Y00015063D01*
X00013531Y00015064D01*
X00013502Y00015068D01*
X00013473Y00015073D01*
X00013444Y00015081D01*
X00013416Y00015091D01*
X00013389Y00015102D01*
X00013363Y00015116D01*
X00013338Y00015132D01*
X00013315Y00015150D01*
X00013292Y00015169D01*
X00013271Y00015190D01*
X00013252Y00015212D01*
X00013235Y00015236D01*
X00013219Y00015261D01*
X00013205Y00015287D01*
X00013194Y00015314D01*
X00013184Y00015342D01*
X00013176Y00015371D01*
X00013171Y00015400D01*
X00013168Y00015429D01*
X00013123Y00016070D01*
X00013122Y00016102D01*
X00013124Y00016134D01*
X00013128Y00016166D01*
X00013135Y00016198D01*
X00013144Y00016229D01*
X00013156Y00016259D01*
X00013171Y00016288D01*
X00013187Y00016315D01*
X00013206Y00016341D01*
X00013227Y00016366D01*
X00013250Y00016389D01*
X00013275Y00016409D01*
X00013302Y00016428D01*
X00013329Y00016444D01*
X00013358Y00016459D01*
X00013389Y00016470D01*
X00013420Y00016479D01*
X00013451Y00016486D01*
X00013483Y00016490D01*
X00013515Y00016491D01*
X00016437Y00016491D01*
X00016437Y00021658D01*
X00016439Y00021690D01*
X00016442Y00021721D01*
X00016449Y00021753D01*
X00016458Y00021783D01*
X00016469Y00021813D01*
X00016482Y00021841D01*
X00016498Y00021869D01*
X00016516Y00021895D01*
X00016536Y00021919D01*
X00016558Y00021942D01*
X00016582Y00021963D01*
X00016607Y00021982D01*
X00016634Y00021999D01*
X00016662Y00022014D01*
X00016691Y00022026D01*
X00016721Y00022036D01*
X00016752Y00022044D01*
X00016783Y00022049D01*
X00016815Y00022052D01*
X00016847Y00022052D01*
X00017794Y00022014D01*
X00017824Y00022011D01*
X00017854Y00022007D01*
X00017884Y00022000D01*
X00017912Y00021991D01*
X00017940Y00021979D01*
X00017967Y00021966D01*
X00017993Y00021951D01*
X00018018Y00021933D01*
X00018041Y00021914D01*
X00018063Y00021893D01*
X00018083Y00021871D01*
X00018101Y00021847D01*
X00018117Y00021821D01*
X00018132Y00021795D01*
X00018144Y00021767D01*
X00018154Y00021739D01*
X00018162Y00021710D01*
X00018168Y00021680D01*
X00018171Y00021650D01*
X00018172Y00021620D01*
X00018172Y00016491D01*
X00020735Y00016491D01*
X00020768Y00016490D01*
X00020800Y00016486D01*
X00020831Y00016479D01*
X00020862Y00016470D01*
X00020893Y00016459D01*
X00020922Y00016444D01*
X00020949Y00016428D01*
X00020976Y00016409D01*
X00021001Y00016389D01*
X00021023Y00016366D01*
X00021045Y00016341D01*
X00021063Y00016315D01*
X00021080Y00016288D01*
X00021095Y00016259D01*
X00021107Y00016229D01*
X00021116Y00016198D01*
X00021123Y00016166D01*
X00021127Y00016134D01*
X00021129Y00016102D01*
X00021128Y00016070D01*
X00021083Y00015429D01*
X00021080Y00015400D01*
X00021075Y00015371D01*
X00021067Y00015342D01*
X00021057Y00015314D01*
X00021046Y00015287D01*
X00021032Y00015261D01*
X00021016Y00015236D01*
X00020999Y00015212D01*
X00020980Y00015190D01*
X00020959Y00015169D01*
X00020936Y00015150D01*
X00020913Y00015132D01*
X00020888Y00015116D01*
X00020862Y00015102D01*
X00020835Y00015091D01*
X00020807Y00015081D01*
X00020778Y00015073D01*
X00020749Y00015068D01*
X00020720Y00015064D01*
X00020690Y00015063D01*
X00018394Y00015063D01*
X00018394Y00007189D02*
X00018394Y00007189D01*
X00016251Y00007189D01*
X00013561Y00007189D01*
X00013531Y00007190D01*
X00013502Y00007194D01*
X00013473Y00007199D01*
X00013444Y00007207D01*
X00013416Y00007217D01*
X00013389Y00007228D01*
X00013363Y00007242D01*
X00013338Y00007258D01*
X00013315Y00007276D01*
X00013292Y00007295D01*
X00013271Y00007316D01*
X00013252Y00007338D01*
X00013235Y00007362D01*
X00013219Y00007387D01*
X00013205Y00007413D01*
X00013194Y00007440D01*
X00013184Y00007468D01*
X00013176Y00007497D01*
X00013171Y00007526D01*
X00013168Y00007555D01*
X00013123Y00008196D01*
X00013122Y00008228D01*
X00013124Y00008260D01*
X00013128Y00008292D01*
X00013135Y00008324D01*
X00013144Y00008355D01*
X00013156Y00008385D01*
X00013171Y00008414D01*
X00013187Y00008441D01*
X00013206Y00008467D01*
X00013227Y00008492D01*
X00013250Y00008515D01*
X00013275Y00008535D01*
X00013302Y00008554D01*
X00013329Y00008570D01*
X00013358Y00008585D01*
X00013389Y00008596D01*
X00013420Y00008605D01*
X00013451Y00008612D01*
X00013483Y00008616D01*
X00013515Y00008617D01*
X00016437Y00008617D01*
X00016437Y00013784D01*
X00016439Y00013816D01*
X00016442Y00013847D01*
X00016449Y00013879D01*
X00016458Y00013909D01*
X00016469Y00013939D01*
X00016482Y00013967D01*
X00016498Y00013995D01*
X00016516Y00014021D01*
X00016536Y00014045D01*
X00016558Y00014068D01*
X00016582Y00014089D01*
X00016607Y00014108D01*
X00016634Y00014125D01*
X00016662Y00014140D01*
X00016691Y00014152D01*
X00016721Y00014162D01*
X00016752Y00014170D01*
X00016783Y00014175D01*
X00016815Y00014178D01*
X00016847Y00014178D01*
X00017794Y00014140D01*
X00017824Y00014137D01*
X00017854Y00014133D01*
X00017884Y00014126D01*
X00017912Y00014117D01*
X00017940Y00014105D01*
X00017967Y00014092D01*
X00017993Y00014077D01*
X00018018Y00014059D01*
X00018041Y00014040D01*
X00018063Y00014019D01*
X00018083Y00013997D01*
X00018101Y00013973D01*
X00018117Y00013947D01*
X00018132Y00013921D01*
X00018144Y00013893D01*
X00018154Y00013865D01*
X00018162Y00013836D01*
X00018168Y00013806D01*
X00018171Y00013776D01*
X00018172Y00013746D01*
X00018172Y00008617D01*
X00020735Y00008617D01*
X00020768Y00008616D01*
X00020800Y00008612D01*
X00020831Y00008605D01*
X00020862Y00008596D01*
X00020893Y00008585D01*
X00020922Y00008570D01*
X00020949Y00008554D01*
X00020976Y00008535D01*
X00021001Y00008515D01*
X00021023Y00008492D01*
X00021045Y00008467D01*
X00021063Y00008441D01*
X00021080Y00008414D01*
X00021095Y00008385D01*
X00021107Y00008355D01*
X00021116Y00008324D01*
X00021123Y00008292D01*
X00021127Y00008260D01*
X00021129Y00008228D01*
X00021128Y00008196D01*
X00021083Y00007555D01*
X00021080Y00007526D01*
X00021075Y00007497D01*
X00021067Y00007468D01*
X00021057Y00007440D01*
X00021046Y00007413D01*
X00021032Y00007387D01*
X00021016Y00007362D01*
X00020999Y00007338D01*
X00020980Y00007316D01*
X00020959Y00007295D01*
X00020936Y00007276D01*
X00020913Y00007258D01*
X00020888Y00007242D01*
X00020862Y00007228D01*
X00020835Y00007217D01*
X00020807Y00007207D01*
X00020778Y00007199D01*
X00020749Y00007194D01*
X00020720Y00007190D01*
X00020690Y00007189D01*
X00018394Y00007189D01*
X00007382Y00013784D02*
X00007382Y00013784D01*
X00007383Y00013816D01*
X00007387Y00013847D01*
X00007394Y00013879D01*
X00007402Y00013909D01*
X00007414Y00013939D01*
X00007427Y00013967D01*
X00007443Y00013995D01*
X00007461Y00014021D01*
X00007481Y00014045D01*
X00007503Y00014068D01*
X00007527Y00014089D01*
X00007552Y00014108D01*
X00007579Y00014125D01*
X00007607Y00014140D01*
X00007636Y00014152D01*
X00007666Y00014162D01*
X00007697Y00014170D01*
X00007728Y00014175D01*
X00007760Y00014178D01*
X00007792Y00014178D01*
X00008739Y00014140D01*
X00008769Y00014137D01*
X00008799Y00014133D01*
X00008828Y00014126D01*
X00008857Y00014117D01*
X00008885Y00014105D01*
X00008912Y00014092D01*
X00008938Y00014077D01*
X00008963Y00014059D01*
X00008986Y00014040D01*
X00009007Y00014019D01*
X00009027Y00013997D01*
X00009046Y00013973D01*
X00009062Y00013947D01*
X00009076Y00013921D01*
X00009089Y00013893D01*
X00009099Y00013865D01*
X00009107Y00013836D01*
X00009113Y00013806D01*
X00009116Y00013776D01*
X00009117Y00013746D01*
X00009117Y00008617D01*
X00011680Y00008617D01*
X00011713Y00008616D01*
X00011745Y00008612D01*
X00011776Y00008605D01*
X00011807Y00008596D01*
X00011837Y00008585D01*
X00011866Y00008570D01*
X00011894Y00008554D01*
X00011921Y00008535D01*
X00011945Y00008515D01*
X00011968Y00008492D01*
X00011989Y00008467D01*
X00012008Y00008441D01*
X00012025Y00008414D01*
X00012040Y00008385D01*
X00012052Y00008355D01*
X00012061Y00008324D01*
X00012068Y00008292D01*
X00012072Y00008260D01*
X00012074Y00008228D01*
X00012073Y00008196D01*
X00012028Y00007555D01*
X00012025Y00007526D01*
X00012019Y00007497D01*
X00012012Y00007468D01*
X00012002Y00007440D01*
X00011990Y00007413D01*
X00011977Y00007387D01*
X00011961Y00007362D01*
X00011944Y00007338D01*
X00011924Y00007316D01*
X00011904Y00007295D01*
X00011881Y00007276D01*
X00011858Y00007258D01*
X00011833Y00007242D01*
X00011807Y00007228D01*
X00011779Y00007217D01*
X00011752Y00007207D01*
X00011723Y00007199D01*
X00011694Y00007194D01*
X00011665Y00007190D01*
X00011635Y00007189D01*
X00009339Y00007189D01*
X00007196Y00007189D01*
X00004506Y00007189D01*
X00004476Y00007190D01*
X00004447Y00007194D01*
X00004418Y00007199D01*
X00004389Y00007207D01*
X00004361Y00007217D01*
X00004334Y00007228D01*
X00004308Y00007242D01*
X00004283Y00007258D01*
X00004259Y00007276D01*
X00004237Y00007295D01*
X00004216Y00007316D01*
X00004197Y00007338D01*
X00004180Y00007362D01*
X00004164Y00007387D01*
X00004150Y00007413D01*
X00004139Y00007440D01*
X00004129Y00007468D01*
X00004121Y00007497D01*
X00004116Y00007526D01*
X00004113Y00007555D01*
X00004068Y00008196D01*
X00004067Y00008228D01*
X00004068Y00008260D01*
X00004073Y00008292D01*
X00004080Y00008324D01*
X00004089Y00008355D01*
X00004101Y00008385D01*
X00004116Y00008414D01*
X00004132Y00008441D01*
X00004151Y00008467D01*
X00004172Y00008492D01*
X00004195Y00008515D01*
X00004220Y00008535D01*
X00004246Y00008554D01*
X00004274Y00008570D01*
X00004303Y00008585D01*
X00004333Y00008596D01*
X00004364Y00008605D01*
X00004396Y00008612D01*
X00004428Y00008616D01*
X00004460Y00008617D01*
X00007382Y00008617D01*
X00007382Y00013784D01*
X00007382Y00021658D02*
X00007382Y00021658D01*
X00007383Y00021690D01*
X00007387Y00021721D01*
X00007394Y00021753D01*
X00007402Y00021783D01*
X00007414Y00021813D01*
X00007427Y00021841D01*
X00007443Y00021869D01*
X00007461Y00021895D01*
X00007481Y00021919D01*
X00007503Y00021942D01*
X00007527Y00021963D01*
X00007552Y00021982D01*
X00007579Y00021999D01*
X00007607Y00022014D01*
X00007636Y00022026D01*
X00007666Y00022036D01*
X00007697Y00022044D01*
X00007728Y00022049D01*
X00007760Y00022052D01*
X00007792Y00022052D01*
X00008739Y00022014D01*
X00008769Y00022011D01*
X00008799Y00022007D01*
X00008828Y00022000D01*
X00008857Y00021991D01*
X00008885Y00021979D01*
X00008912Y00021966D01*
X00008938Y00021951D01*
X00008963Y00021933D01*
X00008986Y00021914D01*
X00009007Y00021893D01*
X00009027Y00021871D01*
X00009046Y00021847D01*
X00009062Y00021821D01*
X00009076Y00021795D01*
X00009089Y00021767D01*
X00009099Y00021739D01*
X00009107Y00021710D01*
X00009113Y00021680D01*
X00009116Y00021650D01*
X00009117Y00021620D01*
X00009117Y00016491D01*
X00011680Y00016491D01*
X00011713Y00016490D01*
X00011745Y00016486D01*
X00011776Y00016479D01*
X00011807Y00016470D01*
X00011837Y00016459D01*
X00011866Y00016444D01*
X00011894Y00016428D01*
X00011921Y00016409D01*
X00011945Y00016389D01*
X00011968Y00016366D01*
X00011989Y00016341D01*
X00012008Y00016315D01*
X00012025Y00016288D01*
X00012040Y00016259D01*
X00012052Y00016229D01*
X00012061Y00016198D01*
X00012068Y00016166D01*
X00012072Y00016134D01*
X00012074Y00016102D01*
X00012073Y00016070D01*
X00012028Y00015429D01*
X00012025Y00015400D01*
X00012019Y00015371D01*
X00012012Y00015342D01*
X00012002Y00015314D01*
X00011990Y00015287D01*
X00011977Y00015261D01*
X00011961Y00015236D01*
X00011944Y00015212D01*
X00011924Y00015190D01*
X00011904Y00015169D01*
X00011881Y00015150D01*
X00011858Y00015132D01*
X00011833Y00015116D01*
X00011807Y00015102D01*
X00011779Y00015091D01*
X00011752Y00015081D01*
X00011723Y00015073D01*
X00011694Y00015068D01*
X00011665Y00015064D01*
X00011635Y00015063D01*
X00009339Y00015063D01*
X00007196Y00015063D01*
X00004506Y00015063D01*
X00004476Y00015064D01*
X00004447Y00015068D01*
X00004418Y00015073D01*
X00004389Y00015081D01*
X00004361Y00015091D01*
X00004334Y00015102D01*
X00004308Y00015116D01*
X00004283Y00015132D01*
X00004259Y00015150D01*
X00004237Y00015169D01*
X00004216Y00015190D01*
X00004197Y00015212D01*
X00004180Y00015236D01*
X00004164Y00015261D01*
X00004150Y00015287D01*
X00004139Y00015314D01*
X00004129Y00015342D01*
X00004121Y00015371D01*
X00004116Y00015400D01*
X00004113Y00015429D01*
X00004068Y00016070D01*
X00004067Y00016102D01*
X00004068Y00016134D01*
X00004073Y00016166D01*
X00004080Y00016198D01*
X00004089Y00016229D01*
X00004101Y00016259D01*
X00004116Y00016288D01*
X00004132Y00016315D01*
X00004151Y00016341D01*
X00004172Y00016366D01*
X00004195Y00016389D01*
X00004220Y00016409D01*
X00004246Y00016428D01*
X00004274Y00016444D01*
X00004303Y00016459D01*
X00004333Y00016470D01*
X00004364Y00016479D01*
X00004396Y00016486D01*
X00004428Y00016490D01*
X00004460Y00016491D01*
X00007382Y00016491D01*
X00007382Y00021658D01*
X00007382Y00029532D02*
X00007382Y00029532D01*
X00007383Y00029564D01*
X00007387Y00029595D01*
X00007394Y00029627D01*
X00007402Y00029657D01*
X00007414Y00029687D01*
X00007427Y00029715D01*
X00007443Y00029743D01*
X00007461Y00029769D01*
X00007481Y00029793D01*
X00007503Y00029816D01*
X00007527Y00029837D01*
X00007552Y00029856D01*
X00007579Y00029873D01*
X00007607Y00029888D01*
X00007636Y00029900D01*
X00007666Y00029910D01*
X00007697Y00029918D01*
X00007728Y00029923D01*
X00007760Y00029926D01*
X00007792Y00029926D01*
X00008739Y00029888D01*
X00008769Y00029885D01*
X00008799Y00029881D01*
X00008828Y00029874D01*
X00008857Y00029865D01*
X00008885Y00029853D01*
X00008912Y00029840D01*
X00008938Y00029825D01*
X00008963Y00029807D01*
X00008986Y00029788D01*
X00009007Y00029767D01*
X00009027Y00029745D01*
X00009046Y00029721D01*
X00009062Y00029695D01*
X00009076Y00029669D01*
X00009089Y00029641D01*
X00009099Y00029613D01*
X00009107Y00029584D01*
X00009113Y00029554D01*
X00009116Y00029524D01*
X00009117Y00029494D01*
X00009117Y00024365D01*
X00011680Y00024365D01*
X00011713Y00024364D01*
X00011745Y00024360D01*
X00011776Y00024353D01*
X00011807Y00024344D01*
X00011837Y00024333D01*
X00011866Y00024318D01*
X00011894Y00024302D01*
X00011921Y00024283D01*
X00011945Y00024263D01*
X00011968Y00024240D01*
X00011989Y00024215D01*
X00012008Y00024189D01*
X00012025Y00024162D01*
X00012040Y00024133D01*
X00012052Y00024103D01*
X00012061Y00024072D01*
X00012068Y00024040D01*
X00012072Y00024008D01*
X00012074Y00023976D01*
X00012073Y00023944D01*
X00012028Y00023303D01*
X00012025Y00023274D01*
X00012019Y00023245D01*
X00012012Y00023216D01*
X00012002Y00023188D01*
X00011990Y00023161D01*
X00011977Y00023135D01*
X00011961Y00023110D01*
X00011944Y00023086D01*
X00011924Y00023064D01*
X00011904Y00023043D01*
X00011881Y00023024D01*
X00011858Y00023006D01*
X00011833Y00022990D01*
X00011807Y00022977D01*
X00011779Y00022965D01*
X00011752Y00022955D01*
X00011723Y00022947D01*
X00011694Y00022942D01*
X00011665Y00022938D01*
X00011635Y00022937D01*
X00009339Y00022937D01*
X00007196Y00022937D01*
X00004506Y00022937D01*
X00004476Y00022938D01*
X00004447Y00022942D01*
X00004418Y00022947D01*
X00004389Y00022955D01*
X00004361Y00022965D01*
X00004334Y00022977D01*
X00004308Y00022990D01*
X00004283Y00023006D01*
X00004259Y00023024D01*
X00004237Y00023043D01*
X00004216Y00023064D01*
X00004197Y00023086D01*
X00004180Y00023110D01*
X00004164Y00023135D01*
X00004150Y00023161D01*
X00004139Y00023188D01*
X00004129Y00023216D01*
X00004121Y00023245D01*
X00004116Y00023274D01*
X00004113Y00023303D01*
X00004068Y00023944D01*
X00004067Y00023976D01*
X00004068Y00024008D01*
X00004073Y00024040D01*
X00004080Y00024072D01*
X00004089Y00024103D01*
X00004101Y00024133D01*
X00004116Y00024162D01*
X00004132Y00024189D01*
X00004151Y00024215D01*
X00004172Y00024240D01*
X00004195Y00024263D01*
X00004220Y00024283D01*
X00004246Y00024302D01*
X00004274Y00024318D01*
X00004303Y00024333D01*
X00004333Y00024344D01*
X00004364Y00024353D01*
X00004396Y00024360D01*
X00004428Y00024364D01*
X00004460Y00024365D01*
X00007382Y00024365D01*
X00007382Y00029532D01*
X00007382Y00037406D02*
X00007382Y00037406D01*
X00007383Y00037438D01*
X00007387Y00037470D01*
X00007394Y00037501D01*
X00007402Y00037531D01*
X00007414Y00037561D01*
X00007427Y00037589D01*
X00007443Y00037617D01*
X00007461Y00037643D01*
X00007481Y00037667D01*
X00007503Y00037690D01*
X00007527Y00037711D01*
X00007552Y00037730D01*
X00007579Y00037747D01*
X00007607Y00037762D01*
X00007636Y00037774D01*
X00007666Y00037784D01*
X00007697Y00037792D01*
X00007728Y00037797D01*
X00007760Y00037800D01*
X00007792Y00037800D01*
X00008739Y00037762D01*
X00008769Y00037759D01*
X00008799Y00037755D01*
X00008828Y00037748D01*
X00008857Y00037739D01*
X00008885Y00037727D01*
X00008912Y00037714D01*
X00008938Y00037699D01*
X00008963Y00037681D01*
X00008986Y00037662D01*
X00009007Y00037641D01*
X00009027Y00037619D01*
X00009046Y00037595D01*
X00009062Y00037569D01*
X00009076Y00037543D01*
X00009089Y00037515D01*
X00009099Y00037487D01*
X00009107Y00037458D01*
X00009113Y00037428D01*
X00009116Y00037399D01*
X00009117Y00037368D01*
X00009117Y00032239D01*
X00011680Y00032239D01*
X00011713Y00032238D01*
X00011745Y00032234D01*
X00011776Y00032227D01*
X00011807Y00032218D01*
X00011837Y00032207D01*
X00011866Y00032193D01*
X00011894Y00032176D01*
X00011921Y00032157D01*
X00011945Y00032137D01*
X00011968Y00032114D01*
X00011989Y00032089D01*
X00012008Y00032063D01*
X00012025Y00032036D01*
X00012040Y00032007D01*
X00012052Y00031977D01*
X00012061Y00031946D01*
X00012068Y00031914D01*
X00012072Y00031882D01*
X00012074Y00031850D01*
X00012073Y00031818D01*
X00012028Y00031177D01*
X00012025Y00031148D01*
X00012019Y00031119D01*
X00012012Y00031090D01*
X00012002Y00031062D01*
X00011990Y00031035D01*
X00011977Y00031009D01*
X00011961Y00030984D01*
X00011944Y00030960D01*
X00011924Y00030938D01*
X00011904Y00030917D01*
X00011881Y00030898D01*
X00011858Y00030880D01*
X00011833Y00030864D01*
X00011807Y00030851D01*
X00011779Y00030839D01*
X00011752Y00030829D01*
X00011723Y00030821D01*
X00011694Y00030816D01*
X00011665Y00030812D01*
X00011635Y00030811D01*
X00009339Y00030811D01*
X00007196Y00030811D01*
X00004506Y00030811D01*
X00004476Y00030812D01*
X00004447Y00030816D01*
X00004418Y00030821D01*
X00004389Y00030829D01*
X00004361Y00030839D01*
X00004334Y00030851D01*
X00004308Y00030864D01*
X00004283Y00030880D01*
X00004259Y00030898D01*
X00004237Y00030917D01*
X00004216Y00030938D01*
X00004197Y00030960D01*
X00004180Y00030984D01*
X00004164Y00031009D01*
X00004150Y00031035D01*
X00004139Y00031062D01*
X00004129Y00031090D01*
X00004121Y00031119D01*
X00004116Y00031148D01*
X00004113Y00031177D01*
X00004068Y00031818D01*
X00004067Y00031850D01*
X00004068Y00031882D01*
X00004073Y00031914D01*
X00004080Y00031946D01*
X00004089Y00031977D01*
X00004101Y00032007D01*
X00004116Y00032036D01*
X00004132Y00032063D01*
X00004151Y00032089D01*
X00004172Y00032114D01*
X00004195Y00032137D01*
X00004220Y00032157D01*
X00004246Y00032176D01*
X00004274Y00032193D01*
X00004303Y00032207D01*
X00004333Y00032218D01*
X00004364Y00032227D01*
X00004396Y00032234D01*
X00004428Y00032238D01*
X00004460Y00032239D01*
X00007382Y00032239D01*
X00007382Y00037406D01*
X00009339Y00038685D02*
X00009339Y00038685D01*
X00007196Y00038685D01*
X00000062Y00038685D01*
X00000062Y00032239D01*
X00002625Y00032239D01*
X00002658Y00032238D01*
X00002690Y00032234D01*
X00002721Y00032227D01*
X00002752Y00032218D01*
X00002782Y00032207D01*
X00002811Y00032193D01*
X00002839Y00032176D01*
X00002866Y00032157D01*
X00002890Y00032137D01*
X00002913Y00032114D01*
X00002934Y00032089D01*
X00002953Y00032063D01*
X00002970Y00032036D01*
X00002984Y00032007D01*
X00002996Y00031977D01*
X00003006Y00031946D01*
X00003013Y00031914D01*
X00003017Y00031882D01*
X00003019Y00031850D01*
X00003018Y00031818D01*
X00002973Y00031177D01*
X00002970Y00031148D01*
X00002964Y00031119D01*
X00002957Y00031090D01*
X00002947Y00031062D01*
X00002935Y00031035D01*
X00002922Y00031009D01*
X00002906Y00030984D01*
X00002889Y00030960D01*
X00002869Y00030938D01*
X00002849Y00030917D01*
X00002826Y00030898D01*
X00002802Y00030880D01*
X00002777Y00030864D01*
X00002751Y00030851D01*
X00002724Y00030839D01*
X00002696Y00030829D01*
X00002668Y00030821D01*
X00002639Y00030816D01*
X00002610Y00030812D01*
X00002580Y00030811D01*
X00000062Y00030811D01*
X00000062Y00024365D01*
X00002625Y00024365D01*
X00002658Y00024364D01*
X00002690Y00024360D01*
X00002721Y00024353D01*
X00002752Y00024344D01*
X00002782Y00024333D01*
X00002811Y00024318D01*
X00002839Y00024302D01*
X00002866Y00024283D01*
X00002890Y00024263D01*
X00002913Y00024240D01*
X00002934Y00024215D01*
X00002953Y00024189D01*
X00002970Y00024162D01*
X00002984Y00024133D01*
X00002996Y00024103D01*
X00003006Y00024072D01*
X00003013Y00024040D01*
X00003017Y00024008D01*
X00003019Y00023976D01*
X00003018Y00023944D01*
X00002973Y00023303D01*
X00002970Y00023274D01*
X00002964Y00023245D01*
X00002957Y00023216D01*
X00002947Y00023188D01*
X00002935Y00023161D01*
X00002922Y00023135D01*
X00002906Y00023110D01*
X00002889Y00023086D01*
X00002869Y00023064D01*
X00002849Y00023043D01*
X00002826Y00023024D01*
X00002802Y00023006D01*
X00002777Y00022990D01*
X00002751Y00022977D01*
X00002724Y00022965D01*
X00002696Y00022955D01*
X00002668Y00022947D01*
X00002639Y00022942D01*
X00002610Y00022938D01*
X00002580Y00022937D01*
X00000062Y00022937D01*
X00000062Y00016491D01*
X00002625Y00016491D01*
X00002658Y00016490D01*
X00002690Y00016486D01*
X00002721Y00016479D01*
X00002752Y00016470D01*
X00002782Y00016459D01*
X00002811Y00016444D01*
X00002839Y00016428D01*
X00002866Y00016409D01*
X00002890Y00016389D01*
X00002913Y00016366D01*
X00002934Y00016341D01*
X00002953Y00016315D01*
X00002970Y00016288D01*
X00002984Y00016259D01*
X00002996Y00016229D01*
X00003006Y00016198D01*
X00003013Y00016166D01*
X00003017Y00016134D01*
X00003019Y00016102D01*
X00003018Y00016070D01*
X00002973Y00015429D01*
X00002970Y00015400D01*
X00002964Y00015371D01*
X00002957Y00015342D01*
X00002947Y00015314D01*
X00002935Y00015287D01*
X00002922Y00015261D01*
X00002906Y00015236D01*
X00002889Y00015212D01*
X00002869Y00015190D01*
X00002849Y00015169D01*
X00002826Y00015150D01*
X00002802Y00015132D01*
X00002777Y00015116D01*
X00002751Y00015102D01*
X00002724Y00015091D01*
X00002696Y00015081D01*
X00002668Y00015073D01*
X00002639Y00015068D01*
X00002610Y00015064D01*
X00002580Y00015063D01*
X00000062Y00015063D01*
X00000062Y00008617D01*
X00002625Y00008617D01*
X00002658Y00008616D01*
X00002690Y00008612D01*
X00002721Y00008605D01*
X00002752Y00008596D01*
X00002782Y00008585D01*
X00002811Y00008570D01*
X00002839Y00008554D01*
X00002866Y00008535D01*
X00002890Y00008515D01*
X00002913Y00008492D01*
X00002934Y00008467D01*
X00002953Y00008441D01*
X00002970Y00008414D01*
X00002984Y00008385D01*
X00002996Y00008355D01*
X00003006Y00008324D01*
X00003013Y00008292D01*
X00003017Y00008260D01*
X00003019Y00008228D01*
X00003018Y00008196D01*
X00002973Y00007555D01*
X00002970Y00007526D01*
X00002964Y00007497D01*
X00002957Y00007468D01*
X00002947Y00007440D01*
X00002935Y00007413D01*
X00002922Y00007387D01*
X00002906Y00007362D01*
X00002889Y00007338D01*
X00002869Y00007316D01*
X00002849Y00007295D01*
X00002826Y00007276D01*
X00002802Y00007258D01*
X00002777Y00007242D01*
X00002751Y00007228D01*
X00002724Y00007217D01*
X00002696Y00007207D01*
X00002668Y00007199D01*
X00002639Y00007194D01*
X00002610Y00007190D01*
X00002580Y00007189D01*
X00000062Y00007189D01*
X00000062Y00000743D01*
X00007382Y00000743D01*
X00007382Y00005910D01*
X00007383Y00005942D01*
X00007387Y00005973D01*
X00007394Y00006004D01*
X00007402Y00006035D01*
X00007414Y00006065D01*
X00007427Y00006093D01*
X00007443Y00006121D01*
X00007461Y00006147D01*
X00007481Y00006171D01*
X00007503Y00006194D01*
X00007527Y00006215D01*
X00007552Y00006234D01*
X00007579Y00006251D01*
X00007607Y00006266D01*
X00007636Y00006278D01*
X00007666Y00006288D01*
X00007697Y00006296D01*
X00007728Y00006301D01*
X00007760Y00006304D01*
X00007792Y00006304D01*
X00008739Y00006266D01*
X00008769Y00006263D01*
X00008799Y00006259D01*
X00008828Y00006252D01*
X00008857Y00006243D01*
X00008885Y00006231D01*
X00008912Y00006218D01*
X00008938Y00006203D01*
X00008963Y00006185D01*
X00008986Y00006166D01*
X00009007Y00006145D01*
X00009027Y00006123D01*
X00009046Y00006099D01*
X00009062Y00006073D01*
X00009076Y00006047D01*
X00009089Y00006019D01*
X00009099Y00005991D01*
X00009107Y00005962D01*
X00009113Y00005932D01*
X00009116Y00005902D01*
X00009117Y00005872D01*
X00009117Y00000743D01*
X00016437Y00000743D01*
X00016437Y00005910D01*
X00016439Y00005942D01*
X00016442Y00005973D01*
X00016449Y00006004D01*
X00016458Y00006035D01*
X00016469Y00006065D01*
X00016482Y00006093D01*
X00016498Y00006121D01*
X00016516Y00006147D01*
X00016536Y00006171D01*
X00016558Y00006194D01*
X00016582Y00006215D01*
X00016607Y00006234D01*
X00016634Y00006251D01*
X00016662Y00006266D01*
X00016691Y00006278D01*
X00016721Y00006288D01*
X00016752Y00006296D01*
X00016783Y00006301D01*
X00016815Y00006304D01*
X00016847Y00006304D01*
X00017794Y00006266D01*
X00017824Y00006263D01*
X00017854Y00006259D01*
X00017884Y00006252D01*
X00017912Y00006243D01*
X00017940Y00006231D01*
X00017967Y00006218D01*
X00017993Y00006203D01*
X00018018Y00006185D01*
X00018041Y00006166D01*
X00018063Y00006145D01*
X00018083Y00006123D01*
X00018101Y00006099D01*
X00018117Y00006073D01*
X00018132Y00006047D01*
X00018144Y00006019D01*
X00018154Y00005991D01*
X00018162Y00005962D01*
X00018168Y00005932D01*
X00018171Y00005902D01*
X00018172Y00005872D01*
X00018172Y00000743D01*
X00025492Y00000743D01*
X00025492Y00005910D01*
X00025494Y00005942D01*
X00025498Y00005973D01*
X00025504Y00006004D01*
X00025513Y00006035D01*
X00025524Y00006065D01*
X00025537Y00006093D01*
X00025553Y00006121D01*
X00025571Y00006147D01*
X00025591Y00006171D01*
X00025613Y00006194D01*
X00025637Y00006215D01*
X00025662Y00006234D01*
X00025689Y00006251D01*
X00025717Y00006266D01*
X00025746Y00006278D01*
X00025777Y00006288D01*
X00025807Y00006296D01*
X00025839Y00006301D01*
X00025870Y00006304D01*
X00025902Y00006304D01*
X00026850Y00006266D01*
X00026880Y00006263D01*
X00026909Y00006259D01*
X00026939Y00006252D01*
X00026967Y00006243D01*
X00026995Y00006231D01*
X00027022Y00006218D01*
X00027048Y00006203D01*
X00027073Y00006185D01*
X00027096Y00006166D01*
X00027118Y00006145D01*
X00027138Y00006123D01*
X00027156Y00006099D01*
X00027172Y00006073D01*
X00027187Y00006047D01*
X00027199Y00006019D01*
X00027209Y00005991D01*
X00027217Y00005962D01*
X00027223Y00005932D01*
X00027226Y00005902D01*
X00027227Y00005872D01*
X00027227Y00000743D01*
X00034548Y00000743D01*
X00034548Y00007189D01*
X00031671Y00007189D01*
X00031641Y00007190D01*
X00031612Y00007194D01*
X00031583Y00007199D01*
X00031554Y00007207D01*
X00031527Y00007217D01*
X00031500Y00007228D01*
X00031473Y00007242D01*
X00031449Y00007258D01*
X00031425Y00007276D01*
X00031402Y00007295D01*
X00031382Y00007316D01*
X00031362Y00007338D01*
X00031345Y00007362D01*
X00031329Y00007387D01*
X00031316Y00007413D01*
X00031304Y00007440D01*
X00031294Y00007468D01*
X00031287Y00007497D01*
X00031281Y00007526D01*
X00031278Y00007555D01*
X00031233Y00008196D01*
X00031232Y00008228D01*
X00031234Y00008260D01*
X00031238Y00008292D01*
X00031245Y00008324D01*
X00031255Y00008355D01*
X00031267Y00008385D01*
X00031281Y00008414D01*
X00031298Y00008441D01*
X00031317Y00008467D01*
X00031338Y00008492D01*
X00031361Y00008515D01*
X00031385Y00008535D01*
X00031412Y00008554D01*
X00031440Y00008570D01*
X00031469Y00008585D01*
X00031499Y00008596D01*
X00031530Y00008605D01*
X00031561Y00008612D01*
X00031593Y00008616D01*
X00031626Y00008617D01*
X00034548Y00008617D01*
X00034548Y00015063D01*
X00031671Y00015063D01*
X00031641Y00015064D01*
X00031612Y00015068D01*
X00031583Y00015073D01*
X00031554Y00015081D01*
X00031527Y00015091D01*
X00031500Y00015102D01*
X00031473Y00015116D01*
X00031449Y00015132D01*
X00031425Y00015150D01*
X00031402Y00015169D01*
X00031382Y00015190D01*
X00031362Y00015212D01*
X00031345Y00015236D01*
X00031329Y00015261D01*
X00031316Y00015287D01*
X00031304Y00015314D01*
X00031294Y00015342D01*
X00031287Y00015371D01*
X00031281Y00015400D01*
X00031278Y00015429D01*
X00031233Y00016070D01*
X00031232Y00016102D01*
X00031234Y00016134D01*
X00031238Y00016166D01*
X00031245Y00016198D01*
X00031255Y00016229D01*
X00031267Y00016259D01*
X00031281Y00016288D01*
X00031298Y00016315D01*
X00031317Y00016341D01*
X00031338Y00016366D01*
X00031361Y00016389D01*
X00031385Y00016409D01*
X00031412Y00016428D01*
X00031440Y00016444D01*
X00031469Y00016459D01*
X00031499Y00016470D01*
X00031530Y00016479D01*
X00031561Y00016486D01*
X00031593Y00016490D01*
X00031626Y00016491D01*
X00034548Y00016491D01*
X00034548Y00022937D01*
X00031671Y00022937D01*
X00031641Y00022938D01*
X00031612Y00022942D01*
X00031583Y00022947D01*
X00031554Y00022955D01*
X00031527Y00022965D01*
X00031500Y00022977D01*
X00031473Y00022990D01*
X00031449Y00023006D01*
X00031425Y00023024D01*
X00031402Y00023043D01*
X00031382Y00023064D01*
X00031362Y00023086D01*
X00031345Y00023110D01*
X00031329Y00023135D01*
X00031316Y00023161D01*
X00031304Y00023188D01*
X00031294Y00023216D01*
X00031287Y00023245D01*
X00031281Y00023274D01*
X00031278Y00023303D01*
X00031233Y00023944D01*
X00031232Y00023976D01*
X00031234Y00024008D01*
X00031238Y00024040D01*
X00031245Y00024072D01*
X00031255Y00024103D01*
X00031267Y00024133D01*
X00031281Y00024162D01*
X00031298Y00024189D01*
X00031317Y00024215D01*
X00031338Y00024240D01*
X00031361Y00024263D01*
X00031385Y00024283D01*
X00031412Y00024302D01*
X00031440Y00024318D01*
X00031469Y00024333D01*
X00031499Y00024344D01*
X00031530Y00024353D01*
X00031561Y00024360D01*
X00031593Y00024364D01*
X00031626Y00024365D01*
X00034548Y00024365D01*
X00034548Y00030811D01*
X00031671Y00030811D01*
X00031641Y00030812D01*
X00031612Y00030816D01*
X00031583Y00030821D01*
X00031554Y00030829D01*
X00031527Y00030839D01*
X00031500Y00030851D01*
X00031473Y00030864D01*
X00031449Y00030880D01*
X00031425Y00030898D01*
X00031402Y00030917D01*
X00031382Y00030938D01*
X00031362Y00030960D01*
X00031345Y00030984D01*
X00031329Y00031009D01*
X00031316Y00031035D01*
X00031304Y00031062D01*
X00031294Y00031090D01*
X00031287Y00031119D01*
X00031281Y00031148D01*
X00031278Y00031177D01*
X00031233Y00031818D01*
X00031232Y00031850D01*
X00031234Y00031882D01*
X00031238Y00031914D01*
X00031245Y00031946D01*
X00031255Y00031977D01*
X00031267Y00032007D01*
X00031281Y00032036D01*
X00031298Y00032063D01*
X00031317Y00032089D01*
X00031338Y00032114D01*
X00031361Y00032137D01*
X00031385Y00032157D01*
X00031412Y00032176D01*
X00031440Y00032193D01*
X00031469Y00032207D01*
X00031499Y00032218D01*
X00031530Y00032227D01*
X00031561Y00032234D01*
X00031593Y00032238D01*
X00031626Y00032239D01*
X00034548Y00032239D01*
X00034548Y00038685D01*
X00027449Y00038685D01*
X00025306Y00038685D01*
X00018394Y00038685D01*
X00016251Y00038685D01*
X00009339Y00038685D01*
M02*