G04 EAGLE Gerber X2 export*
%TF.Part,Single*%
%TF.FileFunction,Paste,Top*%
%TF.FilePolarity,Positive*%
%TF.GenerationSoftware,Autodesk,EAGLE,9.4.0*%
%TF.CreationDate,2019-05-08T17:19:32Z*%
G75*
%MOMM*%
%FSLAX34Y34*%
%LPD*%
%INPaste Top*%
%AMOC8*
5,1,8,0,0,1.08239X$1,22.5*%
G01*
%ADD10R,1.050000X1.080000*%
%ADD11R,1.080000X1.050000*%
%ADD12R,1.435100X4.394200*%
%ADD13R,1.100000X1.000000*%
%ADD14C,0.250000*%
%ADD15R,0.650000X0.250000*%
%ADD16R,0.250000X0.650000*%
%ADD17R,0.820000X0.820000*%


D10*
X104280Y133350D03*
X121780Y133350D03*
X104280Y152400D03*
X121780Y152400D03*
D11*
X152400Y114160D03*
X152400Y96660D03*
X171450Y114160D03*
X171450Y96660D03*
D10*
X72250Y69850D03*
X54750Y69850D03*
X53480Y101600D03*
X70980Y101600D03*
D11*
X152400Y62370D03*
X152400Y79870D03*
D12*
X53785Y135890D03*
X83376Y135890D03*
X142685Y146050D03*
X172276Y146050D03*
D13*
X81280Y46600D03*
X81280Y29600D03*
X64770Y29600D03*
X64770Y46600D03*
X97790Y46600D03*
X97790Y29600D03*
X114300Y46600D03*
X114300Y29600D03*
X130810Y29600D03*
X130810Y46600D03*
X147320Y46600D03*
X147320Y29600D03*
X163830Y29600D03*
X163830Y46600D03*
X171450Y62620D03*
X171450Y79620D03*
D14*
X93700Y98900D03*
X93700Y93900D03*
X93700Y88900D03*
X93700Y83900D03*
X93700Y78900D03*
X97950Y74650D03*
X102950Y74650D03*
X107950Y74650D03*
X112950Y74650D03*
X117950Y74650D03*
X122200Y78900D03*
X122200Y83900D03*
X122200Y88900D03*
X122200Y93900D03*
X122200Y98900D03*
X117950Y103150D03*
X112950Y103150D03*
X107950Y103150D03*
X102950Y103150D03*
X97950Y103150D03*
D15*
X90450Y98900D03*
X90450Y93900D03*
X90450Y88900D03*
X90450Y83900D03*
X90450Y78900D03*
D16*
X97950Y71400D03*
X102950Y71400D03*
X107950Y71400D03*
X112950Y71400D03*
X117950Y71400D03*
D15*
X125450Y78900D03*
X125450Y83900D03*
X125450Y88900D03*
X125450Y93900D03*
X125450Y98900D03*
D16*
X117950Y106400D03*
X112950Y106400D03*
X107950Y106400D03*
X102950Y106400D03*
X97950Y106400D03*
D17*
X102350Y94500D03*
X113550Y83300D03*
X102350Y83300D03*
X113550Y94500D03*
M02*
