G04 EAGLE Gerber X2 export*
%TF.Part,Single*%
%TF.FileFunction,Copper,L2,Bot,Mixed*%
%TF.FilePolarity,Positive*%
%TF.GenerationSoftware,Autodesk,EAGLE,9.4.0*%
%TF.CreationDate,2019-05-08T17:19:32Z*%
G75*
%MOMM*%
%FSLAX34Y34*%
%LPD*%
%INBottom Copper*%
%AMOC8*
5,1,8,0,0,1.08239X$1,22.5*%
G01*
%ADD10C,1.879600*%
%ADD11C,0.756400*%
%ADD12C,0.254000*%
%ADD13C,0.609600*%

G36*
X200778Y11446D02*
X200778Y11446D01*
X200897Y11453D01*
X200935Y11466D01*
X200976Y11471D01*
X201086Y11514D01*
X201199Y11551D01*
X201234Y11573D01*
X201271Y11588D01*
X201367Y11657D01*
X201468Y11721D01*
X201496Y11751D01*
X201529Y11774D01*
X201605Y11866D01*
X201686Y11953D01*
X201706Y11988D01*
X201731Y12019D01*
X201782Y12127D01*
X201840Y12231D01*
X201850Y12271D01*
X201867Y12307D01*
X201889Y12424D01*
X201919Y12539D01*
X201923Y12599D01*
X201927Y12619D01*
X201925Y12640D01*
X201929Y12700D01*
X201929Y63506D01*
X201926Y63535D01*
X201928Y63564D01*
X201909Y63673D01*
X201907Y63707D01*
X201902Y63722D01*
X201889Y63821D01*
X201879Y63849D01*
X201874Y63878D01*
X201820Y63996D01*
X201772Y64117D01*
X201755Y64141D01*
X201743Y64168D01*
X201662Y64269D01*
X201586Y64374D01*
X201563Y64393D01*
X201544Y64416D01*
X201441Y64494D01*
X201341Y64577D01*
X201314Y64590D01*
X201290Y64607D01*
X201146Y64678D01*
X196725Y66509D01*
X193509Y69725D01*
X191769Y73926D01*
X191769Y78474D01*
X193509Y82675D01*
X196725Y85891D01*
X201146Y87722D01*
X201171Y87736D01*
X201199Y87745D01*
X201309Y87815D01*
X201422Y87879D01*
X201443Y87900D01*
X201468Y87915D01*
X201557Y88010D01*
X201650Y88100D01*
X201666Y88126D01*
X201686Y88147D01*
X201749Y88261D01*
X201817Y88372D01*
X201825Y88400D01*
X201840Y88426D01*
X201872Y88551D01*
X201910Y88675D01*
X201912Y88705D01*
X201919Y88734D01*
X201929Y88894D01*
X201929Y114306D01*
X201926Y114335D01*
X201928Y114364D01*
X201906Y114493D01*
X201889Y114621D01*
X201879Y114649D01*
X201874Y114678D01*
X201820Y114796D01*
X201772Y114917D01*
X201755Y114941D01*
X201743Y114968D01*
X201662Y115069D01*
X201586Y115174D01*
X201563Y115193D01*
X201544Y115216D01*
X201441Y115294D01*
X201341Y115377D01*
X201314Y115390D01*
X201290Y115407D01*
X201146Y115478D01*
X196725Y117309D01*
X193509Y120525D01*
X191769Y124726D01*
X191769Y129274D01*
X193509Y133475D01*
X196725Y136691D01*
X201146Y138522D01*
X201171Y138536D01*
X201199Y138545D01*
X201309Y138615D01*
X201422Y138679D01*
X201443Y138700D01*
X201468Y138715D01*
X201557Y138810D01*
X201650Y138900D01*
X201666Y138926D01*
X201686Y138947D01*
X201749Y139061D01*
X201817Y139172D01*
X201825Y139200D01*
X201840Y139226D01*
X201872Y139351D01*
X201910Y139475D01*
X201912Y139505D01*
X201919Y139534D01*
X201929Y139694D01*
X201929Y167640D01*
X201914Y167758D01*
X201907Y167877D01*
X201894Y167915D01*
X201889Y167956D01*
X201846Y168066D01*
X201809Y168179D01*
X201787Y168214D01*
X201772Y168251D01*
X201703Y168347D01*
X201639Y168448D01*
X201609Y168476D01*
X201586Y168509D01*
X201494Y168585D01*
X201407Y168666D01*
X201372Y168686D01*
X201341Y168711D01*
X201233Y168762D01*
X201129Y168820D01*
X201089Y168830D01*
X201053Y168847D01*
X200936Y168869D01*
X200821Y168899D01*
X200761Y168903D01*
X200741Y168907D01*
X200720Y168905D01*
X200660Y168909D01*
X27940Y168909D01*
X27822Y168894D01*
X27703Y168887D01*
X27665Y168874D01*
X27624Y168869D01*
X27514Y168826D01*
X27401Y168789D01*
X27366Y168767D01*
X27329Y168752D01*
X27233Y168683D01*
X27132Y168619D01*
X27104Y168589D01*
X27071Y168566D01*
X26996Y168474D01*
X26914Y168387D01*
X26894Y168352D01*
X26869Y168321D01*
X26818Y168213D01*
X26760Y168109D01*
X26750Y168069D01*
X26733Y168033D01*
X26711Y167916D01*
X26681Y167801D01*
X26677Y167741D01*
X26673Y167721D01*
X26675Y167700D01*
X26671Y167640D01*
X26671Y139694D01*
X26674Y139665D01*
X26672Y139636D01*
X26694Y139507D01*
X26711Y139379D01*
X26721Y139351D01*
X26726Y139322D01*
X26780Y139204D01*
X26828Y139083D01*
X26845Y139059D01*
X26857Y139032D01*
X26938Y138931D01*
X27014Y138826D01*
X27037Y138807D01*
X27056Y138784D01*
X27159Y138706D01*
X27259Y138623D01*
X27286Y138610D01*
X27310Y138593D01*
X27454Y138522D01*
X31875Y136691D01*
X35091Y133475D01*
X36831Y129274D01*
X36831Y124726D01*
X35091Y120525D01*
X31875Y117309D01*
X27454Y115478D01*
X27429Y115464D01*
X27401Y115455D01*
X27291Y115385D01*
X27178Y115321D01*
X27157Y115300D01*
X27132Y115285D01*
X27043Y115190D01*
X26950Y115100D01*
X26934Y115074D01*
X26914Y115053D01*
X26851Y114939D01*
X26783Y114828D01*
X26775Y114800D01*
X26760Y114774D01*
X26728Y114649D01*
X26690Y114525D01*
X26688Y114495D01*
X26681Y114466D01*
X26671Y114306D01*
X26671Y89662D01*
X26686Y89544D01*
X26693Y89425D01*
X26706Y89387D01*
X26711Y89346D01*
X26754Y89236D01*
X26791Y89123D01*
X26813Y89088D01*
X26828Y89051D01*
X26897Y88955D01*
X26961Y88854D01*
X26991Y88826D01*
X27014Y88793D01*
X27106Y88717D01*
X27193Y88636D01*
X27228Y88616D01*
X27259Y88591D01*
X27367Y88540D01*
X27471Y88482D01*
X27511Y88472D01*
X27547Y88455D01*
X27664Y88433D01*
X27779Y88403D01*
X27839Y88399D01*
X27859Y88395D01*
X27880Y88397D01*
X27940Y88393D01*
X60594Y88393D01*
X60692Y88405D01*
X60791Y88408D01*
X60849Y88425D01*
X60909Y88433D01*
X61001Y88469D01*
X61097Y88497D01*
X61149Y88527D01*
X61205Y88550D01*
X61285Y88608D01*
X61370Y88658D01*
X61446Y88724D01*
X61462Y88736D01*
X61470Y88746D01*
X61472Y88748D01*
X62971Y89369D01*
X62979Y89373D01*
X62988Y89376D01*
X63118Y89453D01*
X63248Y89526D01*
X63254Y89533D01*
X63262Y89538D01*
X63383Y89644D01*
X63774Y90034D01*
X95357Y121618D01*
X96359Y121618D01*
X96457Y121630D01*
X96556Y121633D01*
X96614Y121650D01*
X96674Y121658D01*
X96766Y121694D01*
X96861Y121721D01*
X96914Y121752D01*
X96970Y121775D01*
X97050Y121833D01*
X97135Y121883D01*
X97211Y121949D01*
X97227Y121961D01*
X97235Y121971D01*
X97256Y121989D01*
X98511Y123244D01*
X100648Y124130D01*
X102962Y124130D01*
X105099Y123244D01*
X105859Y122484D01*
X105953Y122412D01*
X106042Y122333D01*
X106078Y122314D01*
X106110Y122290D01*
X106219Y122242D01*
X106325Y122188D01*
X106365Y122179D01*
X106402Y122163D01*
X106520Y122144D01*
X106636Y122118D01*
X106676Y122120D01*
X106716Y122113D01*
X106835Y122124D01*
X106953Y122128D01*
X106992Y122139D01*
X107033Y122143D01*
X107145Y122183D01*
X107259Y122217D01*
X107294Y122237D01*
X107332Y122251D01*
X107430Y122318D01*
X107533Y122378D01*
X107578Y122418D01*
X107595Y122429D01*
X107608Y122445D01*
X107654Y122484D01*
X111701Y126531D01*
X111709Y126533D01*
X111801Y126569D01*
X111897Y126597D01*
X111949Y126627D01*
X112005Y126650D01*
X112085Y126708D01*
X112170Y126758D01*
X112246Y126824D01*
X112262Y126836D01*
X112270Y126846D01*
X112272Y126848D01*
X114413Y127735D01*
X116727Y127735D01*
X118873Y126846D01*
X118927Y126804D01*
X118999Y126736D01*
X119052Y126707D01*
X119100Y126670D01*
X119191Y126630D01*
X119278Y126582D01*
X119336Y126567D01*
X119392Y126543D01*
X119434Y126536D01*
X121413Y124558D01*
X121413Y115472D01*
X68678Y62737D01*
X27940Y62737D01*
X27822Y62722D01*
X27703Y62715D01*
X27665Y62702D01*
X27624Y62697D01*
X27514Y62654D01*
X27401Y62617D01*
X27366Y62595D01*
X27329Y62580D01*
X27233Y62511D01*
X27132Y62447D01*
X27104Y62417D01*
X27071Y62394D01*
X26995Y62302D01*
X26914Y62215D01*
X26894Y62180D01*
X26869Y62149D01*
X26818Y62041D01*
X26760Y61937D01*
X26750Y61897D01*
X26733Y61861D01*
X26711Y61744D01*
X26681Y61629D01*
X26677Y61569D01*
X26673Y61549D01*
X26675Y61528D01*
X26671Y61468D01*
X26671Y12700D01*
X26686Y12582D01*
X26693Y12463D01*
X26706Y12425D01*
X26711Y12384D01*
X26754Y12274D01*
X26791Y12161D01*
X26813Y12126D01*
X26828Y12089D01*
X26897Y11993D01*
X26961Y11892D01*
X26991Y11864D01*
X27014Y11831D01*
X27106Y11755D01*
X27193Y11674D01*
X27228Y11654D01*
X27259Y11629D01*
X27367Y11578D01*
X27471Y11520D01*
X27511Y11510D01*
X27547Y11493D01*
X27664Y11471D01*
X27779Y11441D01*
X27839Y11437D01*
X27859Y11433D01*
X27880Y11435D01*
X27940Y11431D01*
X200660Y11431D01*
X200778Y11446D01*
G37*
G36*
X67408Y64783D02*
X67408Y64783D01*
X67507Y64786D01*
X67565Y64803D01*
X67626Y64811D01*
X67718Y64847D01*
X67813Y64875D01*
X67865Y64905D01*
X67921Y64928D01*
X68001Y64986D01*
X68087Y65036D01*
X68162Y65102D01*
X68179Y65114D01*
X68186Y65124D01*
X68208Y65143D01*
X95588Y92523D01*
X95606Y92546D01*
X95628Y92565D01*
X95703Y92671D01*
X95783Y92774D01*
X95794Y92801D01*
X95811Y92825D01*
X95857Y92947D01*
X95909Y93066D01*
X95914Y93095D01*
X95924Y93123D01*
X95939Y93252D01*
X95959Y93380D01*
X95956Y93409D01*
X95959Y93439D01*
X95941Y93567D01*
X95929Y93697D01*
X95919Y93724D01*
X95915Y93754D01*
X95863Y93906D01*
X95785Y94093D01*
X95785Y96407D01*
X96670Y98544D01*
X98306Y100180D01*
X100443Y101065D01*
X102757Y101065D01*
X102944Y100987D01*
X102973Y100979D01*
X102999Y100966D01*
X103125Y100937D01*
X103251Y100903D01*
X103280Y100903D01*
X103309Y100896D01*
X103439Y100900D01*
X103569Y100898D01*
X103597Y100905D01*
X103627Y100906D01*
X103752Y100942D01*
X103878Y100972D01*
X103904Y100986D01*
X103932Y100994D01*
X104044Y101060D01*
X104159Y101121D01*
X104181Y101141D01*
X104206Y101156D01*
X104327Y101262D01*
X119008Y115943D01*
X119068Y116021D01*
X119136Y116093D01*
X119165Y116146D01*
X119202Y116194D01*
X119242Y116285D01*
X119290Y116371D01*
X119305Y116430D01*
X119329Y116486D01*
X119344Y116584D01*
X119369Y116679D01*
X119375Y116779D01*
X119379Y116800D01*
X119377Y116812D01*
X119379Y116840D01*
X119379Y123190D01*
X119364Y123308D01*
X119357Y123427D01*
X119344Y123465D01*
X119339Y123506D01*
X119296Y123616D01*
X119259Y123729D01*
X119237Y123764D01*
X119222Y123801D01*
X119153Y123897D01*
X119089Y123998D01*
X119059Y124026D01*
X119036Y124059D01*
X118944Y124135D01*
X118857Y124216D01*
X118822Y124236D01*
X118791Y124261D01*
X118683Y124312D01*
X118579Y124370D01*
X118539Y124380D01*
X118503Y124397D01*
X118386Y124419D01*
X118271Y124449D01*
X118211Y124453D01*
X118191Y124457D01*
X118170Y124455D01*
X118110Y124459D01*
X113030Y124459D01*
X112932Y124447D01*
X112833Y124444D01*
X112775Y124427D01*
X112714Y124419D01*
X112622Y124383D01*
X112527Y124355D01*
X112475Y124325D01*
X112419Y124302D01*
X112339Y124244D01*
X112253Y124194D01*
X112178Y124128D01*
X112161Y124116D01*
X112154Y124106D01*
X112133Y124088D01*
X107991Y119946D01*
X107931Y119868D01*
X107863Y119796D01*
X107834Y119743D01*
X107796Y119695D01*
X107757Y119604D01*
X107709Y119518D01*
X107694Y119459D01*
X107670Y119403D01*
X107655Y119305D01*
X107630Y119210D01*
X107624Y119110D01*
X107620Y119089D01*
X107621Y119077D01*
X107620Y119049D01*
X107620Y117158D01*
X106734Y115021D01*
X105099Y113385D01*
X102962Y112500D01*
X101071Y112500D01*
X100973Y112488D01*
X100874Y112485D01*
X100816Y112468D01*
X100755Y112460D01*
X100663Y112424D01*
X100568Y112396D01*
X100516Y112366D01*
X100460Y112343D01*
X100380Y112285D01*
X100294Y112235D01*
X100219Y112168D01*
X100202Y112156D01*
X100195Y112147D01*
X100173Y112128D01*
X99804Y111759D01*
X96520Y111759D01*
X96422Y111747D01*
X96323Y111744D01*
X96265Y111727D01*
X96204Y111719D01*
X96112Y111683D01*
X96017Y111655D01*
X95965Y111625D01*
X95909Y111602D01*
X95829Y111544D01*
X95743Y111494D01*
X95668Y111428D01*
X95651Y111416D01*
X95644Y111406D01*
X95623Y111388D01*
X70782Y86547D01*
X70764Y86524D01*
X70742Y86505D01*
X70667Y86399D01*
X70587Y86296D01*
X70576Y86269D01*
X70559Y86245D01*
X70513Y86123D01*
X70461Y86004D01*
X70456Y85975D01*
X70446Y85947D01*
X70431Y85818D01*
X70411Y85690D01*
X70414Y85661D01*
X70411Y85631D01*
X70429Y85503D01*
X70441Y85373D01*
X70451Y85346D01*
X70455Y85316D01*
X70507Y85164D01*
X70585Y84977D01*
X70585Y82663D01*
X69700Y80526D01*
X68064Y78890D01*
X65927Y78005D01*
X63613Y78005D01*
X61476Y78890D01*
X59840Y80526D01*
X58955Y82663D01*
X58955Y85090D01*
X58940Y85208D01*
X58933Y85327D01*
X58920Y85365D01*
X58915Y85406D01*
X58872Y85516D01*
X58835Y85629D01*
X58813Y85664D01*
X58798Y85701D01*
X58729Y85797D01*
X58665Y85898D01*
X58635Y85926D01*
X58612Y85959D01*
X58520Y86035D01*
X58433Y86116D01*
X58398Y86136D01*
X58367Y86161D01*
X58259Y86212D01*
X58155Y86270D01*
X58115Y86280D01*
X58079Y86297D01*
X57962Y86319D01*
X57847Y86349D01*
X57787Y86353D01*
X57767Y86357D01*
X57746Y86355D01*
X57686Y86359D01*
X27940Y86359D01*
X27822Y86344D01*
X27703Y86337D01*
X27665Y86324D01*
X27624Y86319D01*
X27514Y86276D01*
X27401Y86239D01*
X27366Y86217D01*
X27329Y86202D01*
X27233Y86133D01*
X27132Y86069D01*
X27104Y86039D01*
X27071Y86016D01*
X26996Y85924D01*
X26914Y85837D01*
X26894Y85802D01*
X26869Y85771D01*
X26818Y85663D01*
X26760Y85559D01*
X26750Y85519D01*
X26733Y85483D01*
X26711Y85366D01*
X26681Y85251D01*
X26677Y85191D01*
X26673Y85171D01*
X26674Y85162D01*
X26673Y85159D01*
X26674Y85145D01*
X26671Y85090D01*
X26671Y66040D01*
X26686Y65922D01*
X26693Y65803D01*
X26706Y65765D01*
X26711Y65724D01*
X26754Y65614D01*
X26791Y65501D01*
X26813Y65466D01*
X26828Y65429D01*
X26898Y65333D01*
X26961Y65232D01*
X26991Y65204D01*
X27014Y65171D01*
X27106Y65096D01*
X27193Y65014D01*
X27228Y64994D01*
X27259Y64969D01*
X27367Y64918D01*
X27471Y64860D01*
X27511Y64850D01*
X27547Y64833D01*
X27664Y64811D01*
X27779Y64781D01*
X27840Y64777D01*
X27860Y64773D01*
X27880Y64775D01*
X27940Y64771D01*
X67310Y64771D01*
X67408Y64783D01*
G37*
%LPC*%
G36*
X98538Y15140D02*
X98538Y15140D01*
X96401Y16025D01*
X94765Y17661D01*
X93880Y19798D01*
X93880Y22112D01*
X94765Y24249D01*
X96401Y25885D01*
X98538Y26770D01*
X100313Y26770D01*
X100411Y26782D01*
X100510Y26785D01*
X100569Y26802D01*
X100629Y26810D01*
X100721Y26846D01*
X100816Y26874D01*
X100868Y26904D01*
X100924Y26927D01*
X101004Y26985D01*
X101090Y27035D01*
X101165Y27101D01*
X101182Y27113D01*
X101190Y27123D01*
X101211Y27141D01*
X104480Y30411D01*
X104541Y30490D01*
X104609Y30562D01*
X104638Y30615D01*
X104675Y30663D01*
X104715Y30753D01*
X104763Y30840D01*
X104778Y30899D01*
X104802Y30954D01*
X104817Y31052D01*
X104842Y31148D01*
X104848Y31248D01*
X104852Y31268D01*
X104850Y31281D01*
X104852Y31309D01*
X104852Y56579D01*
X104840Y56677D01*
X104837Y56776D01*
X104820Y56834D01*
X104812Y56894D01*
X104776Y56986D01*
X104748Y57081D01*
X104718Y57134D01*
X104695Y57190D01*
X104637Y57270D01*
X104587Y57355D01*
X104520Y57431D01*
X104508Y57447D01*
X104499Y57455D01*
X104480Y57476D01*
X103225Y58731D01*
X102340Y60868D01*
X102340Y63182D01*
X103225Y65319D01*
X104827Y66921D01*
X104912Y67030D01*
X105001Y67137D01*
X105010Y67156D01*
X105022Y67172D01*
X105078Y67300D01*
X105137Y67425D01*
X105140Y67445D01*
X105148Y67464D01*
X105170Y67602D01*
X105196Y67738D01*
X105195Y67758D01*
X105198Y67778D01*
X105185Y67917D01*
X105177Y68055D01*
X105170Y68074D01*
X105168Y68094D01*
X105121Y68226D01*
X105079Y68357D01*
X105068Y68375D01*
X105061Y68394D01*
X104983Y68509D01*
X104908Y68626D01*
X104894Y68640D01*
X104882Y68657D01*
X104778Y68749D01*
X104677Y68844D01*
X104659Y68854D01*
X104644Y68867D01*
X104520Y68931D01*
X104398Y68998D01*
X104379Y69003D01*
X104361Y69012D01*
X104225Y69042D01*
X104090Y69077D01*
X104062Y69079D01*
X104050Y69082D01*
X104030Y69081D01*
X103930Y69087D01*
X98414Y69087D01*
X98316Y69075D01*
X98217Y69072D01*
X98158Y69055D01*
X98098Y69047D01*
X98006Y69011D01*
X97911Y68983D01*
X97859Y68953D01*
X97803Y68930D01*
X97723Y68872D01*
X97637Y68822D01*
X97562Y68756D01*
X97545Y68744D01*
X97537Y68734D01*
X97516Y68716D01*
X95086Y66286D01*
X95026Y66207D01*
X94958Y66135D01*
X94929Y66082D01*
X94892Y66034D01*
X94852Y65943D01*
X94804Y65857D01*
X94789Y65798D01*
X94765Y65743D01*
X94750Y65645D01*
X94725Y65549D01*
X94719Y65449D01*
X94715Y65429D01*
X94717Y65416D01*
X94715Y65388D01*
X94715Y63613D01*
X93830Y61476D01*
X92194Y59840D01*
X90057Y58955D01*
X87743Y58955D01*
X85606Y59840D01*
X83970Y61476D01*
X83085Y63613D01*
X83085Y65927D01*
X83970Y68064D01*
X85606Y69700D01*
X87743Y70585D01*
X89518Y70585D01*
X89616Y70597D01*
X89715Y70600D01*
X89774Y70617D01*
X89834Y70625D01*
X89926Y70661D01*
X90021Y70689D01*
X90073Y70719D01*
X90129Y70742D01*
X90209Y70800D01*
X90295Y70850D01*
X90370Y70916D01*
X90387Y70928D01*
X90395Y70938D01*
X90416Y70956D01*
X92846Y73386D01*
X95152Y75693D01*
X125828Y75693D01*
X135226Y66294D01*
X135305Y66234D01*
X135377Y66166D01*
X135430Y66137D01*
X135478Y66100D01*
X135569Y66060D01*
X135655Y66012D01*
X135714Y65997D01*
X135769Y65973D01*
X135867Y65958D01*
X135963Y65933D01*
X136063Y65927D01*
X136084Y65923D01*
X136096Y65925D01*
X136124Y65923D01*
X156352Y65923D01*
X156450Y65935D01*
X156549Y65938D01*
X156607Y65955D01*
X156667Y65963D01*
X156759Y65999D01*
X156854Y66027D01*
X156907Y66057D01*
X156963Y66080D01*
X157043Y66138D01*
X157128Y66188D01*
X157204Y66254D01*
X157220Y66266D01*
X157228Y66276D01*
X157249Y66294D01*
X158504Y67550D01*
X160641Y68435D01*
X162955Y68435D01*
X165092Y67550D01*
X166728Y65914D01*
X167613Y63777D01*
X167613Y61463D01*
X166728Y59326D01*
X165092Y57690D01*
X162955Y56805D01*
X160641Y56805D01*
X158504Y57690D01*
X157249Y58946D01*
X157171Y59006D01*
X157099Y59074D01*
X157046Y59103D01*
X156998Y59140D01*
X156907Y59180D01*
X156820Y59228D01*
X156762Y59243D01*
X156706Y59267D01*
X156608Y59282D01*
X156512Y59307D01*
X156412Y59313D01*
X156392Y59317D01*
X156380Y59315D01*
X156352Y59317D01*
X132862Y59317D01*
X123464Y68716D01*
X123385Y68776D01*
X123313Y68844D01*
X123260Y68873D01*
X123212Y68910D01*
X123121Y68950D01*
X123035Y68998D01*
X122976Y69013D01*
X122921Y69037D01*
X122823Y69052D01*
X122727Y69077D01*
X122627Y69083D01*
X122606Y69087D01*
X122594Y69085D01*
X122566Y69087D01*
X112380Y69087D01*
X112243Y69070D01*
X112104Y69057D01*
X112085Y69050D01*
X112065Y69047D01*
X111936Y68996D01*
X111805Y68949D01*
X111788Y68938D01*
X111769Y68930D01*
X111657Y68849D01*
X111541Y68771D01*
X111528Y68755D01*
X111512Y68744D01*
X111423Y68636D01*
X111331Y68532D01*
X111322Y68514D01*
X111309Y68499D01*
X111250Y68373D01*
X111186Y68249D01*
X111182Y68229D01*
X111173Y68211D01*
X111147Y68074D01*
X111117Y67939D01*
X111117Y67918D01*
X111114Y67899D01*
X111122Y67760D01*
X111126Y67621D01*
X111132Y67601D01*
X111133Y67581D01*
X111176Y67449D01*
X111215Y67315D01*
X111225Y67298D01*
X111231Y67279D01*
X111306Y67161D01*
X111376Y67041D01*
X111395Y67020D01*
X111401Y67010D01*
X111416Y66996D01*
X111483Y66921D01*
X113084Y65319D01*
X113970Y63182D01*
X113970Y60868D01*
X113084Y58731D01*
X111829Y57476D01*
X111769Y57398D01*
X111701Y57326D01*
X111672Y57273D01*
X111634Y57225D01*
X111595Y57134D01*
X111547Y57047D01*
X111532Y56989D01*
X111508Y56933D01*
X111493Y56835D01*
X111468Y56739D01*
X111462Y56639D01*
X111458Y56619D01*
X111459Y56607D01*
X111458Y56579D01*
X111458Y28047D01*
X105881Y22471D01*
X105821Y22392D01*
X105753Y22320D01*
X105729Y22278D01*
X105719Y22265D01*
X105715Y22255D01*
X105687Y22219D01*
X105647Y22128D01*
X105599Y22042D01*
X105584Y21983D01*
X105560Y21928D01*
X105545Y21830D01*
X105520Y21734D01*
X105514Y21634D01*
X105510Y21613D01*
X105512Y21601D01*
X105510Y21573D01*
X105510Y19798D01*
X104625Y17661D01*
X102989Y16025D01*
X100852Y15140D01*
X98538Y15140D01*
G37*
%LPD*%
D10*
X25400Y101600D03*
X25400Y127000D03*
X25400Y76200D03*
X25400Y50800D03*
X203200Y127000D03*
X203200Y101600D03*
X203200Y76200D03*
X203200Y50800D03*
D11*
X108155Y62025D03*
D12*
X108155Y29415D01*
X99695Y20955D01*
D11*
X99695Y20955D03*
X101600Y95250D03*
X101600Y82550D03*
X114300Y82550D03*
X114300Y95250D03*
X68580Y162560D03*
X121920Y162560D03*
X161290Y88900D03*
X64770Y83820D03*
D12*
X64770Y86360D02*
X96725Y118315D01*
D11*
X101805Y118315D03*
D12*
X96725Y118315D01*
X64770Y86360D02*
X64770Y83820D01*
D11*
X115570Y121920D03*
D13*
X27940Y73660D02*
X25400Y76200D01*
X27940Y73660D02*
X69850Y73660D01*
X74930Y78740D01*
X74930Y85090D01*
X97790Y107950D01*
X105410Y107950D01*
X115570Y118110D01*
X115570Y121920D01*
D11*
X88900Y64770D03*
D12*
X96520Y72390D01*
X124460Y72390D01*
X134230Y62620D01*
X161798Y62620D01*
D11*
X161798Y62620D03*
M02*
