G04 EAGLE Gerber X2 export*
%TF.Part,Single*%
%TF.FileFunction,Legend,Top,1*%
%TF.FilePolarity,Positive*%
%TF.GenerationSoftware,Autodesk,EAGLE,9.4.0*%
%TF.CreationDate,2019-05-08T17:19:32Z*%
G75*
%MOMM*%
%FSLAX34Y34*%
%LPD*%
%INSilkscreen Top*%
%AMOC8*
5,1,8,0,0,1.08239X$1,22.5*%
G01*
%ADD10C,0.152400*%
%ADD11C,0.127000*%
%ADD12C,0.508000*%
%ADD13C,0.400000*%
%ADD14C,0.203200*%


D10*
X33274Y140462D02*
X39878Y142663D01*
X33274Y144865D01*
X33274Y148515D02*
X39878Y148515D01*
X39878Y147782D02*
X39878Y149249D01*
X33274Y149249D02*
X33274Y147782D01*
X33274Y152777D02*
X39878Y152777D01*
X39878Y156446D02*
X33274Y152777D01*
X33274Y156446D02*
X39878Y156446D01*
X46228Y65193D02*
X39624Y62992D01*
X39624Y67395D02*
X46228Y65193D01*
X42559Y71099D02*
X42559Y72934D01*
X42560Y72934D02*
X42562Y73019D01*
X42568Y73103D01*
X42578Y73187D01*
X42591Y73271D01*
X42609Y73354D01*
X42630Y73436D01*
X42655Y73517D01*
X42684Y73597D01*
X42716Y73675D01*
X42752Y73751D01*
X42792Y73826D01*
X42835Y73899D01*
X42881Y73970D01*
X42930Y74039D01*
X42983Y74106D01*
X43039Y74170D01*
X43097Y74231D01*
X43158Y74289D01*
X43222Y74345D01*
X43289Y74398D01*
X43358Y74447D01*
X43429Y74493D01*
X43502Y74536D01*
X43577Y74576D01*
X43653Y74612D01*
X43731Y74644D01*
X43811Y74673D01*
X43892Y74698D01*
X43974Y74719D01*
X44057Y74737D01*
X44141Y74750D01*
X44225Y74760D01*
X44309Y74766D01*
X44394Y74768D01*
X44479Y74766D01*
X44563Y74760D01*
X44647Y74750D01*
X44731Y74737D01*
X44814Y74719D01*
X44896Y74698D01*
X44977Y74673D01*
X45057Y74644D01*
X45135Y74612D01*
X45211Y74576D01*
X45286Y74536D01*
X45359Y74493D01*
X45430Y74447D01*
X45499Y74398D01*
X45566Y74345D01*
X45630Y74289D01*
X45691Y74231D01*
X45749Y74170D01*
X45805Y74106D01*
X45858Y74039D01*
X45907Y73970D01*
X45953Y73899D01*
X45996Y73826D01*
X46036Y73751D01*
X46072Y73675D01*
X46104Y73597D01*
X46133Y73517D01*
X46158Y73436D01*
X46179Y73354D01*
X46197Y73271D01*
X46210Y73187D01*
X46220Y73103D01*
X46226Y73019D01*
X46228Y72934D01*
X46228Y71099D01*
X39624Y71099D01*
X39624Y72934D01*
X39626Y73010D01*
X39632Y73085D01*
X39641Y73160D01*
X39655Y73234D01*
X39672Y73308D01*
X39694Y73380D01*
X39718Y73452D01*
X39747Y73522D01*
X39779Y73590D01*
X39814Y73657D01*
X39853Y73722D01*
X39896Y73785D01*
X39941Y73845D01*
X39989Y73903D01*
X40041Y73959D01*
X40095Y74011D01*
X40152Y74061D01*
X40211Y74108D01*
X40272Y74152D01*
X40336Y74193D01*
X40402Y74230D01*
X40470Y74264D01*
X40539Y74294D01*
X40610Y74321D01*
X40682Y74344D01*
X40755Y74363D01*
X40829Y74378D01*
X40904Y74390D01*
X40979Y74398D01*
X41054Y74402D01*
X41130Y74402D01*
X41205Y74398D01*
X41280Y74390D01*
X41355Y74378D01*
X41429Y74363D01*
X41502Y74344D01*
X41574Y74321D01*
X41645Y74294D01*
X41714Y74264D01*
X41782Y74230D01*
X41848Y74193D01*
X41912Y74152D01*
X41973Y74108D01*
X42032Y74061D01*
X42089Y74011D01*
X42143Y73959D01*
X42195Y73903D01*
X42243Y73845D01*
X42288Y73785D01*
X42331Y73722D01*
X42370Y73657D01*
X42405Y73590D01*
X42437Y73522D01*
X42466Y73452D01*
X42490Y73380D01*
X42512Y73308D01*
X42529Y73234D01*
X42543Y73160D01*
X42552Y73085D01*
X42558Y73010D01*
X42560Y72934D01*
X46228Y77622D02*
X39624Y79824D01*
X46228Y82025D01*
X44577Y81475D02*
X44577Y78173D01*
X46228Y86651D02*
X39624Y86651D01*
X39624Y84817D02*
X39624Y88486D01*
X186944Y136652D02*
X193548Y138853D01*
X186944Y141055D01*
X186944Y144602D02*
X193548Y144602D01*
X193548Y147537D01*
X191714Y150674D02*
X188778Y150674D01*
X188693Y150676D01*
X188609Y150682D01*
X188525Y150692D01*
X188441Y150705D01*
X188358Y150723D01*
X188276Y150744D01*
X188195Y150769D01*
X188115Y150798D01*
X188037Y150830D01*
X187961Y150866D01*
X187886Y150906D01*
X187813Y150949D01*
X187742Y150995D01*
X187673Y151044D01*
X187606Y151097D01*
X187542Y151153D01*
X187481Y151211D01*
X187423Y151272D01*
X187367Y151336D01*
X187314Y151403D01*
X187265Y151472D01*
X187219Y151543D01*
X187176Y151616D01*
X187136Y151691D01*
X187100Y151767D01*
X187068Y151845D01*
X187039Y151925D01*
X187014Y152006D01*
X186993Y152088D01*
X186975Y152171D01*
X186962Y152255D01*
X186952Y152339D01*
X186946Y152423D01*
X186944Y152508D01*
X186946Y152593D01*
X186952Y152677D01*
X186962Y152761D01*
X186975Y152845D01*
X186993Y152928D01*
X187014Y153010D01*
X187039Y153091D01*
X187068Y153171D01*
X187100Y153249D01*
X187136Y153325D01*
X187176Y153400D01*
X187219Y153473D01*
X187265Y153544D01*
X187314Y153613D01*
X187367Y153680D01*
X187423Y153744D01*
X187481Y153805D01*
X187542Y153863D01*
X187606Y153919D01*
X187673Y153972D01*
X187742Y154021D01*
X187813Y154067D01*
X187886Y154110D01*
X187961Y154150D01*
X188037Y154186D01*
X188115Y154218D01*
X188195Y154247D01*
X188276Y154272D01*
X188358Y154293D01*
X188441Y154311D01*
X188525Y154324D01*
X188609Y154334D01*
X188693Y154340D01*
X188778Y154342D01*
X188778Y154343D02*
X191714Y154343D01*
X191714Y154342D02*
X191799Y154340D01*
X191883Y154334D01*
X191967Y154324D01*
X192051Y154311D01*
X192134Y154293D01*
X192216Y154272D01*
X192297Y154247D01*
X192377Y154218D01*
X192455Y154186D01*
X192531Y154150D01*
X192606Y154110D01*
X192679Y154067D01*
X192750Y154021D01*
X192819Y153972D01*
X192886Y153919D01*
X192950Y153863D01*
X193011Y153805D01*
X193069Y153744D01*
X193125Y153680D01*
X193178Y153613D01*
X193227Y153544D01*
X193273Y153473D01*
X193316Y153400D01*
X193356Y153325D01*
X193392Y153249D01*
X193424Y153171D01*
X193453Y153091D01*
X193478Y153010D01*
X193499Y152928D01*
X193517Y152845D01*
X193530Y152761D01*
X193540Y152677D01*
X193546Y152593D01*
X193548Y152508D01*
X193546Y152423D01*
X193540Y152339D01*
X193530Y152255D01*
X193517Y152171D01*
X193499Y152088D01*
X193478Y152006D01*
X193453Y151925D01*
X193424Y151845D01*
X193392Y151767D01*
X193356Y151691D01*
X193316Y151616D01*
X193273Y151543D01*
X193227Y151472D01*
X193178Y151403D01*
X193125Y151336D01*
X193069Y151272D01*
X193011Y151211D01*
X192950Y151153D01*
X192886Y151097D01*
X192819Y151044D01*
X192750Y150995D01*
X192679Y150949D01*
X192606Y150906D01*
X192531Y150866D01*
X192455Y150830D01*
X192377Y150798D01*
X192297Y150769D01*
X192216Y150744D01*
X192134Y150723D01*
X192051Y150705D01*
X191967Y150692D01*
X191883Y150682D01*
X191799Y150676D01*
X191714Y150674D01*
X193548Y157622D02*
X186944Y159823D01*
X193548Y162025D01*
X191897Y161474D02*
X191897Y158172D01*
X193548Y165548D02*
X186944Y165548D01*
X186944Y167383D01*
X186946Y167468D01*
X186952Y167552D01*
X186962Y167636D01*
X186975Y167720D01*
X186993Y167803D01*
X187014Y167885D01*
X187039Y167966D01*
X187068Y168046D01*
X187100Y168124D01*
X187136Y168200D01*
X187176Y168275D01*
X187219Y168348D01*
X187265Y168419D01*
X187314Y168488D01*
X187367Y168555D01*
X187423Y168619D01*
X187481Y168680D01*
X187542Y168738D01*
X187606Y168794D01*
X187673Y168847D01*
X187742Y168896D01*
X187813Y168942D01*
X187886Y168985D01*
X187961Y169025D01*
X188037Y169061D01*
X188116Y169093D01*
X188195Y169122D01*
X188276Y169147D01*
X188358Y169168D01*
X188441Y169186D01*
X188525Y169199D01*
X188609Y169209D01*
X188693Y169215D01*
X188778Y169217D01*
X191714Y169217D01*
X191799Y169215D01*
X191883Y169209D01*
X191967Y169199D01*
X192051Y169186D01*
X192134Y169168D01*
X192216Y169147D01*
X192297Y169122D01*
X192377Y169093D01*
X192455Y169061D01*
X192531Y169025D01*
X192606Y168985D01*
X192679Y168942D01*
X192750Y168896D01*
X192819Y168847D01*
X192886Y168794D01*
X192950Y168738D01*
X193011Y168680D01*
X193069Y168619D01*
X193125Y168555D01*
X193178Y168488D01*
X193227Y168419D01*
X193273Y168348D01*
X193316Y168275D01*
X193356Y168200D01*
X193392Y168124D01*
X193424Y168046D01*
X193453Y167966D01*
X193478Y167885D01*
X193499Y167803D01*
X193517Y167720D01*
X193530Y167636D01*
X193540Y167552D01*
X193546Y167468D01*
X193548Y167383D01*
X193548Y165548D01*
X186634Y76962D02*
X183698Y76962D01*
X183613Y76964D01*
X183529Y76970D01*
X183445Y76980D01*
X183361Y76993D01*
X183278Y77011D01*
X183196Y77032D01*
X183115Y77057D01*
X183035Y77086D01*
X182957Y77118D01*
X182881Y77154D01*
X182806Y77194D01*
X182733Y77237D01*
X182662Y77283D01*
X182593Y77332D01*
X182526Y77385D01*
X182462Y77441D01*
X182401Y77499D01*
X182343Y77560D01*
X182287Y77624D01*
X182234Y77691D01*
X182185Y77760D01*
X182139Y77831D01*
X182096Y77904D01*
X182056Y77979D01*
X182020Y78055D01*
X181988Y78133D01*
X181959Y78213D01*
X181934Y78294D01*
X181913Y78376D01*
X181895Y78459D01*
X181882Y78543D01*
X181872Y78627D01*
X181866Y78711D01*
X181864Y78796D01*
X181866Y78881D01*
X181872Y78965D01*
X181882Y79049D01*
X181895Y79133D01*
X181913Y79216D01*
X181934Y79298D01*
X181959Y79379D01*
X181988Y79459D01*
X182020Y79537D01*
X182056Y79613D01*
X182096Y79688D01*
X182139Y79761D01*
X182185Y79832D01*
X182234Y79901D01*
X182287Y79968D01*
X182343Y80032D01*
X182401Y80093D01*
X182462Y80151D01*
X182526Y80207D01*
X182593Y80260D01*
X182662Y80309D01*
X182733Y80355D01*
X182806Y80398D01*
X182881Y80438D01*
X182957Y80474D01*
X183035Y80506D01*
X183115Y80535D01*
X183196Y80560D01*
X183278Y80581D01*
X183361Y80599D01*
X183445Y80612D01*
X183529Y80622D01*
X183613Y80628D01*
X183698Y80630D01*
X183698Y80631D02*
X186634Y80631D01*
X186634Y80630D02*
X186719Y80628D01*
X186803Y80622D01*
X186887Y80612D01*
X186971Y80599D01*
X187054Y80581D01*
X187136Y80560D01*
X187217Y80535D01*
X187297Y80506D01*
X187375Y80474D01*
X187451Y80438D01*
X187526Y80398D01*
X187599Y80355D01*
X187670Y80309D01*
X187739Y80260D01*
X187806Y80207D01*
X187870Y80151D01*
X187931Y80093D01*
X187989Y80032D01*
X188045Y79968D01*
X188098Y79901D01*
X188147Y79832D01*
X188193Y79761D01*
X188236Y79688D01*
X188276Y79613D01*
X188312Y79537D01*
X188344Y79459D01*
X188373Y79379D01*
X188398Y79298D01*
X188419Y79216D01*
X188437Y79133D01*
X188450Y79049D01*
X188460Y78965D01*
X188466Y78881D01*
X188468Y78796D01*
X188466Y78711D01*
X188460Y78627D01*
X188450Y78543D01*
X188437Y78459D01*
X188419Y78376D01*
X188398Y78294D01*
X188373Y78213D01*
X188344Y78133D01*
X188312Y78055D01*
X188276Y77979D01*
X188236Y77904D01*
X188193Y77831D01*
X188147Y77760D01*
X188098Y77691D01*
X188045Y77624D01*
X187989Y77560D01*
X187931Y77499D01*
X187870Y77441D01*
X187806Y77385D01*
X187739Y77332D01*
X187670Y77283D01*
X187599Y77237D01*
X187526Y77194D01*
X187451Y77154D01*
X187375Y77118D01*
X187297Y77086D01*
X187217Y77057D01*
X187136Y77032D01*
X187054Y77011D01*
X186971Y76993D01*
X186887Y76980D01*
X186803Y76970D01*
X186719Y76964D01*
X186634Y76962D01*
X188468Y84702D02*
X181864Y84702D01*
X181864Y88371D02*
X185900Y84702D01*
X184432Y86170D02*
X188468Y88371D01*
X64262Y134112D02*
X64262Y140716D01*
X64262Y134112D02*
X67197Y134112D01*
X70334Y139248D02*
X72168Y140716D01*
X72168Y134112D01*
X70334Y134112D02*
X74003Y134112D01*
X151892Y143002D02*
X151892Y149606D01*
X151892Y143002D02*
X154827Y143002D01*
X159982Y149606D02*
X160061Y149604D01*
X160139Y149599D01*
X160217Y149589D01*
X160294Y149576D01*
X160371Y149559D01*
X160447Y149539D01*
X160522Y149515D01*
X160596Y149488D01*
X160668Y149457D01*
X160739Y149422D01*
X160808Y149385D01*
X160875Y149344D01*
X160940Y149300D01*
X161003Y149253D01*
X161063Y149203D01*
X161121Y149150D01*
X161177Y149094D01*
X161230Y149036D01*
X161280Y148976D01*
X161327Y148913D01*
X161371Y148848D01*
X161412Y148781D01*
X161449Y148712D01*
X161484Y148641D01*
X161515Y148569D01*
X161542Y148495D01*
X161566Y148420D01*
X161586Y148344D01*
X161603Y148267D01*
X161616Y148190D01*
X161626Y148112D01*
X161631Y148034D01*
X161633Y147955D01*
X159982Y149606D02*
X159893Y149604D01*
X159804Y149599D01*
X159716Y149589D01*
X159628Y149576D01*
X159541Y149560D01*
X159454Y149539D01*
X159369Y149515D01*
X159284Y149488D01*
X159201Y149457D01*
X159119Y149422D01*
X159038Y149384D01*
X158959Y149343D01*
X158883Y149299D01*
X158807Y149251D01*
X158734Y149200D01*
X158664Y149147D01*
X158595Y149090D01*
X158529Y149030D01*
X158466Y148968D01*
X158405Y148903D01*
X158347Y148836D01*
X158292Y148766D01*
X158239Y148694D01*
X158190Y148620D01*
X158144Y148544D01*
X158102Y148466D01*
X158062Y148386D01*
X158026Y148305D01*
X157993Y148222D01*
X157964Y148138D01*
X161082Y146671D02*
X161138Y146727D01*
X161192Y146786D01*
X161243Y146847D01*
X161292Y146911D01*
X161337Y146976D01*
X161380Y147044D01*
X161419Y147113D01*
X161456Y147184D01*
X161489Y147257D01*
X161518Y147331D01*
X161545Y147406D01*
X161568Y147482D01*
X161587Y147560D01*
X161603Y147638D01*
X161616Y147716D01*
X161625Y147796D01*
X161630Y147875D01*
X161632Y147955D01*
X161082Y146671D02*
X157964Y143002D01*
X161633Y143002D01*
X121427Y116482D02*
X119960Y116482D01*
X119886Y116484D01*
X119811Y116490D01*
X119738Y116499D01*
X119664Y116512D01*
X119592Y116529D01*
X119521Y116549D01*
X119450Y116573D01*
X119381Y116601D01*
X119314Y116632D01*
X119248Y116666D01*
X119183Y116704D01*
X119121Y116745D01*
X119061Y116789D01*
X119004Y116836D01*
X118949Y116886D01*
X118896Y116939D01*
X118846Y116994D01*
X118799Y117051D01*
X118755Y117111D01*
X118714Y117173D01*
X118676Y117238D01*
X118642Y117304D01*
X118611Y117371D01*
X118583Y117440D01*
X118559Y117511D01*
X118539Y117582D01*
X118522Y117654D01*
X118509Y117728D01*
X118500Y117801D01*
X118494Y117876D01*
X118492Y117950D01*
X118492Y121618D01*
X118494Y121692D01*
X118500Y121767D01*
X118509Y121840D01*
X118522Y121914D01*
X118539Y121986D01*
X118559Y122057D01*
X118583Y122128D01*
X118611Y122197D01*
X118642Y122264D01*
X118676Y122330D01*
X118714Y122395D01*
X118755Y122457D01*
X118799Y122517D01*
X118846Y122574D01*
X118896Y122629D01*
X118949Y122682D01*
X119004Y122732D01*
X119061Y122779D01*
X119121Y122823D01*
X119183Y122864D01*
X119248Y122902D01*
X119313Y122936D01*
X119381Y122967D01*
X119450Y122995D01*
X119521Y123019D01*
X119592Y123039D01*
X119664Y123056D01*
X119738Y123069D01*
X119811Y123078D01*
X119886Y123084D01*
X119960Y123086D01*
X121427Y123086D01*
X124624Y121618D02*
X126458Y123086D01*
X126458Y116482D01*
X124624Y116482D02*
X128292Y116482D01*
X111267Y162202D02*
X109800Y162202D01*
X109726Y162204D01*
X109651Y162210D01*
X109578Y162219D01*
X109504Y162232D01*
X109432Y162249D01*
X109361Y162269D01*
X109290Y162293D01*
X109221Y162321D01*
X109154Y162352D01*
X109088Y162386D01*
X109023Y162424D01*
X108961Y162465D01*
X108901Y162509D01*
X108844Y162556D01*
X108789Y162606D01*
X108736Y162659D01*
X108686Y162714D01*
X108639Y162771D01*
X108595Y162831D01*
X108554Y162893D01*
X108516Y162958D01*
X108482Y163024D01*
X108451Y163091D01*
X108423Y163160D01*
X108399Y163231D01*
X108379Y163302D01*
X108362Y163374D01*
X108349Y163448D01*
X108340Y163521D01*
X108334Y163596D01*
X108332Y163670D01*
X108332Y167338D01*
X108334Y167412D01*
X108340Y167487D01*
X108349Y167560D01*
X108362Y167634D01*
X108379Y167706D01*
X108399Y167777D01*
X108423Y167848D01*
X108451Y167917D01*
X108482Y167984D01*
X108516Y168050D01*
X108554Y168115D01*
X108595Y168177D01*
X108639Y168237D01*
X108686Y168294D01*
X108736Y168349D01*
X108789Y168402D01*
X108844Y168452D01*
X108901Y168499D01*
X108961Y168543D01*
X109023Y168584D01*
X109088Y168622D01*
X109153Y168656D01*
X109221Y168687D01*
X109290Y168715D01*
X109361Y168739D01*
X109432Y168759D01*
X109504Y168776D01*
X109578Y168789D01*
X109651Y168798D01*
X109726Y168804D01*
X109800Y168806D01*
X111267Y168806D01*
X116481Y168806D02*
X116560Y168804D01*
X116638Y168799D01*
X116716Y168789D01*
X116793Y168776D01*
X116870Y168759D01*
X116946Y168739D01*
X117021Y168715D01*
X117095Y168688D01*
X117167Y168657D01*
X117238Y168622D01*
X117307Y168585D01*
X117374Y168544D01*
X117439Y168500D01*
X117502Y168453D01*
X117562Y168403D01*
X117620Y168350D01*
X117676Y168294D01*
X117729Y168236D01*
X117779Y168176D01*
X117826Y168113D01*
X117870Y168048D01*
X117911Y167981D01*
X117948Y167912D01*
X117983Y167841D01*
X118014Y167769D01*
X118041Y167695D01*
X118065Y167620D01*
X118085Y167544D01*
X118102Y167467D01*
X118115Y167390D01*
X118125Y167312D01*
X118130Y167234D01*
X118132Y167155D01*
X116481Y168806D02*
X116392Y168804D01*
X116303Y168799D01*
X116215Y168789D01*
X116127Y168776D01*
X116040Y168760D01*
X115953Y168739D01*
X115868Y168715D01*
X115783Y168688D01*
X115700Y168657D01*
X115618Y168622D01*
X115537Y168584D01*
X115458Y168543D01*
X115382Y168499D01*
X115306Y168451D01*
X115233Y168400D01*
X115163Y168347D01*
X115094Y168290D01*
X115028Y168230D01*
X114965Y168168D01*
X114904Y168103D01*
X114846Y168036D01*
X114791Y167966D01*
X114738Y167894D01*
X114689Y167820D01*
X114643Y167744D01*
X114601Y167666D01*
X114561Y167586D01*
X114525Y167505D01*
X114492Y167422D01*
X114463Y167338D01*
X117582Y165871D02*
X117638Y165927D01*
X117692Y165986D01*
X117743Y166047D01*
X117792Y166111D01*
X117837Y166176D01*
X117880Y166244D01*
X117919Y166313D01*
X117956Y166384D01*
X117989Y166457D01*
X118018Y166531D01*
X118045Y166606D01*
X118068Y166682D01*
X118087Y166760D01*
X118103Y166838D01*
X118116Y166916D01*
X118125Y166996D01*
X118130Y167075D01*
X118132Y167155D01*
X117582Y165871D02*
X114464Y162202D01*
X118132Y162202D01*
X136065Y101704D02*
X137533Y101704D01*
X136065Y101704D02*
X135991Y101706D01*
X135916Y101712D01*
X135843Y101721D01*
X135769Y101734D01*
X135697Y101751D01*
X135626Y101771D01*
X135555Y101795D01*
X135486Y101823D01*
X135419Y101854D01*
X135353Y101888D01*
X135288Y101926D01*
X135226Y101967D01*
X135166Y102011D01*
X135109Y102058D01*
X135054Y102108D01*
X135001Y102161D01*
X134951Y102216D01*
X134904Y102273D01*
X134860Y102333D01*
X134819Y102395D01*
X134781Y102460D01*
X134747Y102526D01*
X134716Y102593D01*
X134688Y102662D01*
X134664Y102733D01*
X134644Y102804D01*
X134627Y102876D01*
X134614Y102950D01*
X134605Y103023D01*
X134599Y103098D01*
X134597Y103172D01*
X134598Y103172D02*
X134598Y106840D01*
X134597Y106840D02*
X134599Y106914D01*
X134605Y106989D01*
X134614Y107062D01*
X134627Y107136D01*
X134644Y107208D01*
X134664Y107279D01*
X134688Y107350D01*
X134716Y107419D01*
X134747Y107486D01*
X134781Y107552D01*
X134819Y107617D01*
X134860Y107679D01*
X134904Y107739D01*
X134951Y107796D01*
X135001Y107851D01*
X135054Y107904D01*
X135109Y107954D01*
X135166Y108001D01*
X135226Y108045D01*
X135288Y108086D01*
X135353Y108124D01*
X135418Y108158D01*
X135486Y108189D01*
X135555Y108217D01*
X135626Y108241D01*
X135697Y108261D01*
X135769Y108278D01*
X135843Y108291D01*
X135916Y108300D01*
X135991Y108306D01*
X136065Y108308D01*
X137533Y108308D01*
X140729Y101704D02*
X142564Y101704D01*
X142649Y101706D01*
X142733Y101712D01*
X142817Y101722D01*
X142901Y101735D01*
X142984Y101753D01*
X143066Y101774D01*
X143147Y101799D01*
X143227Y101828D01*
X143305Y101860D01*
X143381Y101896D01*
X143456Y101936D01*
X143529Y101979D01*
X143600Y102025D01*
X143669Y102074D01*
X143736Y102127D01*
X143800Y102183D01*
X143861Y102241D01*
X143919Y102302D01*
X143975Y102366D01*
X144028Y102433D01*
X144077Y102502D01*
X144123Y102573D01*
X144166Y102646D01*
X144206Y102721D01*
X144242Y102797D01*
X144274Y102875D01*
X144303Y102955D01*
X144328Y103036D01*
X144349Y103118D01*
X144367Y103201D01*
X144380Y103285D01*
X144390Y103369D01*
X144396Y103453D01*
X144398Y103538D01*
X144396Y103623D01*
X144390Y103707D01*
X144380Y103791D01*
X144367Y103875D01*
X144349Y103958D01*
X144328Y104040D01*
X144303Y104121D01*
X144274Y104201D01*
X144242Y104279D01*
X144206Y104355D01*
X144166Y104430D01*
X144123Y104503D01*
X144077Y104574D01*
X144028Y104643D01*
X143975Y104710D01*
X143919Y104774D01*
X143861Y104835D01*
X143800Y104893D01*
X143736Y104949D01*
X143669Y105002D01*
X143600Y105051D01*
X143529Y105097D01*
X143456Y105140D01*
X143381Y105180D01*
X143305Y105216D01*
X143227Y105248D01*
X143147Y105277D01*
X143066Y105302D01*
X142984Y105323D01*
X142901Y105341D01*
X142817Y105354D01*
X142733Y105364D01*
X142649Y105370D01*
X142564Y105372D01*
X142930Y108308D02*
X140729Y108308D01*
X142930Y108308D02*
X143006Y108306D01*
X143081Y108300D01*
X143156Y108291D01*
X143230Y108277D01*
X143304Y108260D01*
X143376Y108238D01*
X143448Y108214D01*
X143518Y108185D01*
X143586Y108153D01*
X143653Y108118D01*
X143718Y108079D01*
X143781Y108036D01*
X143841Y107991D01*
X143899Y107943D01*
X143955Y107891D01*
X144007Y107837D01*
X144057Y107780D01*
X144104Y107721D01*
X144148Y107660D01*
X144189Y107596D01*
X144226Y107530D01*
X144260Y107462D01*
X144290Y107393D01*
X144317Y107322D01*
X144340Y107250D01*
X144359Y107177D01*
X144374Y107103D01*
X144386Y107028D01*
X144394Y106953D01*
X144398Y106878D01*
X144398Y106802D01*
X144394Y106727D01*
X144386Y106652D01*
X144374Y106577D01*
X144359Y106503D01*
X144340Y106430D01*
X144317Y106358D01*
X144290Y106287D01*
X144260Y106218D01*
X144226Y106150D01*
X144189Y106084D01*
X144148Y106020D01*
X144104Y105959D01*
X144057Y105900D01*
X144007Y105843D01*
X143955Y105789D01*
X143899Y105737D01*
X143841Y105689D01*
X143781Y105644D01*
X143718Y105601D01*
X143653Y105562D01*
X143586Y105527D01*
X143518Y105495D01*
X143448Y105466D01*
X143376Y105442D01*
X143304Y105420D01*
X143230Y105403D01*
X143156Y105389D01*
X143081Y105380D01*
X143006Y105374D01*
X142930Y105372D01*
X142930Y105373D02*
X141463Y105373D01*
X180920Y102512D02*
X182387Y102512D01*
X180920Y102512D02*
X180846Y102514D01*
X180771Y102520D01*
X180698Y102529D01*
X180624Y102542D01*
X180552Y102559D01*
X180481Y102579D01*
X180410Y102603D01*
X180341Y102631D01*
X180274Y102662D01*
X180208Y102696D01*
X180143Y102734D01*
X180081Y102775D01*
X180021Y102819D01*
X179964Y102866D01*
X179909Y102916D01*
X179856Y102969D01*
X179806Y103024D01*
X179759Y103081D01*
X179715Y103141D01*
X179674Y103203D01*
X179636Y103268D01*
X179602Y103334D01*
X179571Y103401D01*
X179543Y103470D01*
X179519Y103541D01*
X179499Y103612D01*
X179482Y103684D01*
X179469Y103758D01*
X179460Y103831D01*
X179454Y103906D01*
X179452Y103980D01*
X179452Y107648D01*
X179454Y107722D01*
X179460Y107797D01*
X179469Y107870D01*
X179482Y107944D01*
X179499Y108016D01*
X179519Y108087D01*
X179543Y108158D01*
X179571Y108227D01*
X179602Y108294D01*
X179636Y108360D01*
X179674Y108425D01*
X179715Y108487D01*
X179759Y108547D01*
X179806Y108604D01*
X179856Y108659D01*
X179909Y108712D01*
X179964Y108762D01*
X180021Y108809D01*
X180081Y108853D01*
X180143Y108894D01*
X180208Y108932D01*
X180273Y108966D01*
X180341Y108997D01*
X180410Y109025D01*
X180481Y109049D01*
X180552Y109069D01*
X180624Y109086D01*
X180698Y109099D01*
X180771Y109108D01*
X180846Y109114D01*
X180920Y109116D01*
X182387Y109116D01*
X187051Y109116D02*
X185584Y103980D01*
X189252Y103980D01*
X188152Y105447D02*
X188152Y102512D01*
X70223Y78844D02*
X68755Y78844D01*
X68681Y78846D01*
X68606Y78852D01*
X68533Y78861D01*
X68459Y78874D01*
X68387Y78891D01*
X68316Y78911D01*
X68245Y78935D01*
X68176Y78963D01*
X68109Y78994D01*
X68043Y79028D01*
X67978Y79066D01*
X67916Y79107D01*
X67856Y79151D01*
X67799Y79198D01*
X67744Y79248D01*
X67691Y79301D01*
X67641Y79356D01*
X67594Y79413D01*
X67550Y79473D01*
X67509Y79535D01*
X67471Y79600D01*
X67437Y79666D01*
X67406Y79733D01*
X67378Y79802D01*
X67354Y79873D01*
X67334Y79944D01*
X67317Y80016D01*
X67304Y80090D01*
X67295Y80163D01*
X67289Y80238D01*
X67287Y80312D01*
X67288Y80312D02*
X67288Y83980D01*
X67287Y83980D02*
X67289Y84054D01*
X67295Y84129D01*
X67304Y84202D01*
X67317Y84276D01*
X67334Y84348D01*
X67354Y84419D01*
X67378Y84490D01*
X67406Y84559D01*
X67437Y84626D01*
X67471Y84692D01*
X67509Y84757D01*
X67550Y84819D01*
X67594Y84879D01*
X67641Y84936D01*
X67691Y84991D01*
X67744Y85044D01*
X67799Y85094D01*
X67856Y85141D01*
X67916Y85185D01*
X67978Y85226D01*
X68043Y85264D01*
X68108Y85298D01*
X68176Y85329D01*
X68245Y85357D01*
X68316Y85381D01*
X68387Y85401D01*
X68459Y85418D01*
X68533Y85431D01*
X68606Y85440D01*
X68681Y85446D01*
X68755Y85448D01*
X70223Y85448D01*
X73419Y78844D02*
X75620Y78844D01*
X75694Y78846D01*
X75769Y78852D01*
X75842Y78861D01*
X75916Y78874D01*
X75988Y78891D01*
X76059Y78911D01*
X76130Y78935D01*
X76199Y78963D01*
X76266Y78994D01*
X76332Y79028D01*
X76397Y79066D01*
X76459Y79107D01*
X76519Y79151D01*
X76576Y79198D01*
X76631Y79248D01*
X76684Y79301D01*
X76734Y79356D01*
X76781Y79413D01*
X76825Y79473D01*
X76866Y79535D01*
X76904Y79600D01*
X76938Y79665D01*
X76969Y79733D01*
X76997Y79802D01*
X77021Y79873D01*
X77041Y79944D01*
X77058Y80016D01*
X77071Y80090D01*
X77080Y80163D01*
X77086Y80238D01*
X77088Y80312D01*
X77088Y81045D01*
X77086Y81119D01*
X77080Y81194D01*
X77071Y81267D01*
X77058Y81341D01*
X77041Y81413D01*
X77021Y81484D01*
X76997Y81555D01*
X76969Y81624D01*
X76938Y81691D01*
X76904Y81757D01*
X76866Y81822D01*
X76825Y81884D01*
X76781Y81944D01*
X76734Y82001D01*
X76684Y82056D01*
X76631Y82109D01*
X76576Y82159D01*
X76519Y82206D01*
X76459Y82250D01*
X76397Y82291D01*
X76332Y82329D01*
X76266Y82363D01*
X76199Y82394D01*
X76130Y82422D01*
X76059Y82446D01*
X75988Y82466D01*
X75916Y82483D01*
X75842Y82496D01*
X75769Y82505D01*
X75694Y82511D01*
X75620Y82513D01*
X73419Y82513D01*
X73419Y85448D01*
X77088Y85448D01*
X55387Y86002D02*
X53920Y86002D01*
X53846Y86004D01*
X53771Y86010D01*
X53698Y86019D01*
X53624Y86032D01*
X53552Y86049D01*
X53481Y86069D01*
X53410Y86093D01*
X53341Y86121D01*
X53274Y86152D01*
X53208Y86186D01*
X53143Y86224D01*
X53081Y86265D01*
X53021Y86309D01*
X52964Y86356D01*
X52909Y86406D01*
X52856Y86459D01*
X52806Y86514D01*
X52759Y86571D01*
X52715Y86631D01*
X52674Y86693D01*
X52636Y86758D01*
X52602Y86824D01*
X52571Y86891D01*
X52543Y86960D01*
X52519Y87031D01*
X52499Y87102D01*
X52482Y87174D01*
X52469Y87248D01*
X52460Y87321D01*
X52454Y87396D01*
X52452Y87470D01*
X52452Y91138D01*
X52454Y91212D01*
X52460Y91287D01*
X52469Y91360D01*
X52482Y91434D01*
X52499Y91506D01*
X52519Y91577D01*
X52543Y91648D01*
X52571Y91717D01*
X52602Y91784D01*
X52636Y91850D01*
X52674Y91915D01*
X52715Y91977D01*
X52759Y92037D01*
X52806Y92094D01*
X52856Y92149D01*
X52909Y92202D01*
X52964Y92252D01*
X53021Y92299D01*
X53081Y92343D01*
X53143Y92384D01*
X53208Y92422D01*
X53273Y92456D01*
X53341Y92487D01*
X53410Y92515D01*
X53481Y92539D01*
X53552Y92559D01*
X53624Y92576D01*
X53698Y92589D01*
X53771Y92598D01*
X53846Y92604D01*
X53920Y92606D01*
X55387Y92606D01*
X58584Y89671D02*
X60785Y89671D01*
X60859Y89669D01*
X60934Y89663D01*
X61007Y89654D01*
X61081Y89641D01*
X61153Y89624D01*
X61224Y89604D01*
X61295Y89580D01*
X61364Y89552D01*
X61431Y89521D01*
X61497Y89487D01*
X61562Y89449D01*
X61624Y89408D01*
X61684Y89364D01*
X61741Y89317D01*
X61796Y89267D01*
X61849Y89214D01*
X61899Y89159D01*
X61946Y89102D01*
X61990Y89042D01*
X62031Y88980D01*
X62069Y88915D01*
X62103Y88849D01*
X62134Y88782D01*
X62162Y88713D01*
X62186Y88642D01*
X62206Y88571D01*
X62223Y88499D01*
X62236Y88425D01*
X62245Y88352D01*
X62251Y88277D01*
X62253Y88203D01*
X62252Y88203D02*
X62252Y87836D01*
X62250Y87751D01*
X62244Y87667D01*
X62234Y87583D01*
X62221Y87499D01*
X62203Y87416D01*
X62182Y87334D01*
X62157Y87253D01*
X62128Y87173D01*
X62096Y87095D01*
X62060Y87019D01*
X62020Y86944D01*
X61977Y86871D01*
X61931Y86800D01*
X61882Y86731D01*
X61829Y86664D01*
X61773Y86600D01*
X61715Y86539D01*
X61654Y86481D01*
X61590Y86425D01*
X61523Y86372D01*
X61454Y86323D01*
X61383Y86277D01*
X61310Y86234D01*
X61235Y86194D01*
X61159Y86158D01*
X61081Y86126D01*
X61001Y86097D01*
X60920Y86072D01*
X60838Y86051D01*
X60755Y86033D01*
X60671Y86020D01*
X60587Y86010D01*
X60503Y86004D01*
X60418Y86002D01*
X60333Y86004D01*
X60249Y86010D01*
X60165Y86020D01*
X60081Y86033D01*
X59998Y86051D01*
X59916Y86072D01*
X59835Y86097D01*
X59755Y86126D01*
X59677Y86158D01*
X59601Y86194D01*
X59526Y86234D01*
X59453Y86277D01*
X59382Y86323D01*
X59313Y86372D01*
X59246Y86425D01*
X59182Y86481D01*
X59121Y86539D01*
X59063Y86600D01*
X59007Y86664D01*
X58954Y86731D01*
X58905Y86800D01*
X58859Y86871D01*
X58816Y86944D01*
X58776Y87019D01*
X58740Y87095D01*
X58708Y87173D01*
X58679Y87253D01*
X58654Y87334D01*
X58633Y87416D01*
X58615Y87499D01*
X58602Y87583D01*
X58592Y87667D01*
X58586Y87751D01*
X58584Y87836D01*
X58584Y89671D01*
X58586Y89778D01*
X58592Y89885D01*
X58602Y89992D01*
X58615Y90098D01*
X58633Y90204D01*
X58654Y90309D01*
X58679Y90413D01*
X58708Y90517D01*
X58741Y90619D01*
X58778Y90719D01*
X58818Y90819D01*
X58862Y90917D01*
X58909Y91013D01*
X58960Y91107D01*
X59014Y91200D01*
X59071Y91290D01*
X59132Y91379D01*
X59196Y91465D01*
X59263Y91548D01*
X59333Y91630D01*
X59406Y91708D01*
X59482Y91784D01*
X59560Y91857D01*
X59642Y91927D01*
X59725Y91994D01*
X59811Y92058D01*
X59900Y92119D01*
X59990Y92176D01*
X60083Y92230D01*
X60177Y92281D01*
X60273Y92328D01*
X60371Y92372D01*
X60471Y92412D01*
X60571Y92449D01*
X60673Y92482D01*
X60777Y92511D01*
X60881Y92536D01*
X60986Y92557D01*
X61092Y92575D01*
X61198Y92588D01*
X61305Y92598D01*
X61412Y92604D01*
X61519Y92606D01*
X135200Y65682D02*
X136667Y65682D01*
X135200Y65682D02*
X135126Y65684D01*
X135051Y65690D01*
X134978Y65699D01*
X134904Y65712D01*
X134832Y65729D01*
X134761Y65749D01*
X134690Y65773D01*
X134621Y65801D01*
X134554Y65832D01*
X134488Y65866D01*
X134423Y65904D01*
X134361Y65945D01*
X134301Y65989D01*
X134244Y66036D01*
X134189Y66086D01*
X134136Y66139D01*
X134086Y66194D01*
X134039Y66251D01*
X133995Y66311D01*
X133954Y66373D01*
X133916Y66438D01*
X133882Y66504D01*
X133851Y66571D01*
X133823Y66640D01*
X133799Y66711D01*
X133779Y66782D01*
X133762Y66854D01*
X133749Y66928D01*
X133740Y67001D01*
X133734Y67076D01*
X133732Y67150D01*
X133732Y70818D01*
X133734Y70892D01*
X133740Y70967D01*
X133749Y71040D01*
X133762Y71114D01*
X133779Y71186D01*
X133799Y71257D01*
X133823Y71328D01*
X133851Y71397D01*
X133882Y71464D01*
X133916Y71530D01*
X133954Y71595D01*
X133995Y71657D01*
X134039Y71717D01*
X134086Y71774D01*
X134136Y71829D01*
X134189Y71882D01*
X134244Y71932D01*
X134301Y71979D01*
X134361Y72023D01*
X134423Y72064D01*
X134488Y72102D01*
X134553Y72136D01*
X134621Y72167D01*
X134690Y72195D01*
X134761Y72219D01*
X134832Y72239D01*
X134904Y72256D01*
X134978Y72269D01*
X135051Y72278D01*
X135126Y72284D01*
X135200Y72286D01*
X136667Y72286D01*
X139864Y72286D02*
X139864Y71552D01*
X139864Y72286D02*
X143532Y72286D01*
X141698Y65682D01*
D11*
X75375Y116396D02*
X61786Y116396D01*
X61786Y155385D02*
X75375Y155385D01*
D12*
X43180Y135890D03*
D11*
X150686Y126556D02*
X164275Y126556D01*
X164275Y165545D02*
X150686Y165545D01*
D12*
X132080Y146050D03*
D10*
X76962Y21336D02*
X76962Y14732D01*
X76962Y21336D02*
X78796Y21336D01*
X78881Y21334D01*
X78965Y21328D01*
X79049Y21318D01*
X79133Y21305D01*
X79216Y21287D01*
X79298Y21266D01*
X79379Y21241D01*
X79459Y21212D01*
X79537Y21180D01*
X79613Y21144D01*
X79688Y21104D01*
X79761Y21061D01*
X79832Y21015D01*
X79901Y20966D01*
X79968Y20913D01*
X80032Y20857D01*
X80093Y20799D01*
X80151Y20738D01*
X80207Y20674D01*
X80260Y20607D01*
X80309Y20538D01*
X80355Y20467D01*
X80398Y20394D01*
X80438Y20319D01*
X80474Y20243D01*
X80506Y20165D01*
X80535Y20085D01*
X80560Y20004D01*
X80581Y19922D01*
X80599Y19839D01*
X80612Y19755D01*
X80622Y19671D01*
X80628Y19587D01*
X80630Y19502D01*
X80628Y19417D01*
X80622Y19333D01*
X80612Y19249D01*
X80599Y19165D01*
X80581Y19082D01*
X80560Y19000D01*
X80535Y18919D01*
X80506Y18839D01*
X80474Y18761D01*
X80438Y18685D01*
X80398Y18610D01*
X80355Y18537D01*
X80309Y18466D01*
X80260Y18397D01*
X80207Y18330D01*
X80151Y18266D01*
X80093Y18205D01*
X80032Y18147D01*
X79968Y18091D01*
X79901Y18038D01*
X79832Y17989D01*
X79761Y17943D01*
X79688Y17900D01*
X79613Y17860D01*
X79537Y17824D01*
X79459Y17792D01*
X79379Y17763D01*
X79298Y17738D01*
X79216Y17717D01*
X79133Y17699D01*
X79049Y17686D01*
X78965Y17676D01*
X78881Y17670D01*
X78796Y17668D01*
X78796Y17667D02*
X76962Y17667D01*
X79163Y17667D02*
X80631Y14732D01*
X84198Y19868D02*
X86033Y21336D01*
X86033Y14732D01*
X87867Y14732D02*
X84198Y14732D01*
X60452Y14732D02*
X60452Y21336D01*
X62286Y21336D01*
X62371Y21334D01*
X62455Y21328D01*
X62539Y21318D01*
X62623Y21305D01*
X62706Y21287D01*
X62788Y21266D01*
X62869Y21241D01*
X62949Y21212D01*
X63027Y21180D01*
X63103Y21144D01*
X63178Y21104D01*
X63251Y21061D01*
X63322Y21015D01*
X63391Y20966D01*
X63458Y20913D01*
X63522Y20857D01*
X63583Y20799D01*
X63641Y20738D01*
X63697Y20674D01*
X63750Y20607D01*
X63799Y20538D01*
X63845Y20467D01*
X63888Y20394D01*
X63928Y20319D01*
X63964Y20243D01*
X63996Y20165D01*
X64025Y20085D01*
X64050Y20004D01*
X64071Y19922D01*
X64089Y19839D01*
X64102Y19755D01*
X64112Y19671D01*
X64118Y19587D01*
X64120Y19502D01*
X64118Y19417D01*
X64112Y19333D01*
X64102Y19249D01*
X64089Y19165D01*
X64071Y19082D01*
X64050Y19000D01*
X64025Y18919D01*
X63996Y18839D01*
X63964Y18761D01*
X63928Y18685D01*
X63888Y18610D01*
X63845Y18537D01*
X63799Y18466D01*
X63750Y18397D01*
X63697Y18330D01*
X63641Y18266D01*
X63583Y18205D01*
X63522Y18147D01*
X63458Y18091D01*
X63391Y18038D01*
X63322Y17989D01*
X63251Y17943D01*
X63178Y17900D01*
X63103Y17860D01*
X63027Y17824D01*
X62949Y17792D01*
X62869Y17763D01*
X62788Y17738D01*
X62706Y17717D01*
X62623Y17699D01*
X62539Y17686D01*
X62455Y17676D01*
X62371Y17670D01*
X62286Y17668D01*
X62286Y17667D02*
X60452Y17667D01*
X62653Y17667D02*
X64121Y14732D01*
X69706Y21336D02*
X69785Y21334D01*
X69863Y21329D01*
X69941Y21319D01*
X70018Y21306D01*
X70095Y21289D01*
X70171Y21269D01*
X70246Y21245D01*
X70320Y21218D01*
X70392Y21187D01*
X70463Y21152D01*
X70532Y21115D01*
X70599Y21074D01*
X70664Y21030D01*
X70727Y20983D01*
X70787Y20933D01*
X70845Y20880D01*
X70901Y20824D01*
X70954Y20766D01*
X71004Y20706D01*
X71051Y20643D01*
X71095Y20578D01*
X71136Y20511D01*
X71173Y20442D01*
X71208Y20371D01*
X71239Y20299D01*
X71266Y20225D01*
X71290Y20150D01*
X71310Y20074D01*
X71327Y19997D01*
X71340Y19920D01*
X71350Y19842D01*
X71355Y19764D01*
X71357Y19685D01*
X69706Y21336D02*
X69617Y21334D01*
X69528Y21329D01*
X69440Y21319D01*
X69352Y21306D01*
X69265Y21290D01*
X69178Y21269D01*
X69093Y21245D01*
X69008Y21218D01*
X68925Y21187D01*
X68843Y21152D01*
X68762Y21114D01*
X68683Y21073D01*
X68607Y21029D01*
X68531Y20981D01*
X68458Y20930D01*
X68388Y20877D01*
X68319Y20820D01*
X68253Y20760D01*
X68190Y20698D01*
X68129Y20633D01*
X68071Y20566D01*
X68016Y20496D01*
X67963Y20424D01*
X67914Y20350D01*
X67868Y20274D01*
X67826Y20196D01*
X67786Y20116D01*
X67750Y20035D01*
X67717Y19952D01*
X67688Y19868D01*
X70807Y18401D02*
X70863Y18457D01*
X70917Y18516D01*
X70968Y18577D01*
X71017Y18641D01*
X71062Y18706D01*
X71105Y18774D01*
X71144Y18843D01*
X71181Y18914D01*
X71214Y18987D01*
X71243Y19061D01*
X71270Y19136D01*
X71293Y19212D01*
X71312Y19290D01*
X71328Y19368D01*
X71341Y19446D01*
X71350Y19526D01*
X71355Y19605D01*
X71357Y19685D01*
X70807Y18401D02*
X67688Y14732D01*
X71357Y14732D01*
X93472Y14732D02*
X93472Y21336D01*
X95306Y21336D01*
X95391Y21334D01*
X95475Y21328D01*
X95559Y21318D01*
X95643Y21305D01*
X95726Y21287D01*
X95808Y21266D01*
X95889Y21241D01*
X95969Y21212D01*
X96047Y21180D01*
X96123Y21144D01*
X96198Y21104D01*
X96271Y21061D01*
X96342Y21015D01*
X96411Y20966D01*
X96478Y20913D01*
X96542Y20857D01*
X96603Y20799D01*
X96661Y20738D01*
X96717Y20674D01*
X96770Y20607D01*
X96819Y20538D01*
X96865Y20467D01*
X96908Y20394D01*
X96948Y20319D01*
X96984Y20243D01*
X97016Y20165D01*
X97045Y20085D01*
X97070Y20004D01*
X97091Y19922D01*
X97109Y19839D01*
X97122Y19755D01*
X97132Y19671D01*
X97138Y19587D01*
X97140Y19502D01*
X97138Y19417D01*
X97132Y19333D01*
X97122Y19249D01*
X97109Y19165D01*
X97091Y19082D01*
X97070Y19000D01*
X97045Y18919D01*
X97016Y18839D01*
X96984Y18761D01*
X96948Y18685D01*
X96908Y18610D01*
X96865Y18537D01*
X96819Y18466D01*
X96770Y18397D01*
X96717Y18330D01*
X96661Y18266D01*
X96603Y18205D01*
X96542Y18147D01*
X96478Y18091D01*
X96411Y18038D01*
X96342Y17989D01*
X96271Y17943D01*
X96198Y17900D01*
X96123Y17860D01*
X96047Y17824D01*
X95969Y17792D01*
X95889Y17763D01*
X95808Y17738D01*
X95726Y17717D01*
X95643Y17699D01*
X95559Y17686D01*
X95475Y17676D01*
X95391Y17670D01*
X95306Y17668D01*
X95306Y17667D02*
X93472Y17667D01*
X95673Y17667D02*
X97141Y14732D01*
X100708Y14732D02*
X102543Y14732D01*
X102628Y14734D01*
X102712Y14740D01*
X102796Y14750D01*
X102880Y14763D01*
X102963Y14781D01*
X103045Y14802D01*
X103126Y14827D01*
X103206Y14856D01*
X103284Y14888D01*
X103360Y14924D01*
X103435Y14964D01*
X103508Y15007D01*
X103579Y15053D01*
X103648Y15102D01*
X103715Y15155D01*
X103779Y15211D01*
X103840Y15269D01*
X103898Y15330D01*
X103954Y15394D01*
X104007Y15461D01*
X104056Y15530D01*
X104102Y15601D01*
X104145Y15674D01*
X104185Y15749D01*
X104221Y15825D01*
X104253Y15903D01*
X104282Y15983D01*
X104307Y16064D01*
X104328Y16146D01*
X104346Y16229D01*
X104359Y16313D01*
X104369Y16397D01*
X104375Y16481D01*
X104377Y16566D01*
X104375Y16651D01*
X104369Y16735D01*
X104359Y16819D01*
X104346Y16903D01*
X104328Y16986D01*
X104307Y17068D01*
X104282Y17149D01*
X104253Y17229D01*
X104221Y17307D01*
X104185Y17383D01*
X104145Y17458D01*
X104102Y17531D01*
X104056Y17602D01*
X104007Y17671D01*
X103954Y17738D01*
X103898Y17802D01*
X103840Y17863D01*
X103779Y17921D01*
X103715Y17977D01*
X103648Y18030D01*
X103579Y18079D01*
X103508Y18125D01*
X103435Y18168D01*
X103360Y18208D01*
X103284Y18244D01*
X103206Y18276D01*
X103126Y18305D01*
X103045Y18330D01*
X102963Y18351D01*
X102880Y18369D01*
X102796Y18382D01*
X102712Y18392D01*
X102628Y18398D01*
X102543Y18400D01*
X102910Y21336D02*
X100708Y21336D01*
X102910Y21336D02*
X102986Y21334D01*
X103061Y21328D01*
X103136Y21319D01*
X103210Y21305D01*
X103284Y21288D01*
X103356Y21266D01*
X103428Y21242D01*
X103498Y21213D01*
X103566Y21181D01*
X103633Y21146D01*
X103698Y21107D01*
X103761Y21064D01*
X103821Y21019D01*
X103879Y20971D01*
X103935Y20919D01*
X103987Y20865D01*
X104037Y20808D01*
X104084Y20749D01*
X104128Y20688D01*
X104169Y20624D01*
X104206Y20558D01*
X104240Y20490D01*
X104270Y20421D01*
X104297Y20350D01*
X104320Y20278D01*
X104339Y20205D01*
X104354Y20131D01*
X104366Y20056D01*
X104374Y19981D01*
X104378Y19906D01*
X104378Y19830D01*
X104374Y19755D01*
X104366Y19680D01*
X104354Y19605D01*
X104339Y19531D01*
X104320Y19458D01*
X104297Y19386D01*
X104270Y19315D01*
X104240Y19246D01*
X104206Y19178D01*
X104169Y19112D01*
X104128Y19048D01*
X104084Y18987D01*
X104037Y18928D01*
X103987Y18871D01*
X103935Y18817D01*
X103879Y18765D01*
X103821Y18717D01*
X103761Y18672D01*
X103698Y18629D01*
X103633Y18590D01*
X103566Y18555D01*
X103498Y18523D01*
X103428Y18494D01*
X103356Y18470D01*
X103284Y18448D01*
X103210Y18431D01*
X103136Y18417D01*
X103061Y18408D01*
X102986Y18402D01*
X102910Y18400D01*
X102910Y18401D02*
X101442Y18401D01*
X109982Y21336D02*
X109982Y14732D01*
X109982Y21336D02*
X111816Y21336D01*
X111901Y21334D01*
X111985Y21328D01*
X112069Y21318D01*
X112153Y21305D01*
X112236Y21287D01*
X112318Y21266D01*
X112399Y21241D01*
X112479Y21212D01*
X112557Y21180D01*
X112633Y21144D01*
X112708Y21104D01*
X112781Y21061D01*
X112852Y21015D01*
X112921Y20966D01*
X112988Y20913D01*
X113052Y20857D01*
X113113Y20799D01*
X113171Y20738D01*
X113227Y20674D01*
X113280Y20607D01*
X113329Y20538D01*
X113375Y20467D01*
X113418Y20394D01*
X113458Y20319D01*
X113494Y20243D01*
X113526Y20165D01*
X113555Y20085D01*
X113580Y20004D01*
X113601Y19922D01*
X113619Y19839D01*
X113632Y19755D01*
X113642Y19671D01*
X113648Y19587D01*
X113650Y19502D01*
X113648Y19417D01*
X113642Y19333D01*
X113632Y19249D01*
X113619Y19165D01*
X113601Y19082D01*
X113580Y19000D01*
X113555Y18919D01*
X113526Y18839D01*
X113494Y18761D01*
X113458Y18685D01*
X113418Y18610D01*
X113375Y18537D01*
X113329Y18466D01*
X113280Y18397D01*
X113227Y18330D01*
X113171Y18266D01*
X113113Y18205D01*
X113052Y18147D01*
X112988Y18091D01*
X112921Y18038D01*
X112852Y17989D01*
X112781Y17943D01*
X112708Y17900D01*
X112633Y17860D01*
X112557Y17824D01*
X112479Y17792D01*
X112399Y17763D01*
X112318Y17738D01*
X112236Y17717D01*
X112153Y17699D01*
X112069Y17686D01*
X111985Y17676D01*
X111901Y17670D01*
X111816Y17668D01*
X111816Y17667D02*
X109982Y17667D01*
X112183Y17667D02*
X113651Y14732D01*
X117218Y16200D02*
X118686Y21336D01*
X117218Y16200D02*
X120887Y16200D01*
X119787Y17667D02*
X119787Y14732D01*
X125222Y14732D02*
X125222Y21336D01*
X127056Y21336D01*
X127141Y21334D01*
X127225Y21328D01*
X127309Y21318D01*
X127393Y21305D01*
X127476Y21287D01*
X127558Y21266D01*
X127639Y21241D01*
X127719Y21212D01*
X127797Y21180D01*
X127873Y21144D01*
X127948Y21104D01*
X128021Y21061D01*
X128092Y21015D01*
X128161Y20966D01*
X128228Y20913D01*
X128292Y20857D01*
X128353Y20799D01*
X128411Y20738D01*
X128467Y20674D01*
X128520Y20607D01*
X128569Y20538D01*
X128615Y20467D01*
X128658Y20394D01*
X128698Y20319D01*
X128734Y20243D01*
X128766Y20165D01*
X128795Y20085D01*
X128820Y20004D01*
X128841Y19922D01*
X128859Y19839D01*
X128872Y19755D01*
X128882Y19671D01*
X128888Y19587D01*
X128890Y19502D01*
X128888Y19417D01*
X128882Y19333D01*
X128872Y19249D01*
X128859Y19165D01*
X128841Y19082D01*
X128820Y19000D01*
X128795Y18919D01*
X128766Y18839D01*
X128734Y18761D01*
X128698Y18685D01*
X128658Y18610D01*
X128615Y18537D01*
X128569Y18466D01*
X128520Y18397D01*
X128467Y18330D01*
X128411Y18266D01*
X128353Y18205D01*
X128292Y18147D01*
X128228Y18091D01*
X128161Y18038D01*
X128092Y17989D01*
X128021Y17943D01*
X127948Y17900D01*
X127873Y17860D01*
X127797Y17824D01*
X127719Y17792D01*
X127639Y17763D01*
X127558Y17738D01*
X127476Y17717D01*
X127393Y17699D01*
X127309Y17686D01*
X127225Y17676D01*
X127141Y17670D01*
X127056Y17668D01*
X127056Y17667D02*
X125222Y17667D01*
X127423Y17667D02*
X128891Y14732D01*
X132458Y14732D02*
X134660Y14732D01*
X134734Y14734D01*
X134809Y14740D01*
X134882Y14749D01*
X134956Y14762D01*
X135028Y14779D01*
X135099Y14799D01*
X135170Y14823D01*
X135239Y14851D01*
X135306Y14882D01*
X135372Y14916D01*
X135437Y14954D01*
X135499Y14995D01*
X135559Y15039D01*
X135616Y15086D01*
X135671Y15136D01*
X135724Y15189D01*
X135774Y15244D01*
X135821Y15301D01*
X135865Y15361D01*
X135906Y15423D01*
X135944Y15488D01*
X135978Y15553D01*
X136009Y15621D01*
X136037Y15690D01*
X136061Y15761D01*
X136081Y15832D01*
X136098Y15904D01*
X136111Y15978D01*
X136120Y16051D01*
X136126Y16126D01*
X136128Y16200D01*
X136127Y16200D02*
X136127Y16933D01*
X136128Y16933D02*
X136126Y17007D01*
X136120Y17082D01*
X136111Y17155D01*
X136098Y17229D01*
X136081Y17301D01*
X136061Y17372D01*
X136037Y17443D01*
X136009Y17512D01*
X135978Y17579D01*
X135944Y17645D01*
X135906Y17710D01*
X135865Y17772D01*
X135821Y17832D01*
X135774Y17889D01*
X135724Y17944D01*
X135671Y17997D01*
X135616Y18047D01*
X135559Y18094D01*
X135499Y18138D01*
X135437Y18179D01*
X135372Y18217D01*
X135306Y18251D01*
X135239Y18282D01*
X135170Y18310D01*
X135099Y18334D01*
X135028Y18354D01*
X134956Y18371D01*
X134882Y18384D01*
X134809Y18393D01*
X134734Y18399D01*
X134660Y18401D01*
X132458Y18401D01*
X132458Y21336D01*
X136127Y21336D01*
X143002Y21336D02*
X143002Y14732D01*
X143002Y21336D02*
X144836Y21336D01*
X144921Y21334D01*
X145005Y21328D01*
X145089Y21318D01*
X145173Y21305D01*
X145256Y21287D01*
X145338Y21266D01*
X145419Y21241D01*
X145499Y21212D01*
X145577Y21180D01*
X145653Y21144D01*
X145728Y21104D01*
X145801Y21061D01*
X145872Y21015D01*
X145941Y20966D01*
X146008Y20913D01*
X146072Y20857D01*
X146133Y20799D01*
X146191Y20738D01*
X146247Y20674D01*
X146300Y20607D01*
X146349Y20538D01*
X146395Y20467D01*
X146438Y20394D01*
X146478Y20319D01*
X146514Y20243D01*
X146546Y20165D01*
X146575Y20085D01*
X146600Y20004D01*
X146621Y19922D01*
X146639Y19839D01*
X146652Y19755D01*
X146662Y19671D01*
X146668Y19587D01*
X146670Y19502D01*
X146668Y19417D01*
X146662Y19333D01*
X146652Y19249D01*
X146639Y19165D01*
X146621Y19082D01*
X146600Y19000D01*
X146575Y18919D01*
X146546Y18839D01*
X146514Y18761D01*
X146478Y18685D01*
X146438Y18610D01*
X146395Y18537D01*
X146349Y18466D01*
X146300Y18397D01*
X146247Y18330D01*
X146191Y18266D01*
X146133Y18205D01*
X146072Y18147D01*
X146008Y18091D01*
X145941Y18038D01*
X145872Y17989D01*
X145801Y17943D01*
X145728Y17900D01*
X145653Y17860D01*
X145577Y17824D01*
X145499Y17792D01*
X145419Y17763D01*
X145338Y17738D01*
X145256Y17717D01*
X145173Y17699D01*
X145089Y17686D01*
X145005Y17676D01*
X144921Y17670D01*
X144836Y17668D01*
X144836Y17667D02*
X143002Y17667D01*
X145203Y17667D02*
X146671Y14732D01*
X150238Y18401D02*
X152440Y18401D01*
X152514Y18399D01*
X152589Y18393D01*
X152662Y18384D01*
X152736Y18371D01*
X152808Y18354D01*
X152879Y18334D01*
X152950Y18310D01*
X153019Y18282D01*
X153086Y18251D01*
X153152Y18217D01*
X153217Y18179D01*
X153279Y18138D01*
X153339Y18094D01*
X153396Y18047D01*
X153451Y17997D01*
X153504Y17944D01*
X153554Y17889D01*
X153601Y17832D01*
X153645Y17772D01*
X153686Y17710D01*
X153724Y17645D01*
X153758Y17579D01*
X153789Y17512D01*
X153817Y17443D01*
X153841Y17372D01*
X153861Y17301D01*
X153878Y17229D01*
X153891Y17155D01*
X153900Y17082D01*
X153906Y17007D01*
X153908Y16933D01*
X153907Y16933D02*
X153907Y16566D01*
X153905Y16481D01*
X153899Y16397D01*
X153889Y16313D01*
X153876Y16229D01*
X153858Y16146D01*
X153837Y16064D01*
X153812Y15983D01*
X153783Y15903D01*
X153751Y15825D01*
X153715Y15749D01*
X153675Y15674D01*
X153632Y15601D01*
X153586Y15530D01*
X153537Y15461D01*
X153484Y15394D01*
X153428Y15330D01*
X153370Y15269D01*
X153309Y15211D01*
X153245Y15155D01*
X153178Y15102D01*
X153109Y15053D01*
X153038Y15007D01*
X152965Y14964D01*
X152890Y14924D01*
X152814Y14888D01*
X152736Y14856D01*
X152656Y14827D01*
X152575Y14802D01*
X152493Y14781D01*
X152410Y14763D01*
X152326Y14750D01*
X152242Y14740D01*
X152158Y14734D01*
X152073Y14732D01*
X151988Y14734D01*
X151904Y14740D01*
X151820Y14750D01*
X151736Y14763D01*
X151653Y14781D01*
X151571Y14802D01*
X151490Y14827D01*
X151410Y14856D01*
X151332Y14888D01*
X151256Y14924D01*
X151181Y14964D01*
X151108Y15007D01*
X151037Y15053D01*
X150968Y15102D01*
X150901Y15155D01*
X150837Y15211D01*
X150776Y15269D01*
X150718Y15330D01*
X150662Y15394D01*
X150609Y15461D01*
X150560Y15530D01*
X150514Y15601D01*
X150471Y15674D01*
X150431Y15749D01*
X150395Y15825D01*
X150363Y15903D01*
X150334Y15983D01*
X150309Y16064D01*
X150288Y16146D01*
X150270Y16229D01*
X150257Y16313D01*
X150247Y16397D01*
X150241Y16481D01*
X150239Y16566D01*
X150238Y16566D02*
X150238Y18401D01*
X150239Y18401D02*
X150241Y18508D01*
X150247Y18615D01*
X150257Y18722D01*
X150270Y18828D01*
X150288Y18934D01*
X150309Y19039D01*
X150334Y19143D01*
X150363Y19247D01*
X150396Y19349D01*
X150433Y19449D01*
X150473Y19549D01*
X150517Y19647D01*
X150564Y19743D01*
X150615Y19837D01*
X150669Y19930D01*
X150726Y20020D01*
X150787Y20109D01*
X150851Y20195D01*
X150918Y20278D01*
X150988Y20360D01*
X151061Y20438D01*
X151137Y20514D01*
X151215Y20587D01*
X151297Y20657D01*
X151380Y20724D01*
X151466Y20788D01*
X151555Y20849D01*
X151645Y20906D01*
X151738Y20960D01*
X151832Y21011D01*
X151928Y21058D01*
X152026Y21102D01*
X152126Y21142D01*
X152226Y21179D01*
X152328Y21212D01*
X152432Y21241D01*
X152536Y21266D01*
X152641Y21287D01*
X152747Y21305D01*
X152853Y21318D01*
X152960Y21328D01*
X153067Y21334D01*
X153174Y21336D01*
X159512Y21336D02*
X159512Y14732D01*
X159512Y21336D02*
X161346Y21336D01*
X161431Y21334D01*
X161515Y21328D01*
X161599Y21318D01*
X161683Y21305D01*
X161766Y21287D01*
X161848Y21266D01*
X161929Y21241D01*
X162009Y21212D01*
X162087Y21180D01*
X162163Y21144D01*
X162238Y21104D01*
X162311Y21061D01*
X162382Y21015D01*
X162451Y20966D01*
X162518Y20913D01*
X162582Y20857D01*
X162643Y20799D01*
X162701Y20738D01*
X162757Y20674D01*
X162810Y20607D01*
X162859Y20538D01*
X162905Y20467D01*
X162948Y20394D01*
X162988Y20319D01*
X163024Y20243D01*
X163056Y20165D01*
X163085Y20085D01*
X163110Y20004D01*
X163131Y19922D01*
X163149Y19839D01*
X163162Y19755D01*
X163172Y19671D01*
X163178Y19587D01*
X163180Y19502D01*
X163178Y19417D01*
X163172Y19333D01*
X163162Y19249D01*
X163149Y19165D01*
X163131Y19082D01*
X163110Y19000D01*
X163085Y18919D01*
X163056Y18839D01*
X163024Y18761D01*
X162988Y18685D01*
X162948Y18610D01*
X162905Y18537D01*
X162859Y18466D01*
X162810Y18397D01*
X162757Y18330D01*
X162701Y18266D01*
X162643Y18205D01*
X162582Y18147D01*
X162518Y18091D01*
X162451Y18038D01*
X162382Y17989D01*
X162311Y17943D01*
X162238Y17900D01*
X162163Y17860D01*
X162087Y17824D01*
X162009Y17792D01*
X161929Y17763D01*
X161848Y17738D01*
X161766Y17717D01*
X161683Y17699D01*
X161599Y17686D01*
X161515Y17676D01*
X161431Y17670D01*
X161346Y17668D01*
X161346Y17667D02*
X159512Y17667D01*
X161713Y17667D02*
X163181Y14732D01*
X166748Y20602D02*
X166748Y21336D01*
X170417Y21336D01*
X168583Y14732D01*
X179832Y60452D02*
X179832Y67056D01*
X181666Y67056D01*
X181751Y67054D01*
X181835Y67048D01*
X181919Y67038D01*
X182003Y67025D01*
X182086Y67007D01*
X182168Y66986D01*
X182249Y66961D01*
X182329Y66932D01*
X182407Y66900D01*
X182483Y66864D01*
X182558Y66824D01*
X182631Y66781D01*
X182702Y66735D01*
X182771Y66686D01*
X182838Y66633D01*
X182902Y66577D01*
X182963Y66519D01*
X183021Y66458D01*
X183077Y66394D01*
X183130Y66327D01*
X183179Y66258D01*
X183225Y66187D01*
X183268Y66114D01*
X183308Y66039D01*
X183344Y65963D01*
X183376Y65885D01*
X183405Y65805D01*
X183430Y65724D01*
X183451Y65642D01*
X183469Y65559D01*
X183482Y65475D01*
X183492Y65391D01*
X183498Y65307D01*
X183500Y65222D01*
X183498Y65137D01*
X183492Y65053D01*
X183482Y64969D01*
X183469Y64885D01*
X183451Y64802D01*
X183430Y64720D01*
X183405Y64639D01*
X183376Y64559D01*
X183344Y64481D01*
X183308Y64405D01*
X183268Y64330D01*
X183225Y64257D01*
X183179Y64186D01*
X183130Y64117D01*
X183077Y64050D01*
X183021Y63986D01*
X182963Y63925D01*
X182902Y63867D01*
X182838Y63811D01*
X182771Y63758D01*
X182702Y63709D01*
X182631Y63663D01*
X182558Y63620D01*
X182483Y63580D01*
X182407Y63544D01*
X182329Y63512D01*
X182249Y63483D01*
X182168Y63458D01*
X182086Y63437D01*
X182003Y63419D01*
X181919Y63406D01*
X181835Y63396D01*
X181751Y63390D01*
X181666Y63388D01*
X181666Y63387D02*
X179832Y63387D01*
X182033Y63387D02*
X183501Y60452D01*
X187069Y62286D02*
X187071Y62371D01*
X187077Y62455D01*
X187087Y62539D01*
X187100Y62623D01*
X187118Y62706D01*
X187139Y62788D01*
X187164Y62869D01*
X187193Y62949D01*
X187225Y63027D01*
X187261Y63103D01*
X187301Y63178D01*
X187344Y63251D01*
X187390Y63322D01*
X187439Y63391D01*
X187492Y63458D01*
X187548Y63522D01*
X187606Y63583D01*
X187667Y63641D01*
X187731Y63697D01*
X187798Y63750D01*
X187867Y63799D01*
X187938Y63845D01*
X188011Y63888D01*
X188086Y63928D01*
X188162Y63964D01*
X188240Y63996D01*
X188320Y64025D01*
X188401Y64050D01*
X188483Y64071D01*
X188566Y64089D01*
X188650Y64102D01*
X188734Y64112D01*
X188818Y64118D01*
X188903Y64120D01*
X188988Y64118D01*
X189072Y64112D01*
X189156Y64102D01*
X189240Y64089D01*
X189323Y64071D01*
X189405Y64050D01*
X189486Y64025D01*
X189566Y63996D01*
X189644Y63964D01*
X189720Y63928D01*
X189795Y63888D01*
X189868Y63845D01*
X189939Y63799D01*
X190008Y63750D01*
X190075Y63697D01*
X190139Y63641D01*
X190200Y63583D01*
X190258Y63522D01*
X190314Y63458D01*
X190367Y63391D01*
X190416Y63322D01*
X190462Y63251D01*
X190505Y63178D01*
X190545Y63103D01*
X190581Y63027D01*
X190613Y62949D01*
X190642Y62869D01*
X190667Y62788D01*
X190688Y62706D01*
X190706Y62623D01*
X190719Y62539D01*
X190729Y62455D01*
X190735Y62371D01*
X190737Y62286D01*
X190735Y62201D01*
X190729Y62117D01*
X190719Y62033D01*
X190706Y61949D01*
X190688Y61866D01*
X190667Y61784D01*
X190642Y61703D01*
X190613Y61623D01*
X190581Y61545D01*
X190545Y61469D01*
X190505Y61394D01*
X190462Y61321D01*
X190416Y61250D01*
X190367Y61181D01*
X190314Y61114D01*
X190258Y61050D01*
X190200Y60989D01*
X190139Y60931D01*
X190075Y60875D01*
X190008Y60822D01*
X189939Y60773D01*
X189868Y60727D01*
X189795Y60684D01*
X189720Y60644D01*
X189644Y60608D01*
X189566Y60576D01*
X189486Y60547D01*
X189405Y60522D01*
X189323Y60501D01*
X189240Y60483D01*
X189156Y60470D01*
X189072Y60460D01*
X188988Y60454D01*
X188903Y60452D01*
X188818Y60454D01*
X188734Y60460D01*
X188650Y60470D01*
X188566Y60483D01*
X188483Y60501D01*
X188401Y60522D01*
X188320Y60547D01*
X188240Y60576D01*
X188162Y60608D01*
X188086Y60644D01*
X188011Y60684D01*
X187938Y60727D01*
X187867Y60773D01*
X187798Y60822D01*
X187731Y60875D01*
X187667Y60931D01*
X187606Y60989D01*
X187548Y61050D01*
X187492Y61114D01*
X187439Y61181D01*
X187390Y61250D01*
X187344Y61321D01*
X187301Y61394D01*
X187261Y61469D01*
X187225Y61545D01*
X187193Y61623D01*
X187164Y61703D01*
X187139Y61784D01*
X187118Y61866D01*
X187100Y61949D01*
X187087Y62033D01*
X187077Y62117D01*
X187071Y62201D01*
X187069Y62286D01*
X187435Y65588D02*
X187437Y65664D01*
X187443Y65739D01*
X187452Y65814D01*
X187466Y65888D01*
X187483Y65962D01*
X187505Y66034D01*
X187529Y66106D01*
X187558Y66176D01*
X187590Y66244D01*
X187625Y66311D01*
X187664Y66376D01*
X187707Y66439D01*
X187752Y66499D01*
X187800Y66557D01*
X187852Y66613D01*
X187906Y66665D01*
X187963Y66715D01*
X188022Y66762D01*
X188083Y66806D01*
X188147Y66847D01*
X188213Y66884D01*
X188281Y66918D01*
X188350Y66948D01*
X188421Y66975D01*
X188493Y66998D01*
X188566Y67017D01*
X188640Y67032D01*
X188715Y67044D01*
X188790Y67052D01*
X188865Y67056D01*
X188941Y67056D01*
X189016Y67052D01*
X189091Y67044D01*
X189166Y67032D01*
X189240Y67017D01*
X189313Y66998D01*
X189385Y66975D01*
X189456Y66948D01*
X189525Y66918D01*
X189593Y66884D01*
X189659Y66847D01*
X189723Y66806D01*
X189784Y66762D01*
X189843Y66715D01*
X189900Y66665D01*
X189954Y66613D01*
X190006Y66557D01*
X190054Y66499D01*
X190099Y66439D01*
X190142Y66376D01*
X190181Y66311D01*
X190216Y66244D01*
X190248Y66176D01*
X190277Y66106D01*
X190301Y66034D01*
X190323Y65962D01*
X190340Y65888D01*
X190354Y65814D01*
X190363Y65739D01*
X190369Y65664D01*
X190371Y65588D01*
X190369Y65512D01*
X190363Y65437D01*
X190354Y65362D01*
X190340Y65288D01*
X190323Y65214D01*
X190301Y65142D01*
X190277Y65070D01*
X190248Y65000D01*
X190216Y64932D01*
X190181Y64865D01*
X190142Y64800D01*
X190099Y64737D01*
X190054Y64677D01*
X190006Y64619D01*
X189954Y64563D01*
X189900Y64511D01*
X189843Y64461D01*
X189784Y64414D01*
X189723Y64370D01*
X189659Y64329D01*
X189593Y64292D01*
X189525Y64258D01*
X189456Y64228D01*
X189385Y64201D01*
X189313Y64178D01*
X189240Y64159D01*
X189166Y64144D01*
X189091Y64132D01*
X189016Y64124D01*
X188941Y64120D01*
X188865Y64120D01*
X188790Y64124D01*
X188715Y64132D01*
X188640Y64144D01*
X188566Y64159D01*
X188493Y64178D01*
X188421Y64201D01*
X188350Y64228D01*
X188281Y64258D01*
X188213Y64292D01*
X188147Y64329D01*
X188083Y64370D01*
X188022Y64414D01*
X187963Y64461D01*
X187906Y64511D01*
X187852Y64563D01*
X187800Y64619D01*
X187752Y64677D01*
X187707Y64737D01*
X187664Y64800D01*
X187625Y64865D01*
X187590Y64932D01*
X187558Y65000D01*
X187529Y65070D01*
X187505Y65142D01*
X187483Y65214D01*
X187466Y65288D01*
X187452Y65362D01*
X187443Y65437D01*
X187437Y65512D01*
X187435Y65588D01*
D13*
X87950Y108900D03*
D14*
X12700Y107950D02*
X12700Y95250D01*
X12700Y107950D02*
X19050Y114300D01*
X31750Y114300D02*
X38100Y107950D01*
X19050Y114300D02*
X12700Y120650D01*
X12700Y133350D01*
X19050Y139700D01*
X31750Y139700D02*
X38100Y133350D01*
X38100Y120650D01*
X31750Y114300D01*
X31750Y88900D02*
X19050Y88900D01*
X12700Y95250D01*
X31750Y88900D02*
X38100Y95250D01*
X38100Y107950D01*
X31750Y139700D02*
X19050Y139700D01*
X38100Y82550D02*
X38100Y69850D01*
X31750Y63500D01*
X19050Y63500D02*
X12700Y69850D01*
X31750Y63500D02*
X38100Y57150D01*
X38100Y44450D01*
X31750Y38100D01*
X19050Y38100D02*
X12700Y44450D01*
X12700Y57150D01*
X19050Y63500D01*
X19050Y88900D02*
X31750Y88900D01*
X38100Y82550D01*
X19050Y88900D02*
X12700Y82550D01*
X12700Y69850D01*
X19050Y38100D02*
X31750Y38100D01*
X215900Y120650D02*
X215900Y133350D01*
X215900Y120650D02*
X209550Y114300D01*
X196850Y114300D02*
X190500Y120650D01*
X209550Y114300D02*
X215900Y107950D01*
X215900Y95250D01*
X209550Y88900D01*
X196850Y88900D02*
X190500Y95250D01*
X190500Y107950D01*
X196850Y114300D01*
X196850Y139700D02*
X209550Y139700D01*
X215900Y133350D01*
X196850Y139700D02*
X190500Y133350D01*
X190500Y120650D01*
X196850Y88900D02*
X209550Y88900D01*
X215900Y82550D02*
X215900Y69850D01*
X209550Y63500D01*
X196850Y63500D02*
X190500Y69850D01*
X209550Y63500D02*
X215900Y57150D01*
X215900Y44450D01*
X209550Y38100D01*
X196850Y38100D02*
X190500Y44450D01*
X190500Y57150D01*
X196850Y63500D01*
X196850Y88900D02*
X209550Y88900D01*
X215900Y82550D01*
X196850Y88900D02*
X190500Y82550D01*
X190500Y69850D01*
X196850Y38100D02*
X209550Y38100D01*
M02*
