G04 EAGLE Gerber X2 export*
%TF.Part,Single*%
%TF.FileFunction,Copper,L1,Top,Mixed*%
%TF.FilePolarity,Positive*%
%TF.GenerationSoftware,Autodesk,EAGLE,9.4.0*%
%TF.CreationDate,2019-05-08T17:19:32Z*%
G75*
%MOMM*%
%FSLAX34Y34*%
%LPD*%
%INTop Copper*%
%AMOC8*
5,1,8,0,0,1.08239X$1,22.5*%
G01*
%ADD10R,1.050000X1.080000*%
%ADD11R,1.080000X1.050000*%
%ADD12R,1.435100X4.394200*%
%ADD13R,1.100000X1.000000*%
%ADD14C,0.150000*%
%ADD15R,2.050000X2.050000*%
%ADD16C,1.879600*%
%ADD17C,0.254000*%
%ADD18C,0.756400*%
%ADD19C,0.355600*%
%ADD20C,0.304800*%
%ADD21C,0.406400*%
%ADD22C,0.609600*%

G36*
X200778Y11446D02*
X200778Y11446D01*
X200897Y11453D01*
X200935Y11466D01*
X200976Y11471D01*
X201086Y11514D01*
X201199Y11551D01*
X201234Y11573D01*
X201271Y11588D01*
X201367Y11657D01*
X201468Y11721D01*
X201496Y11751D01*
X201529Y11774D01*
X201605Y11866D01*
X201686Y11953D01*
X201706Y11988D01*
X201731Y12019D01*
X201782Y12127D01*
X201840Y12231D01*
X201850Y12271D01*
X201867Y12307D01*
X201889Y12424D01*
X201919Y12539D01*
X201923Y12599D01*
X201927Y12619D01*
X201925Y12640D01*
X201929Y12700D01*
X201929Y63506D01*
X201926Y63535D01*
X201928Y63564D01*
X201909Y63673D01*
X201907Y63707D01*
X201902Y63723D01*
X201889Y63821D01*
X201879Y63849D01*
X201874Y63878D01*
X201820Y63996D01*
X201772Y64117D01*
X201755Y64141D01*
X201743Y64168D01*
X201662Y64269D01*
X201586Y64374D01*
X201563Y64393D01*
X201544Y64416D01*
X201441Y64494D01*
X201341Y64577D01*
X201314Y64590D01*
X201290Y64607D01*
X201146Y64678D01*
X196725Y66509D01*
X193509Y69725D01*
X191769Y73926D01*
X191769Y74286D01*
X191754Y74404D01*
X191747Y74523D01*
X191734Y74561D01*
X191729Y74602D01*
X191686Y74712D01*
X191649Y74825D01*
X191627Y74860D01*
X191612Y74897D01*
X191543Y74993D01*
X191479Y75094D01*
X191449Y75122D01*
X191426Y75155D01*
X191334Y75231D01*
X191247Y75312D01*
X191212Y75332D01*
X191181Y75357D01*
X191073Y75408D01*
X190969Y75466D01*
X190929Y75476D01*
X190893Y75493D01*
X190776Y75515D01*
X190661Y75545D01*
X190601Y75549D01*
X190581Y75553D01*
X190560Y75551D01*
X190500Y75555D01*
X180252Y75555D01*
X180134Y75540D01*
X180015Y75533D01*
X179977Y75520D01*
X179936Y75515D01*
X179826Y75472D01*
X179713Y75435D01*
X179678Y75413D01*
X179641Y75398D01*
X179545Y75329D01*
X179444Y75265D01*
X179416Y75235D01*
X179383Y75212D01*
X179307Y75120D01*
X179226Y75033D01*
X179206Y74998D01*
X179181Y74967D01*
X179130Y74859D01*
X179072Y74755D01*
X179062Y74715D01*
X179045Y74679D01*
X179023Y74562D01*
X178993Y74447D01*
X178989Y74387D01*
X178985Y74367D01*
X178987Y74346D01*
X178983Y74286D01*
X178983Y73778D01*
X177792Y72587D01*
X169614Y72587D01*
X169516Y72575D01*
X169417Y72572D01*
X169358Y72555D01*
X169298Y72547D01*
X169206Y72511D01*
X169111Y72483D01*
X169059Y72453D01*
X169003Y72430D01*
X168923Y72372D01*
X168837Y72322D01*
X168762Y72256D01*
X168745Y72244D01*
X168737Y72234D01*
X168716Y72216D01*
X168320Y71820D01*
X168235Y71710D01*
X168146Y71603D01*
X168138Y71584D01*
X168125Y71568D01*
X168070Y71441D01*
X168011Y71315D01*
X168007Y71295D01*
X167999Y71276D01*
X167977Y71139D01*
X167951Y71002D01*
X167952Y70982D01*
X167949Y70962D01*
X167962Y70823D01*
X167971Y70685D01*
X167977Y70666D01*
X167979Y70646D01*
X168026Y70514D01*
X168069Y70383D01*
X168080Y70366D01*
X168086Y70346D01*
X168165Y70231D01*
X168239Y70114D01*
X168254Y70100D01*
X168265Y70083D01*
X168369Y69991D01*
X168471Y69896D01*
X168488Y69886D01*
X168503Y69873D01*
X168628Y69809D01*
X168749Y69742D01*
X168769Y69737D01*
X168787Y69728D01*
X168923Y69698D01*
X169057Y69663D01*
X169085Y69661D01*
X169097Y69658D01*
X169118Y69659D01*
X169218Y69653D01*
X177792Y69653D01*
X178983Y68462D01*
X178983Y56778D01*
X177792Y55587D01*
X171282Y55587D01*
X171144Y55570D01*
X171005Y55557D01*
X170986Y55550D01*
X170966Y55547D01*
X170837Y55496D01*
X170706Y55449D01*
X170689Y55438D01*
X170670Y55430D01*
X170558Y55349D01*
X170443Y55271D01*
X170430Y55255D01*
X170413Y55244D01*
X170324Y55136D01*
X170232Y55032D01*
X170223Y55014D01*
X170210Y54999D01*
X170151Y54873D01*
X170088Y54749D01*
X170083Y54729D01*
X170075Y54711D01*
X170049Y54574D01*
X170018Y54439D01*
X170019Y54418D01*
X170015Y54399D01*
X170024Y54260D01*
X170028Y54121D01*
X170033Y54101D01*
X170035Y54081D01*
X170077Y53949D01*
X170116Y53815D01*
X170127Y53798D01*
X170133Y53779D01*
X170207Y53661D01*
X170278Y53541D01*
X170296Y53520D01*
X170303Y53510D01*
X170318Y53496D01*
X170384Y53421D01*
X171363Y52442D01*
X171363Y40758D01*
X170172Y39567D01*
X157488Y39567D01*
X156472Y40583D01*
X156378Y40656D01*
X156289Y40735D01*
X156253Y40753D01*
X156221Y40778D01*
X156112Y40825D01*
X156006Y40879D01*
X155967Y40888D01*
X155929Y40904D01*
X155812Y40923D01*
X155696Y40949D01*
X155655Y40948D01*
X155615Y40954D01*
X155497Y40943D01*
X155378Y40939D01*
X155339Y40928D01*
X155299Y40924D01*
X155187Y40884D01*
X155072Y40851D01*
X155037Y40830D01*
X154999Y40817D01*
X154901Y40750D01*
X154798Y40689D01*
X154753Y40649D01*
X154736Y40638D01*
X154723Y40623D01*
X154677Y40583D01*
X153662Y39567D01*
X140978Y39567D01*
X139962Y40583D01*
X139868Y40656D01*
X139779Y40735D01*
X139743Y40753D01*
X139711Y40778D01*
X139602Y40825D01*
X139496Y40879D01*
X139457Y40888D01*
X139419Y40904D01*
X139302Y40923D01*
X139186Y40949D01*
X139145Y40948D01*
X139105Y40954D01*
X138987Y40943D01*
X138868Y40939D01*
X138829Y40928D01*
X138789Y40924D01*
X138677Y40884D01*
X138562Y40851D01*
X138527Y40830D01*
X138489Y40817D01*
X138391Y40750D01*
X138288Y40689D01*
X138243Y40649D01*
X138226Y40638D01*
X138213Y40623D01*
X138167Y40583D01*
X137152Y39567D01*
X124468Y39567D01*
X123452Y40583D01*
X123358Y40656D01*
X123269Y40735D01*
X123233Y40753D01*
X123201Y40778D01*
X123092Y40825D01*
X122986Y40879D01*
X122947Y40888D01*
X122909Y40904D01*
X122792Y40923D01*
X122676Y40949D01*
X122635Y40948D01*
X122595Y40954D01*
X122477Y40943D01*
X122358Y40939D01*
X122319Y40928D01*
X122279Y40924D01*
X122167Y40884D01*
X122052Y40851D01*
X122017Y40830D01*
X121979Y40817D01*
X121881Y40750D01*
X121778Y40689D01*
X121733Y40649D01*
X121716Y40638D01*
X121703Y40623D01*
X121657Y40583D01*
X120642Y39567D01*
X112558Y39567D01*
X112420Y39550D01*
X112281Y39537D01*
X112262Y39530D01*
X112242Y39527D01*
X112113Y39476D01*
X111982Y39429D01*
X111965Y39418D01*
X111947Y39410D01*
X111834Y39329D01*
X111719Y39251D01*
X111705Y39235D01*
X111689Y39224D01*
X111601Y39117D01*
X111508Y39012D01*
X111499Y38994D01*
X111486Y38979D01*
X111427Y38853D01*
X111364Y38729D01*
X111359Y38709D01*
X111351Y38691D01*
X111325Y38555D01*
X111294Y38419D01*
X111295Y38398D01*
X111291Y38379D01*
X111300Y38240D01*
X111304Y38101D01*
X111310Y38081D01*
X111311Y38061D01*
X111354Y37929D01*
X111392Y37795D01*
X111403Y37778D01*
X111409Y37759D01*
X111483Y37641D01*
X111554Y37521D01*
X111572Y37500D01*
X111579Y37490D01*
X111594Y37476D01*
X111660Y37400D01*
X112056Y37004D01*
X112135Y36944D01*
X112207Y36876D01*
X112260Y36847D01*
X112308Y36810D01*
X112399Y36770D01*
X112485Y36722D01*
X112544Y36707D01*
X112599Y36683D01*
X112697Y36668D01*
X112793Y36643D01*
X112893Y36637D01*
X112914Y36633D01*
X112926Y36635D01*
X112954Y36633D01*
X120642Y36633D01*
X121833Y35442D01*
X121833Y23622D01*
X121848Y23504D01*
X121855Y23385D01*
X121868Y23347D01*
X121873Y23306D01*
X121916Y23196D01*
X121953Y23083D01*
X121975Y23048D01*
X121990Y23011D01*
X122059Y22915D01*
X122123Y22814D01*
X122153Y22786D01*
X122176Y22753D01*
X122268Y22677D01*
X122355Y22596D01*
X122390Y22576D01*
X122421Y22551D01*
X122529Y22500D01*
X122633Y22442D01*
X122673Y22432D01*
X122709Y22415D01*
X122826Y22393D01*
X122941Y22363D01*
X123001Y22359D01*
X123021Y22355D01*
X123042Y22357D01*
X123102Y22353D01*
X134876Y22353D01*
X134974Y22365D01*
X135073Y22368D01*
X135132Y22385D01*
X135192Y22393D01*
X135284Y22429D01*
X135379Y22457D01*
X135431Y22487D01*
X135487Y22510D01*
X135567Y22568D01*
X135653Y22618D01*
X135728Y22684D01*
X135745Y22696D01*
X135753Y22706D01*
X135774Y22724D01*
X139416Y26366D01*
X139476Y26445D01*
X139544Y26517D01*
X139573Y26570D01*
X139610Y26618D01*
X139650Y26709D01*
X139698Y26795D01*
X139713Y26854D01*
X139737Y26909D01*
X139752Y27007D01*
X139777Y27103D01*
X139783Y27203D01*
X139787Y27224D01*
X139785Y27236D01*
X139787Y27264D01*
X139787Y35442D01*
X140978Y36633D01*
X153662Y36633D01*
X154853Y35442D01*
X154853Y23758D01*
X153662Y22567D01*
X145484Y22567D01*
X145386Y22555D01*
X145287Y22552D01*
X145228Y22535D01*
X145168Y22527D01*
X145076Y22491D01*
X144981Y22463D01*
X144929Y22433D01*
X144873Y22410D01*
X144793Y22352D01*
X144707Y22302D01*
X144632Y22236D01*
X144615Y22224D01*
X144607Y22214D01*
X144586Y22196D01*
X138138Y15747D01*
X102570Y15747D01*
X102560Y15746D01*
X102551Y15747D01*
X102402Y15726D01*
X102254Y15707D01*
X102245Y15704D01*
X102236Y15703D01*
X102084Y15651D01*
X100852Y15140D01*
X98538Y15140D01*
X96401Y16025D01*
X94765Y17661D01*
X93880Y19798D01*
X93880Y21298D01*
X93865Y21416D01*
X93858Y21535D01*
X93845Y21573D01*
X93840Y21614D01*
X93797Y21724D01*
X93760Y21837D01*
X93738Y21872D01*
X93723Y21909D01*
X93654Y22005D01*
X93590Y22106D01*
X93560Y22134D01*
X93537Y22167D01*
X93445Y22243D01*
X93358Y22324D01*
X93323Y22344D01*
X93292Y22369D01*
X93184Y22420D01*
X93080Y22478D01*
X93040Y22488D01*
X93004Y22505D01*
X92887Y22527D01*
X92772Y22557D01*
X92712Y22561D01*
X92692Y22565D01*
X92671Y22563D01*
X92611Y22567D01*
X91448Y22567D01*
X90432Y23583D01*
X90338Y23656D01*
X90249Y23735D01*
X90213Y23753D01*
X90181Y23778D01*
X90072Y23825D01*
X89966Y23879D01*
X89927Y23888D01*
X89889Y23904D01*
X89772Y23923D01*
X89656Y23949D01*
X89615Y23948D01*
X89575Y23954D01*
X89457Y23943D01*
X89338Y23939D01*
X89299Y23928D01*
X89259Y23924D01*
X89147Y23884D01*
X89032Y23851D01*
X88997Y23830D01*
X88959Y23817D01*
X88861Y23750D01*
X88758Y23689D01*
X88713Y23649D01*
X88696Y23638D01*
X88683Y23623D01*
X88637Y23583D01*
X87622Y22567D01*
X74938Y22567D01*
X73747Y23758D01*
X73747Y35442D01*
X74938Y36633D01*
X87622Y36633D01*
X88637Y35617D01*
X88732Y35544D01*
X88821Y35465D01*
X88857Y35447D01*
X88889Y35422D01*
X88998Y35375D01*
X89104Y35321D01*
X89143Y35312D01*
X89181Y35296D01*
X89298Y35277D01*
X89414Y35251D01*
X89455Y35252D01*
X89495Y35246D01*
X89613Y35257D01*
X89732Y35261D01*
X89771Y35272D01*
X89811Y35276D01*
X89924Y35316D01*
X90038Y35349D01*
X90072Y35370D01*
X90111Y35383D01*
X90209Y35450D01*
X90312Y35511D01*
X90357Y35551D01*
X90374Y35562D01*
X90387Y35577D01*
X90432Y35617D01*
X91448Y36633D01*
X100022Y36633D01*
X100160Y36650D01*
X100299Y36663D01*
X100318Y36670D01*
X100338Y36673D01*
X100467Y36724D01*
X100598Y36771D01*
X100615Y36782D01*
X100633Y36790D01*
X100746Y36871D01*
X100861Y36949D01*
X100875Y36965D01*
X100891Y36976D01*
X100979Y37083D01*
X101072Y37188D01*
X101081Y37206D01*
X101094Y37221D01*
X101153Y37347D01*
X101216Y37471D01*
X101221Y37491D01*
X101229Y37509D01*
X101255Y37645D01*
X101286Y37781D01*
X101285Y37802D01*
X101289Y37821D01*
X101280Y37960D01*
X101276Y38099D01*
X101270Y38119D01*
X101269Y38139D01*
X101226Y38271D01*
X101188Y38405D01*
X101177Y38422D01*
X101171Y38441D01*
X101097Y38559D01*
X101026Y38679D01*
X101008Y38700D01*
X101001Y38710D01*
X100986Y38724D01*
X100920Y38800D01*
X100524Y39196D01*
X100445Y39256D01*
X100373Y39324D01*
X100320Y39353D01*
X100272Y39390D01*
X100181Y39430D01*
X100095Y39478D01*
X100036Y39493D01*
X99981Y39517D01*
X99883Y39532D01*
X99787Y39557D01*
X99687Y39563D01*
X99666Y39567D01*
X99654Y39565D01*
X99626Y39567D01*
X91448Y39567D01*
X90432Y40583D01*
X90338Y40656D01*
X90249Y40735D01*
X90213Y40753D01*
X90181Y40778D01*
X90072Y40825D01*
X89966Y40879D01*
X89927Y40888D01*
X89889Y40904D01*
X89772Y40923D01*
X89656Y40949D01*
X89615Y40948D01*
X89575Y40954D01*
X89457Y40943D01*
X89338Y40939D01*
X89299Y40928D01*
X89259Y40924D01*
X89147Y40884D01*
X89032Y40851D01*
X88997Y40830D01*
X88959Y40817D01*
X88861Y40750D01*
X88758Y40689D01*
X88713Y40649D01*
X88696Y40638D01*
X88683Y40623D01*
X88637Y40583D01*
X87622Y39567D01*
X74938Y39567D01*
X73923Y40583D01*
X73828Y40656D01*
X73739Y40735D01*
X73703Y40753D01*
X73671Y40778D01*
X73562Y40825D01*
X73456Y40879D01*
X73417Y40888D01*
X73379Y40904D01*
X73262Y40923D01*
X73146Y40949D01*
X73105Y40948D01*
X73065Y40954D01*
X72947Y40943D01*
X72828Y40939D01*
X72789Y40928D01*
X72749Y40924D01*
X72636Y40884D01*
X72522Y40851D01*
X72488Y40830D01*
X72449Y40817D01*
X72351Y40750D01*
X72248Y40689D01*
X72203Y40649D01*
X72186Y40638D01*
X72173Y40623D01*
X72128Y40583D01*
X71112Y39567D01*
X58428Y39567D01*
X57237Y40758D01*
X57237Y52442D01*
X58428Y53633D01*
X71112Y53633D01*
X72128Y52617D01*
X72222Y52544D01*
X72311Y52465D01*
X72347Y52447D01*
X72379Y52422D01*
X72488Y52375D01*
X72594Y52321D01*
X72633Y52312D01*
X72671Y52296D01*
X72788Y52277D01*
X72904Y52251D01*
X72945Y52252D01*
X72985Y52246D01*
X73103Y52257D01*
X73222Y52261D01*
X73261Y52272D01*
X73301Y52276D01*
X73413Y52316D01*
X73528Y52349D01*
X73563Y52370D01*
X73601Y52383D01*
X73699Y52450D01*
X73802Y52511D01*
X73847Y52551D01*
X73864Y52562D01*
X73877Y52577D01*
X73923Y52617D01*
X74938Y53633D01*
X77646Y53633D01*
X77744Y53645D01*
X77843Y53648D01*
X77902Y53665D01*
X77962Y53673D01*
X78054Y53709D01*
X78149Y53737D01*
X78201Y53767D01*
X78257Y53790D01*
X78337Y53848D01*
X78423Y53898D01*
X78498Y53964D01*
X78515Y53976D01*
X78523Y53986D01*
X78544Y54004D01*
X84095Y59556D01*
X84169Y59650D01*
X84247Y59740D01*
X84266Y59776D01*
X84290Y59808D01*
X84338Y59917D01*
X84392Y60023D01*
X84401Y60062D01*
X84417Y60099D01*
X84435Y60217D01*
X84461Y60333D01*
X84460Y60373D01*
X84467Y60413D01*
X84455Y60532D01*
X84452Y60651D01*
X84441Y60690D01*
X84437Y60730D01*
X84396Y60842D01*
X84363Y60957D01*
X84343Y60991D01*
X84329Y61029D01*
X84262Y61128D01*
X84202Y61230D01*
X84162Y61276D01*
X84151Y61293D01*
X84135Y61306D01*
X84095Y61351D01*
X83970Y61476D01*
X83085Y63613D01*
X83085Y65927D01*
X83970Y68064D01*
X85606Y69700D01*
X87743Y70585D01*
X90057Y70585D01*
X92418Y69607D01*
X92446Y69599D01*
X92473Y69585D01*
X92599Y69557D01*
X92725Y69523D01*
X92754Y69522D01*
X92783Y69516D01*
X92913Y69520D01*
X93043Y69518D01*
X93071Y69525D01*
X93101Y69525D01*
X93225Y69562D01*
X93352Y69592D01*
X93378Y69606D01*
X93406Y69614D01*
X93518Y69680D01*
X93633Y69741D01*
X93655Y69760D01*
X93680Y69775D01*
X93801Y69882D01*
X94046Y70126D01*
X94106Y70205D01*
X94174Y70277D01*
X94203Y70330D01*
X94240Y70378D01*
X94280Y70469D01*
X94328Y70555D01*
X94343Y70614D01*
X94367Y70669D01*
X94382Y70767D01*
X94407Y70863D01*
X94413Y70963D01*
X94417Y70983D01*
X94415Y70996D01*
X94417Y71024D01*
X94417Y76553D01*
X96065Y78201D01*
X96101Y78247D01*
X96187Y78228D01*
X96322Y78193D01*
X96350Y78191D01*
X96362Y78188D01*
X96382Y78189D01*
X96482Y78183D01*
X100036Y78183D01*
X100058Y78178D01*
X100095Y78162D01*
X100213Y78143D01*
X100329Y78117D01*
X100370Y78118D01*
X100409Y78112D01*
X100528Y78123D01*
X100647Y78127D01*
X100686Y78138D01*
X100726Y78141D01*
X100838Y78182D01*
X100841Y78183D01*
X105036Y78183D01*
X105058Y78178D01*
X105095Y78162D01*
X105213Y78143D01*
X105329Y78117D01*
X105370Y78118D01*
X105409Y78112D01*
X105528Y78123D01*
X105647Y78127D01*
X105686Y78138D01*
X105726Y78141D01*
X105838Y78182D01*
X105841Y78183D01*
X109853Y78183D01*
X111483Y76553D01*
X111483Y67446D01*
X111495Y67348D01*
X111498Y67249D01*
X111515Y67191D01*
X111523Y67131D01*
X111559Y67039D01*
X111587Y66944D01*
X111617Y66891D01*
X111640Y66835D01*
X111698Y66755D01*
X111748Y66670D01*
X111814Y66594D01*
X111826Y66578D01*
X111836Y66570D01*
X111854Y66549D01*
X112251Y66153D01*
X112360Y66067D01*
X112467Y65979D01*
X112486Y65970D01*
X112502Y65958D01*
X112630Y65902D01*
X112755Y65843D01*
X112775Y65840D01*
X112794Y65831D01*
X112932Y65810D01*
X113068Y65784D01*
X113088Y65785D01*
X113108Y65782D01*
X113247Y65795D01*
X113385Y65803D01*
X113404Y65810D01*
X113424Y65811D01*
X113556Y65859D01*
X113687Y65901D01*
X113705Y65912D01*
X113724Y65919D01*
X113839Y65997D01*
X113956Y66071D01*
X113970Y66086D01*
X113987Y66098D01*
X114079Y66202D01*
X114174Y66303D01*
X114184Y66321D01*
X114197Y66336D01*
X114261Y66460D01*
X114328Y66582D01*
X114333Y66601D01*
X114342Y66619D01*
X114372Y66755D01*
X114407Y66890D01*
X114409Y66918D01*
X114412Y66930D01*
X114411Y66950D01*
X114417Y67050D01*
X114417Y76553D01*
X116047Y78183D01*
X117398Y78183D01*
X117516Y78198D01*
X117635Y78205D01*
X117673Y78218D01*
X117714Y78223D01*
X117824Y78266D01*
X117937Y78303D01*
X117972Y78325D01*
X118009Y78340D01*
X118105Y78409D01*
X118206Y78473D01*
X118234Y78503D01*
X118267Y78526D01*
X118343Y78618D01*
X118424Y78705D01*
X118444Y78740D01*
X118469Y78771D01*
X118520Y78879D01*
X118578Y78983D01*
X118588Y79023D01*
X118605Y79059D01*
X118627Y79176D01*
X118657Y79291D01*
X118661Y79351D01*
X118665Y79371D01*
X118663Y79392D01*
X118667Y79452D01*
X118667Y80986D01*
X118672Y81008D01*
X118688Y81045D01*
X118707Y81163D01*
X118733Y81279D01*
X118732Y81320D01*
X118738Y81359D01*
X118727Y81478D01*
X118723Y81597D01*
X118712Y81636D01*
X118709Y81676D01*
X118668Y81788D01*
X118667Y81791D01*
X118667Y85986D01*
X118672Y86009D01*
X118688Y86046D01*
X118707Y86164D01*
X118733Y86280D01*
X118732Y86320D01*
X118738Y86360D01*
X118727Y86479D01*
X118723Y86598D01*
X118712Y86636D01*
X118708Y86676D01*
X118668Y86789D01*
X118667Y86791D01*
X118667Y90986D01*
X118672Y91008D01*
X118688Y91045D01*
X118707Y91163D01*
X118733Y91279D01*
X118732Y91320D01*
X118738Y91359D01*
X118727Y91478D01*
X118723Y91597D01*
X118712Y91636D01*
X118709Y91676D01*
X118668Y91788D01*
X118667Y91791D01*
X118667Y95803D01*
X120265Y97401D01*
X120342Y97499D01*
X120437Y97478D01*
X120572Y97443D01*
X120600Y97441D01*
X120612Y97438D01*
X120632Y97439D01*
X120732Y97433D01*
X128778Y97433D01*
X128896Y97448D01*
X129015Y97455D01*
X129053Y97468D01*
X129094Y97473D01*
X129204Y97516D01*
X129317Y97553D01*
X129352Y97575D01*
X129389Y97590D01*
X129485Y97659D01*
X129586Y97723D01*
X129614Y97753D01*
X129647Y97776D01*
X129723Y97868D01*
X129804Y97955D01*
X129824Y97990D01*
X129849Y98021D01*
X129900Y98129D01*
X129958Y98233D01*
X129968Y98273D01*
X129985Y98309D01*
X130007Y98426D01*
X130037Y98541D01*
X130041Y98601D01*
X130045Y98621D01*
X130043Y98642D01*
X130047Y98702D01*
X130047Y107072D01*
X130030Y107210D01*
X130017Y107349D01*
X130010Y107368D01*
X130007Y107388D01*
X129956Y107517D01*
X129909Y107648D01*
X129898Y107665D01*
X129890Y107683D01*
X129809Y107796D01*
X129731Y107911D01*
X129715Y107924D01*
X129704Y107941D01*
X129596Y108030D01*
X129492Y108122D01*
X129474Y108131D01*
X129459Y108144D01*
X129333Y108203D01*
X129209Y108266D01*
X129189Y108271D01*
X129171Y108279D01*
X129035Y108305D01*
X128899Y108336D01*
X128878Y108335D01*
X128859Y108339D01*
X128720Y108330D01*
X128581Y108326D01*
X128561Y108320D01*
X128541Y108319D01*
X128409Y108276D01*
X128275Y108238D01*
X128258Y108227D01*
X128239Y108221D01*
X128121Y108147D01*
X128001Y108076D01*
X127980Y108058D01*
X127970Y108051D01*
X127956Y108036D01*
X127881Y107970D01*
X121854Y101944D01*
X121794Y101865D01*
X121726Y101793D01*
X121697Y101740D01*
X121660Y101692D01*
X121620Y101601D01*
X121572Y101515D01*
X121557Y101456D01*
X121533Y101401D01*
X121518Y101303D01*
X121511Y101275D01*
X119835Y99599D01*
X119758Y99501D01*
X119663Y99522D01*
X119528Y99557D01*
X119500Y99559D01*
X119488Y99562D01*
X119468Y99561D01*
X119368Y99567D01*
X116518Y99567D01*
X116423Y99582D01*
X116327Y99607D01*
X116227Y99613D01*
X116206Y99617D01*
X116194Y99615D01*
X116166Y99617D01*
X116047Y99617D01*
X114417Y101247D01*
X114417Y107952D01*
X114400Y108090D01*
X114387Y108229D01*
X114380Y108248D01*
X114377Y108268D01*
X114326Y108397D01*
X114279Y108528D01*
X114268Y108545D01*
X114260Y108563D01*
X114179Y108676D01*
X114101Y108791D01*
X114085Y108804D01*
X114074Y108821D01*
X113966Y108910D01*
X113862Y109002D01*
X113844Y109011D01*
X113829Y109024D01*
X113703Y109083D01*
X113579Y109146D01*
X113559Y109151D01*
X113541Y109159D01*
X113405Y109185D01*
X113269Y109216D01*
X113248Y109215D01*
X113229Y109219D01*
X113090Y109210D01*
X112951Y109206D01*
X112931Y109200D01*
X112911Y109199D01*
X112779Y109156D01*
X112645Y109118D01*
X112628Y109107D01*
X112609Y109101D01*
X112491Y109027D01*
X112371Y108956D01*
X112350Y108938D01*
X112340Y108931D01*
X112326Y108916D01*
X112251Y108850D01*
X111878Y108478D01*
X111818Y108399D01*
X111750Y108327D01*
X111721Y108274D01*
X111684Y108226D01*
X111644Y108135D01*
X111596Y108049D01*
X111581Y107990D01*
X111557Y107935D01*
X111542Y107837D01*
X111517Y107741D01*
X111511Y107641D01*
X111507Y107621D01*
X111509Y107608D01*
X111507Y107580D01*
X111507Y104091D01*
X111493Y104038D01*
X111487Y103938D01*
X111483Y103917D01*
X111485Y103905D01*
X111483Y103877D01*
X111483Y101247D01*
X109853Y99617D01*
X105864Y99617D01*
X105842Y99622D01*
X105805Y99638D01*
X105687Y99657D01*
X105571Y99683D01*
X105530Y99682D01*
X105491Y99688D01*
X105372Y99677D01*
X105253Y99673D01*
X105214Y99662D01*
X105174Y99659D01*
X105062Y99618D01*
X105059Y99617D01*
X100864Y99617D01*
X100842Y99622D01*
X100805Y99638D01*
X100687Y99657D01*
X100571Y99683D01*
X100530Y99682D01*
X100491Y99688D01*
X100372Y99677D01*
X100253Y99673D01*
X100214Y99662D01*
X100174Y99659D01*
X100062Y99618D01*
X100059Y99617D01*
X96482Y99617D01*
X96345Y99600D01*
X96206Y99587D01*
X96187Y99580D01*
X96167Y99577D01*
X96106Y99553D01*
X96065Y99599D01*
X94417Y101247D01*
X94417Y103378D01*
X94402Y103496D01*
X94395Y103615D01*
X94382Y103653D01*
X94377Y103694D01*
X94334Y103804D01*
X94297Y103917D01*
X94275Y103952D01*
X94260Y103989D01*
X94191Y104085D01*
X94127Y104186D01*
X94097Y104214D01*
X94074Y104247D01*
X93982Y104323D01*
X93895Y104404D01*
X93860Y104424D01*
X93829Y104449D01*
X93721Y104500D01*
X93617Y104558D01*
X93577Y104568D01*
X93541Y104585D01*
X93424Y104607D01*
X93309Y104637D01*
X93249Y104641D01*
X93229Y104645D01*
X93208Y104643D01*
X93148Y104647D01*
X81182Y104647D01*
X72897Y112932D01*
X72897Y160118D01*
X74832Y162053D01*
X91538Y162053D01*
X91812Y161778D01*
X91907Y161705D01*
X91996Y161627D01*
X92032Y161608D01*
X92064Y161583D01*
X92173Y161536D01*
X92279Y161482D01*
X92318Y161473D01*
X92356Y161457D01*
X92473Y161438D01*
X92589Y161412D01*
X92630Y161413D01*
X92670Y161407D01*
X92788Y161418D01*
X92907Y161422D01*
X92946Y161433D01*
X92986Y161437D01*
X93098Y161477D01*
X93213Y161510D01*
X93248Y161531D01*
X93286Y161545D01*
X93384Y161611D01*
X93487Y161672D01*
X93532Y161712D01*
X93549Y161723D01*
X93562Y161738D01*
X93607Y161778D01*
X93882Y162053D01*
X111858Y162053D01*
X113793Y160118D01*
X113793Y129032D01*
X113808Y128914D01*
X113815Y128795D01*
X113828Y128757D01*
X113833Y128716D01*
X113876Y128606D01*
X113913Y128493D01*
X113935Y128458D01*
X113950Y128421D01*
X114019Y128325D01*
X114083Y128224D01*
X114113Y128196D01*
X114136Y128163D01*
X114228Y128087D01*
X114315Y128006D01*
X114350Y127986D01*
X114381Y127961D01*
X114489Y127910D01*
X114593Y127852D01*
X114633Y127842D01*
X114669Y127825D01*
X114786Y127803D01*
X114901Y127773D01*
X114961Y127769D01*
X114981Y127765D01*
X115002Y127767D01*
X115062Y127763D01*
X119478Y127763D01*
X120376Y126864D01*
X122927Y124313D01*
X123022Y124240D01*
X123111Y124162D01*
X123147Y124143D01*
X123179Y124118D01*
X123288Y124071D01*
X123394Y124017D01*
X123433Y124008D01*
X123471Y123992D01*
X123588Y123973D01*
X123704Y123947D01*
X123745Y123948D01*
X123785Y123942D01*
X123903Y123953D01*
X124022Y123957D01*
X124061Y123968D01*
X124101Y123972D01*
X124214Y124012D01*
X124328Y124045D01*
X124362Y124066D01*
X124401Y124080D01*
X124499Y124146D01*
X124602Y124207D01*
X124647Y124247D01*
X124664Y124258D01*
X124677Y124273D01*
X124722Y124313D01*
X130946Y130536D01*
X131006Y130615D01*
X131074Y130687D01*
X131103Y130740D01*
X131140Y130788D01*
X131180Y130879D01*
X131228Y130965D01*
X131243Y131024D01*
X131267Y131079D01*
X131282Y131177D01*
X131307Y131273D01*
X131313Y131373D01*
X131317Y131394D01*
X131315Y131406D01*
X131317Y131434D01*
X131317Y167640D01*
X131302Y167758D01*
X131295Y167877D01*
X131282Y167915D01*
X131277Y167956D01*
X131234Y168066D01*
X131197Y168179D01*
X131175Y168214D01*
X131160Y168251D01*
X131091Y168347D01*
X131027Y168448D01*
X130997Y168476D01*
X130974Y168509D01*
X130882Y168585D01*
X130795Y168666D01*
X130760Y168686D01*
X130729Y168711D01*
X130621Y168762D01*
X130517Y168820D01*
X130477Y168830D01*
X130441Y168847D01*
X130324Y168869D01*
X130209Y168899D01*
X130149Y168903D01*
X130129Y168907D01*
X130108Y168905D01*
X130048Y168909D01*
X27940Y168909D01*
X27822Y168894D01*
X27703Y168887D01*
X27665Y168874D01*
X27624Y168869D01*
X27514Y168826D01*
X27401Y168789D01*
X27366Y168767D01*
X27329Y168752D01*
X27233Y168683D01*
X27132Y168619D01*
X27104Y168589D01*
X27071Y168566D01*
X26996Y168474D01*
X26914Y168387D01*
X26894Y168352D01*
X26869Y168321D01*
X26818Y168213D01*
X26760Y168109D01*
X26750Y168069D01*
X26733Y168033D01*
X26711Y167916D01*
X26681Y167801D01*
X26677Y167741D01*
X26673Y167721D01*
X26675Y167700D01*
X26671Y167640D01*
X26671Y163322D01*
X26686Y163204D01*
X26693Y163085D01*
X26706Y163047D01*
X26711Y163006D01*
X26754Y162896D01*
X26791Y162783D01*
X26813Y162748D01*
X26828Y162711D01*
X26897Y162615D01*
X26961Y162514D01*
X26991Y162486D01*
X27014Y162453D01*
X27106Y162377D01*
X27193Y162296D01*
X27228Y162276D01*
X27259Y162251D01*
X27367Y162200D01*
X27471Y162142D01*
X27511Y162132D01*
X27547Y162115D01*
X27664Y162093D01*
X27779Y162063D01*
X27839Y162059D01*
X27859Y162055D01*
X27880Y162057D01*
X27940Y162053D01*
X62328Y162053D01*
X64263Y160118D01*
X64263Y113654D01*
X64275Y113556D01*
X64278Y113457D01*
X64295Y113398D01*
X64303Y113338D01*
X64339Y113246D01*
X64367Y113151D01*
X64397Y113099D01*
X64420Y113043D01*
X64478Y112963D01*
X64528Y112877D01*
X64594Y112802D01*
X64606Y112785D01*
X64616Y112777D01*
X64634Y112756D01*
X78466Y98924D01*
X78545Y98864D01*
X78617Y98796D01*
X78670Y98767D01*
X78718Y98730D01*
X78809Y98690D01*
X78895Y98642D01*
X78954Y98627D01*
X79009Y98603D01*
X79107Y98588D01*
X79203Y98563D01*
X79303Y98557D01*
X79324Y98553D01*
X79336Y98555D01*
X79364Y98553D01*
X83918Y98553D01*
X84770Y97701D01*
X84864Y97628D01*
X84954Y97549D01*
X84990Y97530D01*
X85021Y97506D01*
X85131Y97458D01*
X85237Y97404D01*
X85276Y97395D01*
X85313Y97379D01*
X85431Y97361D01*
X85547Y97335D01*
X85588Y97336D01*
X85627Y97329D01*
X85746Y97341D01*
X85865Y97344D01*
X85904Y97355D01*
X85944Y97359D01*
X86056Y97400D01*
X86171Y97433D01*
X95168Y97433D01*
X95305Y97450D01*
X95444Y97463D01*
X95463Y97470D01*
X95483Y97473D01*
X95544Y97497D01*
X95585Y97451D01*
X97233Y95803D01*
X97233Y91814D01*
X97228Y91792D01*
X97212Y91755D01*
X97193Y91637D01*
X97167Y91521D01*
X97168Y91480D01*
X97162Y91441D01*
X97173Y91322D01*
X97177Y91203D01*
X97188Y91164D01*
X97191Y91124D01*
X97232Y91012D01*
X97233Y91009D01*
X97233Y86814D01*
X97228Y86792D01*
X97212Y86755D01*
X97193Y86637D01*
X97167Y86521D01*
X97168Y86480D01*
X97162Y86441D01*
X97173Y86322D01*
X97177Y86203D01*
X97188Y86164D01*
X97191Y86124D01*
X97232Y86012D01*
X97233Y86009D01*
X97233Y81997D01*
X95585Y80349D01*
X95549Y80303D01*
X95463Y80322D01*
X95328Y80357D01*
X95300Y80359D01*
X95288Y80362D01*
X95268Y80361D01*
X95168Y80367D01*
X86834Y80367D01*
X86736Y80355D01*
X86637Y80352D01*
X86578Y80335D01*
X86518Y80327D01*
X86426Y80291D01*
X86331Y80263D01*
X86279Y80233D01*
X86223Y80210D01*
X86143Y80152D01*
X86057Y80102D01*
X85982Y80036D01*
X85965Y80024D01*
X85957Y80014D01*
X85936Y79996D01*
X79904Y73964D01*
X79844Y73885D01*
X79776Y73813D01*
X79747Y73760D01*
X79710Y73712D01*
X79670Y73621D01*
X79622Y73535D01*
X79607Y73476D01*
X79583Y73421D01*
X79568Y73323D01*
X79543Y73227D01*
X79537Y73127D01*
X79533Y73106D01*
X79535Y73094D01*
X79533Y73066D01*
X79533Y63608D01*
X78342Y62417D01*
X66158Y62417D01*
X64967Y63608D01*
X64967Y76224D01*
X65023Y76343D01*
X65027Y76363D01*
X65035Y76381D01*
X65057Y76519D01*
X65083Y76656D01*
X65082Y76676D01*
X65085Y76696D01*
X65072Y76834D01*
X65063Y76973D01*
X65057Y76992D01*
X65055Y77012D01*
X65008Y77143D01*
X64965Y77275D01*
X64954Y77293D01*
X64948Y77311D01*
X64870Y77426D01*
X64795Y77544D01*
X64780Y77558D01*
X64769Y77575D01*
X64665Y77667D01*
X64563Y77762D01*
X64546Y77772D01*
X64531Y77785D01*
X64407Y77848D01*
X64285Y77916D01*
X64265Y77921D01*
X64247Y77930D01*
X64111Y77960D01*
X63977Y77995D01*
X63949Y77997D01*
X63937Y78000D01*
X63917Y77999D01*
X63816Y78005D01*
X63613Y78005D01*
X61476Y78890D01*
X59840Y80526D01*
X58955Y82663D01*
X58955Y84977D01*
X59538Y86382D01*
X59551Y86430D01*
X59572Y86475D01*
X59592Y86583D01*
X59621Y86689D01*
X59622Y86739D01*
X59632Y86788D01*
X59625Y86897D01*
X59627Y87007D01*
X59615Y87055D01*
X59612Y87105D01*
X59578Y87209D01*
X59552Y87316D01*
X59529Y87360D01*
X59514Y87407D01*
X59455Y87500D01*
X59404Y87597D01*
X59370Y87634D01*
X59344Y87676D01*
X59264Y87751D01*
X59190Y87833D01*
X59148Y87860D01*
X59112Y87894D01*
X59016Y87947D01*
X58924Y88007D01*
X58877Y88024D01*
X58834Y88048D01*
X58727Y88075D01*
X58623Y88111D01*
X58574Y88115D01*
X58526Y88127D01*
X58365Y88137D01*
X48162Y88137D01*
X41147Y95152D01*
X41147Y108596D01*
X41135Y108694D01*
X41132Y108793D01*
X41115Y108852D01*
X41107Y108912D01*
X41071Y109004D01*
X41043Y109099D01*
X41013Y109151D01*
X40990Y109207D01*
X40932Y109287D01*
X40882Y109373D01*
X40816Y109448D01*
X40804Y109465D01*
X40794Y109473D01*
X40776Y109494D01*
X38374Y111896D01*
X38295Y111956D01*
X38223Y112024D01*
X38170Y112053D01*
X38122Y112090D01*
X38031Y112130D01*
X37945Y112178D01*
X37886Y112193D01*
X37831Y112217D01*
X37733Y112232D01*
X37637Y112257D01*
X37537Y112263D01*
X37516Y112267D01*
X37504Y112265D01*
X37476Y112267D01*
X27940Y112267D01*
X27822Y112252D01*
X27703Y112245D01*
X27665Y112232D01*
X27624Y112227D01*
X27514Y112184D01*
X27401Y112147D01*
X27366Y112125D01*
X27329Y112110D01*
X27233Y112041D01*
X27132Y111977D01*
X27104Y111947D01*
X27071Y111924D01*
X26995Y111832D01*
X26914Y111745D01*
X26894Y111710D01*
X26869Y111679D01*
X26818Y111571D01*
X26760Y111467D01*
X26750Y111427D01*
X26733Y111391D01*
X26711Y111274D01*
X26681Y111159D01*
X26677Y111099D01*
X26673Y111079D01*
X26675Y111058D01*
X26671Y110998D01*
X26671Y88894D01*
X26674Y88865D01*
X26672Y88836D01*
X26694Y88707D01*
X26711Y88579D01*
X26721Y88551D01*
X26726Y88522D01*
X26780Y88404D01*
X26828Y88283D01*
X26845Y88259D01*
X26857Y88232D01*
X26938Y88131D01*
X27014Y88026D01*
X27037Y88007D01*
X27056Y87984D01*
X27159Y87906D01*
X27259Y87823D01*
X27286Y87810D01*
X27310Y87793D01*
X27454Y87722D01*
X31875Y85891D01*
X35091Y82675D01*
X36831Y78474D01*
X36831Y73926D01*
X35091Y69725D01*
X31875Y66509D01*
X27454Y64678D01*
X27429Y64664D01*
X27401Y64655D01*
X27291Y64585D01*
X27178Y64521D01*
X27157Y64500D01*
X27132Y64484D01*
X27043Y64390D01*
X26950Y64300D01*
X26934Y64274D01*
X26914Y64253D01*
X26851Y64139D01*
X26783Y64028D01*
X26775Y64000D01*
X26760Y63974D01*
X26728Y63849D01*
X26690Y63724D01*
X26688Y63695D01*
X26681Y63666D01*
X26674Y63553D01*
X26673Y63550D01*
X26673Y63548D01*
X26671Y63506D01*
X26671Y12700D01*
X26686Y12582D01*
X26693Y12463D01*
X26706Y12425D01*
X26711Y12384D01*
X26754Y12274D01*
X26791Y12161D01*
X26813Y12126D01*
X26828Y12089D01*
X26897Y11993D01*
X26961Y11892D01*
X26991Y11864D01*
X27014Y11831D01*
X27106Y11755D01*
X27193Y11674D01*
X27228Y11654D01*
X27259Y11629D01*
X27367Y11578D01*
X27471Y11520D01*
X27511Y11510D01*
X27547Y11493D01*
X27664Y11471D01*
X27779Y11441D01*
X27839Y11437D01*
X27859Y11433D01*
X27880Y11435D01*
X27940Y11431D01*
X200660Y11431D01*
X200778Y11446D01*
G37*
G36*
X135988Y92723D02*
X135988Y92723D01*
X136087Y92726D01*
X136145Y92743D01*
X136206Y92751D01*
X136298Y92787D01*
X136393Y92815D01*
X136445Y92845D01*
X136501Y92868D01*
X136581Y92926D01*
X136667Y92976D01*
X136742Y93042D01*
X136759Y93054D01*
X136766Y93064D01*
X136788Y93083D01*
X141868Y98163D01*
X141928Y98241D01*
X141996Y98313D01*
X142017Y98350D01*
X142038Y98376D01*
X142046Y98393D01*
X142062Y98414D01*
X142102Y98505D01*
X142150Y98591D01*
X142162Y98638D01*
X142174Y98664D01*
X142176Y98677D01*
X142189Y98706D01*
X142204Y98804D01*
X142229Y98899D01*
X142235Y98999D01*
X142239Y99020D01*
X142237Y99032D01*
X142239Y99060D01*
X142239Y103614D01*
X145306Y106681D01*
X176530Y106681D01*
X176628Y106693D01*
X176727Y106696D01*
X176785Y106713D01*
X176846Y106721D01*
X176938Y106757D01*
X177033Y106785D01*
X177085Y106815D01*
X177141Y106838D01*
X177221Y106896D01*
X177307Y106946D01*
X177382Y107012D01*
X177399Y107024D01*
X177406Y107034D01*
X177428Y107053D01*
X184676Y114301D01*
X200660Y114301D01*
X200778Y114316D01*
X200897Y114323D01*
X200935Y114336D01*
X200976Y114341D01*
X201086Y114384D01*
X201199Y114421D01*
X201234Y114443D01*
X201271Y114458D01*
X201367Y114528D01*
X201468Y114591D01*
X201496Y114621D01*
X201529Y114644D01*
X201605Y114736D01*
X201686Y114823D01*
X201706Y114858D01*
X201731Y114889D01*
X201782Y114997D01*
X201840Y115101D01*
X201850Y115141D01*
X201867Y115177D01*
X201889Y115294D01*
X201919Y115409D01*
X201923Y115470D01*
X201927Y115490D01*
X201925Y115510D01*
X201929Y115570D01*
X201929Y167640D01*
X201914Y167758D01*
X201907Y167877D01*
X201894Y167915D01*
X201889Y167956D01*
X201846Y168066D01*
X201809Y168179D01*
X201787Y168214D01*
X201772Y168251D01*
X201703Y168347D01*
X201639Y168448D01*
X201609Y168476D01*
X201586Y168509D01*
X201494Y168585D01*
X201407Y168666D01*
X201372Y168686D01*
X201341Y168711D01*
X201233Y168762D01*
X201129Y168820D01*
X201089Y168830D01*
X201053Y168847D01*
X200936Y168869D01*
X200821Y168899D01*
X200761Y168903D01*
X200741Y168907D01*
X200720Y168905D01*
X200660Y168909D01*
X165100Y168909D01*
X164982Y168894D01*
X164863Y168887D01*
X164825Y168874D01*
X164784Y168869D01*
X164674Y168826D01*
X164561Y168789D01*
X164526Y168767D01*
X164489Y168752D01*
X164393Y168683D01*
X164292Y168619D01*
X164264Y168589D01*
X164231Y168566D01*
X164156Y168474D01*
X164074Y168387D01*
X164054Y168352D01*
X164029Y168321D01*
X163978Y168213D01*
X163920Y168109D01*
X163910Y168069D01*
X163893Y168033D01*
X163871Y167916D01*
X163841Y167801D01*
X163837Y167741D01*
X163833Y167721D01*
X163835Y167700D01*
X163831Y167640D01*
X163831Y132606D01*
X151874Y120649D01*
X143510Y120649D01*
X143412Y120637D01*
X143313Y120634D01*
X143255Y120617D01*
X143194Y120609D01*
X143102Y120573D01*
X143007Y120545D01*
X142955Y120515D01*
X142899Y120492D01*
X142819Y120434D01*
X142733Y120384D01*
X142658Y120318D01*
X142641Y120306D01*
X142634Y120296D01*
X142631Y120294D01*
X142626Y120291D01*
X142624Y120288D01*
X142613Y120278D01*
X132453Y110118D01*
X132392Y110039D01*
X132324Y109967D01*
X132295Y109914D01*
X132258Y109866D01*
X132218Y109775D01*
X132170Y109689D01*
X132155Y109630D01*
X132154Y109627D01*
X132143Y109604D01*
X132142Y109600D01*
X132131Y109574D01*
X132116Y109476D01*
X132091Y109381D01*
X132086Y109307D01*
X132083Y109292D01*
X132084Y109278D01*
X132081Y109260D01*
X132083Y109248D01*
X132081Y109220D01*
X132081Y93980D01*
X132096Y93862D01*
X132103Y93743D01*
X132116Y93705D01*
X132121Y93664D01*
X132164Y93554D01*
X132201Y93441D01*
X132223Y93406D01*
X132238Y93369D01*
X132308Y93273D01*
X132371Y93172D01*
X132401Y93144D01*
X132424Y93111D01*
X132516Y93036D01*
X132603Y92954D01*
X132638Y92934D01*
X132669Y92909D01*
X132777Y92858D01*
X132881Y92800D01*
X132921Y92790D01*
X132957Y92773D01*
X133074Y92751D01*
X133189Y92721D01*
X133250Y92717D01*
X133270Y92713D01*
X133290Y92715D01*
X133350Y92711D01*
X135890Y92711D01*
X135988Y92723D01*
G37*
G36*
X78838Y90183D02*
X78838Y90183D01*
X78937Y90186D01*
X78995Y90203D01*
X79056Y90211D01*
X79148Y90247D01*
X79243Y90275D01*
X79295Y90305D01*
X79351Y90328D01*
X79431Y90386D01*
X79517Y90436D01*
X79592Y90502D01*
X79609Y90514D01*
X79616Y90524D01*
X79638Y90543D01*
X83448Y94353D01*
X83533Y94462D01*
X83621Y94569D01*
X83630Y94588D01*
X83642Y94604D01*
X83698Y94732D01*
X83757Y94857D01*
X83761Y94877D01*
X83769Y94896D01*
X83791Y95034D01*
X83817Y95170D01*
X83815Y95190D01*
X83819Y95210D01*
X83806Y95349D01*
X83797Y95487D01*
X83791Y95506D01*
X83789Y95526D01*
X83742Y95658D01*
X83699Y95789D01*
X83688Y95807D01*
X83681Y95826D01*
X83603Y95941D01*
X83529Y96058D01*
X83514Y96072D01*
X83503Y96089D01*
X83399Y96181D01*
X83297Y96276D01*
X83279Y96286D01*
X83264Y96299D01*
X83141Y96362D01*
X83019Y96430D01*
X82999Y96435D01*
X82981Y96444D01*
X82845Y96474D01*
X82711Y96509D01*
X82683Y96511D01*
X82671Y96514D01*
X82650Y96513D01*
X82550Y96519D01*
X79532Y96519D01*
X79414Y96504D01*
X79295Y96497D01*
X79257Y96484D01*
X79216Y96479D01*
X79106Y96436D01*
X78993Y96399D01*
X78958Y96377D01*
X78921Y96362D01*
X78825Y96293D01*
X78724Y96229D01*
X78696Y96199D01*
X78663Y96176D01*
X78587Y96084D01*
X78506Y95997D01*
X78486Y95962D01*
X78461Y95931D01*
X78410Y95823D01*
X78352Y95719D01*
X78342Y95679D01*
X78325Y95643D01*
X78303Y95526D01*
X78273Y95411D01*
X78270Y95365D01*
X77072Y94167D01*
X64888Y94167D01*
X63697Y95358D01*
X63697Y107842D01*
X64288Y108432D01*
X64361Y108526D01*
X64439Y108616D01*
X64458Y108652D01*
X64483Y108684D01*
X64530Y108793D01*
X64584Y108899D01*
X64593Y108938D01*
X64609Y108975D01*
X64628Y109093D01*
X64654Y109209D01*
X64652Y109250D01*
X64659Y109290D01*
X64648Y109408D01*
X64644Y109527D01*
X64633Y109566D01*
X64629Y109606D01*
X64589Y109718D01*
X64556Y109833D01*
X64535Y109867D01*
X64521Y109905D01*
X64455Y110004D01*
X64394Y110107D01*
X64354Y110152D01*
X64343Y110169D01*
X64328Y110182D01*
X64288Y110227D01*
X62229Y112286D01*
X62229Y158750D01*
X62214Y158868D01*
X62207Y158987D01*
X62194Y159025D01*
X62189Y159066D01*
X62146Y159176D01*
X62109Y159289D01*
X62087Y159324D01*
X62072Y159361D01*
X62003Y159457D01*
X61939Y159558D01*
X61909Y159586D01*
X61886Y159619D01*
X61794Y159695D01*
X61707Y159776D01*
X61672Y159796D01*
X61641Y159821D01*
X61533Y159872D01*
X61429Y159930D01*
X61389Y159940D01*
X61353Y159957D01*
X61236Y159979D01*
X61121Y160009D01*
X61061Y160013D01*
X61041Y160017D01*
X61020Y160015D01*
X60960Y160019D01*
X27940Y160019D01*
X27822Y160004D01*
X27703Y159997D01*
X27665Y159984D01*
X27624Y159979D01*
X27514Y159936D01*
X27401Y159899D01*
X27366Y159877D01*
X27329Y159862D01*
X27233Y159793D01*
X27132Y159729D01*
X27104Y159699D01*
X27071Y159676D01*
X26996Y159584D01*
X26914Y159497D01*
X26894Y159462D01*
X26869Y159431D01*
X26818Y159323D01*
X26760Y159219D01*
X26750Y159179D01*
X26733Y159143D01*
X26711Y159026D01*
X26681Y158911D01*
X26677Y158851D01*
X26673Y158831D01*
X26675Y158810D01*
X26673Y158791D01*
X26671Y158750D01*
X26671Y115570D01*
X26686Y115452D01*
X26693Y115333D01*
X26706Y115295D01*
X26711Y115254D01*
X26754Y115144D01*
X26791Y115031D01*
X26813Y114996D01*
X26828Y114959D01*
X26898Y114863D01*
X26961Y114762D01*
X26991Y114734D01*
X27014Y114701D01*
X27106Y114626D01*
X27193Y114544D01*
X27228Y114524D01*
X27259Y114499D01*
X27367Y114448D01*
X27471Y114390D01*
X27511Y114380D01*
X27547Y114363D01*
X27664Y114341D01*
X27779Y114311D01*
X27840Y114307D01*
X27860Y114303D01*
X27880Y114305D01*
X27940Y114301D01*
X38844Y114301D01*
X43181Y109964D01*
X43181Y96520D01*
X43193Y96422D01*
X43196Y96323D01*
X43205Y96291D01*
X43206Y96280D01*
X43214Y96255D01*
X43221Y96204D01*
X43257Y96112D01*
X43285Y96017D01*
X43299Y95992D01*
X43304Y95978D01*
X43321Y95951D01*
X43338Y95909D01*
X43396Y95829D01*
X43446Y95743D01*
X43469Y95718D01*
X43474Y95709D01*
X43487Y95697D01*
X43512Y95668D01*
X43524Y95651D01*
X43534Y95644D01*
X43553Y95623D01*
X48633Y90543D01*
X48711Y90482D01*
X48783Y90414D01*
X48836Y90385D01*
X48884Y90348D01*
X48975Y90308D01*
X49061Y90260D01*
X49120Y90245D01*
X49176Y90221D01*
X49274Y90206D01*
X49369Y90181D01*
X49469Y90175D01*
X49490Y90171D01*
X49502Y90173D01*
X49530Y90171D01*
X78740Y90171D01*
X78838Y90183D01*
G37*
G36*
X161154Y74435D02*
X161154Y74435D01*
X161253Y74438D01*
X161312Y74455D01*
X161372Y74463D01*
X161464Y74499D01*
X161559Y74527D01*
X161611Y74557D01*
X161667Y74580D01*
X161747Y74638D01*
X161833Y74688D01*
X161908Y74754D01*
X161925Y74766D01*
X161933Y74776D01*
X161954Y74794D01*
X163546Y76386D01*
X163606Y76465D01*
X163674Y76537D01*
X163703Y76590D01*
X163740Y76638D01*
X163780Y76729D01*
X163828Y76815D01*
X163843Y76874D01*
X163867Y76929D01*
X163882Y77027D01*
X163907Y77123D01*
X163913Y77223D01*
X163917Y77244D01*
X163915Y77256D01*
X163917Y77284D01*
X163917Y85462D01*
X165108Y86653D01*
X177792Y86653D01*
X178983Y85462D01*
X178983Y84954D01*
X178998Y84836D01*
X179005Y84717D01*
X179018Y84679D01*
X179023Y84638D01*
X179066Y84528D01*
X179103Y84415D01*
X179125Y84380D01*
X179140Y84343D01*
X179209Y84247D01*
X179273Y84146D01*
X179303Y84118D01*
X179326Y84085D01*
X179418Y84009D01*
X179505Y83928D01*
X179540Y83908D01*
X179571Y83883D01*
X179679Y83832D01*
X179783Y83774D01*
X179823Y83764D01*
X179859Y83747D01*
X179976Y83725D01*
X180091Y83695D01*
X180151Y83691D01*
X180171Y83687D01*
X180192Y83689D01*
X180252Y83685D01*
X193994Y83685D01*
X194092Y83697D01*
X194191Y83700D01*
X194249Y83717D01*
X194309Y83725D01*
X194401Y83761D01*
X194496Y83789D01*
X194548Y83819D01*
X194605Y83842D01*
X194685Y83900D01*
X194770Y83950D01*
X194845Y84016D01*
X194862Y84028D01*
X194870Y84038D01*
X194891Y84056D01*
X196725Y85891D01*
X201146Y87722D01*
X201171Y87736D01*
X201199Y87745D01*
X201309Y87815D01*
X201422Y87879D01*
X201443Y87900D01*
X201468Y87916D01*
X201557Y88010D01*
X201650Y88100D01*
X201666Y88126D01*
X201686Y88147D01*
X201749Y88261D01*
X201817Y88372D01*
X201825Y88400D01*
X201840Y88426D01*
X201872Y88551D01*
X201910Y88676D01*
X201912Y88705D01*
X201919Y88734D01*
X201929Y88894D01*
X201929Y110998D01*
X201914Y111116D01*
X201907Y111235D01*
X201894Y111273D01*
X201889Y111314D01*
X201846Y111424D01*
X201809Y111537D01*
X201787Y111572D01*
X201772Y111609D01*
X201703Y111705D01*
X201639Y111806D01*
X201609Y111834D01*
X201586Y111867D01*
X201494Y111943D01*
X201407Y112024D01*
X201372Y112044D01*
X201341Y112069D01*
X201233Y112120D01*
X201129Y112178D01*
X201089Y112188D01*
X201053Y112205D01*
X200936Y112227D01*
X200821Y112257D01*
X200761Y112261D01*
X200741Y112265D01*
X200720Y112263D01*
X200660Y112267D01*
X186044Y112267D01*
X185946Y112255D01*
X185847Y112252D01*
X185788Y112235D01*
X185728Y112227D01*
X185636Y112191D01*
X185541Y112163D01*
X185489Y112133D01*
X185433Y112110D01*
X185353Y112052D01*
X185267Y112002D01*
X185192Y111936D01*
X185175Y111924D01*
X185167Y111914D01*
X185146Y111896D01*
X177898Y104647D01*
X146674Y104647D01*
X146576Y104635D01*
X146477Y104632D01*
X146418Y104615D01*
X146358Y104607D01*
X146266Y104571D01*
X146171Y104543D01*
X146119Y104513D01*
X146063Y104490D01*
X145983Y104432D01*
X145897Y104382D01*
X145822Y104316D01*
X145805Y104304D01*
X145797Y104294D01*
X145776Y104276D01*
X144644Y103144D01*
X144584Y103065D01*
X144516Y102993D01*
X144487Y102940D01*
X144450Y102892D01*
X144410Y102801D01*
X144362Y102715D01*
X144347Y102656D01*
X144323Y102601D01*
X144308Y102503D01*
X144283Y102407D01*
X144277Y102307D01*
X144273Y102286D01*
X144275Y102274D01*
X144273Y102246D01*
X144273Y97692D01*
X140696Y94116D01*
X138918Y92338D01*
X138845Y92243D01*
X138767Y92154D01*
X138748Y92118D01*
X138723Y92086D01*
X138676Y91977D01*
X138622Y91871D01*
X138613Y91832D01*
X138597Y91794D01*
X138578Y91677D01*
X138552Y91561D01*
X138553Y91520D01*
X138547Y91480D01*
X138558Y91362D01*
X138562Y91243D01*
X138573Y91204D01*
X138577Y91164D01*
X138617Y91051D01*
X138650Y90937D01*
X138671Y90903D01*
X138685Y90864D01*
X138751Y90766D01*
X138812Y90663D01*
X138852Y90618D01*
X138863Y90601D01*
X138878Y90588D01*
X138918Y90543D01*
X144273Y85188D01*
X144273Y78094D01*
X144285Y77996D01*
X144288Y77897D01*
X144305Y77838D01*
X144313Y77778D01*
X144349Y77686D01*
X144377Y77591D01*
X144407Y77539D01*
X144430Y77483D01*
X144488Y77403D01*
X144538Y77317D01*
X144604Y77242D01*
X144616Y77225D01*
X144626Y77217D01*
X144644Y77196D01*
X147046Y74794D01*
X147125Y74734D01*
X147197Y74666D01*
X147250Y74637D01*
X147298Y74600D01*
X147389Y74560D01*
X147475Y74512D01*
X147534Y74497D01*
X147589Y74473D01*
X147687Y74458D01*
X147783Y74433D01*
X147883Y74427D01*
X147904Y74423D01*
X147916Y74425D01*
X147944Y74423D01*
X161056Y74423D01*
X161154Y74435D01*
G37*
G36*
X118168Y101728D02*
X118168Y101728D01*
X118307Y101732D01*
X118327Y101738D01*
X118347Y101739D01*
X118479Y101782D01*
X118613Y101820D01*
X118630Y101831D01*
X118649Y101837D01*
X118767Y101911D01*
X118887Y101982D01*
X118908Y102000D01*
X118918Y102007D01*
X118932Y102022D01*
X119008Y102088D01*
X119242Y102322D01*
X119267Y102337D01*
X119323Y102360D01*
X119403Y102418D01*
X119489Y102468D01*
X119564Y102534D01*
X119581Y102546D01*
X119588Y102556D01*
X119609Y102574D01*
X140226Y123191D01*
X148590Y123191D01*
X148688Y123203D01*
X148787Y123206D01*
X148845Y123223D01*
X148906Y123231D01*
X148998Y123267D01*
X149093Y123295D01*
X149145Y123325D01*
X149201Y123348D01*
X149281Y123406D01*
X149367Y123456D01*
X149442Y123522D01*
X149459Y123534D01*
X149466Y123544D01*
X149488Y123563D01*
X152028Y126103D01*
X152088Y126181D01*
X152156Y126253D01*
X152185Y126306D01*
X152222Y126354D01*
X152262Y126445D01*
X152310Y126531D01*
X152325Y126590D01*
X152349Y126646D01*
X152364Y126744D01*
X152389Y126839D01*
X152395Y126939D01*
X152399Y126960D01*
X152397Y126972D01*
X152399Y127000D01*
X152399Y167640D01*
X152384Y167758D01*
X152377Y167877D01*
X152364Y167915D01*
X152359Y167956D01*
X152316Y168066D01*
X152279Y168179D01*
X152257Y168214D01*
X152242Y168251D01*
X152173Y168347D01*
X152109Y168448D01*
X152079Y168476D01*
X152056Y168509D01*
X151964Y168585D01*
X151877Y168666D01*
X151842Y168686D01*
X151811Y168711D01*
X151703Y168762D01*
X151599Y168820D01*
X151559Y168830D01*
X151523Y168847D01*
X151406Y168869D01*
X151291Y168899D01*
X151231Y168903D01*
X151211Y168907D01*
X151190Y168905D01*
X151130Y168909D01*
X134620Y168909D01*
X134502Y168894D01*
X134383Y168887D01*
X134345Y168874D01*
X134304Y168869D01*
X134194Y168826D01*
X134081Y168789D01*
X134046Y168767D01*
X134009Y168752D01*
X133913Y168683D01*
X133812Y168619D01*
X133784Y168589D01*
X133751Y168566D01*
X133676Y168474D01*
X133594Y168387D01*
X133574Y168352D01*
X133549Y168321D01*
X133498Y168213D01*
X133440Y168109D01*
X133430Y168069D01*
X133413Y168033D01*
X133391Y167916D01*
X133361Y167801D01*
X133357Y167741D01*
X133353Y167721D01*
X133355Y167700D01*
X133351Y167640D01*
X133351Y130066D01*
X117213Y113928D01*
X117152Y113849D01*
X117084Y113777D01*
X117055Y113724D01*
X117018Y113676D01*
X116978Y113585D01*
X116930Y113499D01*
X116915Y113440D01*
X116891Y113384D01*
X116876Y113286D01*
X116851Y113191D01*
X116845Y113091D01*
X116841Y113070D01*
X116843Y113058D01*
X116841Y113030D01*
X116841Y106680D01*
X116853Y106586D01*
X116855Y106492D01*
X116872Y106429D01*
X116881Y106364D01*
X116915Y106277D01*
X116941Y106186D01*
X116974Y106129D01*
X116998Y106069D01*
X117014Y106047D01*
X116978Y105965D01*
X116930Y105879D01*
X116915Y105820D01*
X116891Y105764D01*
X116876Y105666D01*
X116851Y105571D01*
X116845Y105471D01*
X116841Y105450D01*
X116843Y105438D01*
X116841Y105410D01*
X116841Y102986D01*
X116858Y102848D01*
X116871Y102709D01*
X116878Y102690D01*
X116881Y102670D01*
X116932Y102541D01*
X116979Y102410D01*
X116990Y102393D01*
X116998Y102375D01*
X117079Y102262D01*
X117157Y102147D01*
X117173Y102134D01*
X117184Y102117D01*
X117292Y102028D01*
X117396Y101936D01*
X117414Y101927D01*
X117429Y101914D01*
X117555Y101855D01*
X117679Y101792D01*
X117699Y101787D01*
X117717Y101779D01*
X117853Y101753D01*
X117989Y101722D01*
X118010Y101723D01*
X118030Y101719D01*
X118168Y101728D01*
G37*
G36*
X97908Y106696D02*
X97908Y106696D01*
X98027Y106703D01*
X98065Y106716D01*
X98106Y106721D01*
X98216Y106764D01*
X98329Y106801D01*
X98364Y106823D01*
X98401Y106838D01*
X98497Y106908D01*
X98598Y106971D01*
X98626Y107001D01*
X98659Y107024D01*
X98735Y107116D01*
X98816Y107203D01*
X98836Y107238D01*
X98861Y107269D01*
X98912Y107377D01*
X98970Y107481D01*
X98980Y107521D01*
X98997Y107557D01*
X99019Y107674D01*
X99049Y107789D01*
X99053Y107850D01*
X99057Y107870D01*
X99055Y107890D01*
X99059Y107950D01*
X99059Y110490D01*
X99047Y110588D01*
X99044Y110687D01*
X99038Y110707D01*
X99037Y110725D01*
X99025Y110763D01*
X99019Y110806D01*
X98983Y110898D01*
X98955Y110993D01*
X98944Y111012D01*
X98939Y111028D01*
X98919Y111060D01*
X98902Y111101D01*
X98844Y111181D01*
X98794Y111267D01*
X98772Y111292D01*
X98769Y111297D01*
X98762Y111303D01*
X98728Y111342D01*
X98716Y111359D01*
X98706Y111366D01*
X98688Y111388D01*
X91439Y118636D01*
X91439Y158750D01*
X91424Y158868D01*
X91417Y158987D01*
X91404Y159025D01*
X91399Y159066D01*
X91356Y159176D01*
X91319Y159289D01*
X91297Y159324D01*
X91282Y159361D01*
X91213Y159457D01*
X91149Y159558D01*
X91119Y159586D01*
X91096Y159619D01*
X91004Y159695D01*
X90917Y159776D01*
X90882Y159796D01*
X90851Y159821D01*
X90743Y159872D01*
X90639Y159930D01*
X90599Y159940D01*
X90563Y159957D01*
X90446Y159979D01*
X90331Y160009D01*
X90271Y160013D01*
X90251Y160017D01*
X90230Y160015D01*
X90170Y160019D01*
X76200Y160019D01*
X76082Y160004D01*
X75963Y159997D01*
X75925Y159984D01*
X75884Y159979D01*
X75774Y159936D01*
X75661Y159899D01*
X75626Y159877D01*
X75589Y159862D01*
X75493Y159793D01*
X75392Y159729D01*
X75364Y159699D01*
X75331Y159676D01*
X75256Y159584D01*
X75174Y159497D01*
X75154Y159462D01*
X75129Y159431D01*
X75078Y159323D01*
X75020Y159219D01*
X75010Y159179D01*
X74993Y159143D01*
X74971Y159026D01*
X74941Y158911D01*
X74937Y158851D01*
X74933Y158831D01*
X74935Y158810D01*
X74934Y158806D01*
X74933Y158801D01*
X74934Y158795D01*
X74931Y158750D01*
X74931Y114300D01*
X74943Y114202D01*
X74946Y114103D01*
X74956Y114068D01*
X74957Y114059D01*
X74964Y114037D01*
X74971Y113984D01*
X75007Y113892D01*
X75035Y113797D01*
X75050Y113770D01*
X75055Y113757D01*
X75070Y113732D01*
X75088Y113689D01*
X75146Y113609D01*
X75196Y113523D01*
X75220Y113497D01*
X75225Y113488D01*
X75237Y113477D01*
X75262Y113448D01*
X75274Y113431D01*
X75284Y113424D01*
X75303Y113403D01*
X81653Y107053D01*
X81731Y106992D01*
X81803Y106924D01*
X81856Y106895D01*
X81904Y106858D01*
X81995Y106818D01*
X82081Y106770D01*
X82140Y106755D01*
X82196Y106731D01*
X82294Y106716D01*
X82389Y106691D01*
X82489Y106685D01*
X82510Y106681D01*
X82522Y106683D01*
X82550Y106681D01*
X97790Y106681D01*
X97908Y106696D01*
G37*
G36*
X102988Y111776D02*
X102988Y111776D01*
X103107Y111783D01*
X103145Y111796D01*
X103186Y111801D01*
X103296Y111844D01*
X103409Y111881D01*
X103444Y111903D01*
X103481Y111918D01*
X103577Y111988D01*
X103678Y112051D01*
X103706Y112081D01*
X103739Y112104D01*
X103815Y112196D01*
X103896Y112283D01*
X103916Y112318D01*
X103941Y112349D01*
X103992Y112457D01*
X104050Y112561D01*
X104060Y112601D01*
X104077Y112637D01*
X104099Y112754D01*
X104129Y112869D01*
X104133Y112930D01*
X104137Y112950D01*
X104135Y112970D01*
X104138Y113009D01*
X106308Y115179D01*
X106368Y115257D01*
X106436Y115329D01*
X106465Y115382D01*
X106502Y115430D01*
X106542Y115521D01*
X106590Y115608D01*
X106605Y115666D01*
X106629Y115722D01*
X106644Y115820D01*
X106669Y115915D01*
X106675Y116016D01*
X106679Y116036D01*
X106677Y116048D01*
X106679Y116076D01*
X106679Y118854D01*
X107578Y119753D01*
X107638Y119831D01*
X107706Y119903D01*
X107727Y119941D01*
X107747Y119965D01*
X107754Y119980D01*
X107772Y120004D01*
X107812Y120095D01*
X107860Y120181D01*
X107873Y120232D01*
X107882Y120253D01*
X107884Y120262D01*
X107899Y120296D01*
X107914Y120394D01*
X107939Y120489D01*
X107945Y120589D01*
X107949Y120610D01*
X107947Y120622D01*
X107949Y120650D01*
X107949Y122664D01*
X111388Y126103D01*
X111448Y126181D01*
X111516Y126253D01*
X111538Y126293D01*
X111553Y126311D01*
X111559Y126323D01*
X111582Y126354D01*
X111622Y126445D01*
X111670Y126531D01*
X111685Y126590D01*
X111688Y126597D01*
X111689Y126599D01*
X111709Y126646D01*
X111724Y126744D01*
X111749Y126839D01*
X111755Y126939D01*
X111759Y126960D01*
X111757Y126972D01*
X111759Y127000D01*
X111759Y158750D01*
X111744Y158868D01*
X111737Y158987D01*
X111724Y159025D01*
X111719Y159066D01*
X111676Y159176D01*
X111639Y159289D01*
X111617Y159324D01*
X111602Y159361D01*
X111533Y159457D01*
X111469Y159558D01*
X111439Y159586D01*
X111416Y159619D01*
X111324Y159695D01*
X111237Y159776D01*
X111202Y159796D01*
X111171Y159821D01*
X111063Y159872D01*
X110959Y159930D01*
X110919Y159940D01*
X110883Y159957D01*
X110766Y159979D01*
X110651Y160009D01*
X110591Y160013D01*
X110571Y160017D01*
X110550Y160015D01*
X110490Y160019D01*
X95250Y160019D01*
X95132Y160004D01*
X95013Y159997D01*
X94975Y159984D01*
X94934Y159979D01*
X94824Y159936D01*
X94711Y159899D01*
X94676Y159877D01*
X94639Y159862D01*
X94543Y159793D01*
X94442Y159729D01*
X94414Y159699D01*
X94381Y159676D01*
X94306Y159584D01*
X94224Y159497D01*
X94204Y159462D01*
X94179Y159431D01*
X94128Y159323D01*
X94070Y159219D01*
X94060Y159179D01*
X94043Y159143D01*
X94021Y159026D01*
X93991Y158911D01*
X93987Y158851D01*
X93983Y158831D01*
X93985Y158810D01*
X93983Y158803D01*
X93984Y158797D01*
X93981Y158750D01*
X93981Y120650D01*
X93993Y120552D01*
X93996Y120453D01*
X94007Y120415D01*
X94008Y120409D01*
X94014Y120390D01*
X94021Y120334D01*
X94057Y120242D01*
X94085Y120147D01*
X94102Y120118D01*
X94106Y120106D01*
X94120Y120083D01*
X94138Y120039D01*
X94196Y119959D01*
X94246Y119873D01*
X94271Y119845D01*
X94276Y119837D01*
X94288Y119826D01*
X94312Y119798D01*
X94324Y119781D01*
X94334Y119774D01*
X94353Y119753D01*
X100331Y113774D01*
X100331Y113030D01*
X100346Y112912D01*
X100353Y112793D01*
X100366Y112755D01*
X100371Y112714D01*
X100414Y112604D01*
X100451Y112491D01*
X100473Y112456D01*
X100488Y112419D01*
X100558Y112323D01*
X100621Y112222D01*
X100651Y112194D01*
X100674Y112161D01*
X100766Y112086D01*
X100853Y112004D01*
X100888Y111984D01*
X100919Y111959D01*
X101027Y111908D01*
X101131Y111850D01*
X101171Y111840D01*
X101207Y111823D01*
X101324Y111801D01*
X101439Y111771D01*
X101500Y111767D01*
X101520Y111763D01*
X101540Y111765D01*
X101600Y111761D01*
X102870Y111761D01*
X102988Y111776D01*
G37*
G36*
X108928Y110503D02*
X108928Y110503D01*
X109027Y110506D01*
X109085Y110523D01*
X109145Y110531D01*
X109237Y110567D01*
X109332Y110595D01*
X109385Y110625D01*
X109441Y110648D01*
X109521Y110706D01*
X109606Y110756D01*
X109682Y110822D01*
X109698Y110834D01*
X109706Y110844D01*
X109727Y110863D01*
X111047Y112183D01*
X112182Y112183D01*
X112280Y112195D01*
X112379Y112198D01*
X112437Y112215D01*
X112498Y112223D01*
X112590Y112259D01*
X112685Y112287D01*
X112737Y112317D01*
X112793Y112340D01*
X112873Y112398D01*
X112959Y112448D01*
X113034Y112514D01*
X113051Y112526D01*
X113058Y112536D01*
X113079Y112554D01*
X114436Y113911D01*
X114496Y113989D01*
X114564Y114061D01*
X114593Y114114D01*
X114630Y114162D01*
X114670Y114253D01*
X114679Y114270D01*
X120278Y119868D01*
X120338Y119947D01*
X120406Y120019D01*
X120435Y120072D01*
X120472Y120120D01*
X120512Y120211D01*
X120560Y120297D01*
X120575Y120356D01*
X120599Y120411D01*
X120614Y120509D01*
X120639Y120605D01*
X120645Y120705D01*
X120649Y120725D01*
X120647Y120738D01*
X120649Y120766D01*
X120649Y123190D01*
X120637Y123288D01*
X120634Y123387D01*
X120628Y123409D01*
X120627Y123420D01*
X120616Y123454D01*
X120609Y123506D01*
X120573Y123598D01*
X120545Y123693D01*
X120530Y123718D01*
X120529Y123723D01*
X120514Y123746D01*
X120492Y123801D01*
X120434Y123881D01*
X120384Y123967D01*
X120318Y124042D01*
X120306Y124059D01*
X120296Y124066D01*
X120278Y124088D01*
X119008Y125358D01*
X118929Y125418D01*
X118857Y125486D01*
X118804Y125515D01*
X118756Y125552D01*
X118665Y125592D01*
X118579Y125640D01*
X118520Y125655D01*
X118464Y125679D01*
X118366Y125694D01*
X118271Y125719D01*
X118171Y125725D01*
X118150Y125729D01*
X118138Y125727D01*
X118110Y125729D01*
X114416Y125729D01*
X114318Y125717D01*
X114219Y125714D01*
X114160Y125697D01*
X114100Y125689D01*
X114008Y125653D01*
X113913Y125625D01*
X113861Y125595D01*
X113805Y125572D01*
X113724Y125514D01*
X113639Y125464D01*
X113564Y125398D01*
X113547Y125386D01*
X113543Y125380D01*
X113540Y125378D01*
X113535Y125372D01*
X113518Y125358D01*
X110354Y122194D01*
X110294Y122115D01*
X110226Y122043D01*
X110197Y121990D01*
X110160Y121942D01*
X110120Y121851D01*
X110072Y121765D01*
X110057Y121706D01*
X110033Y121651D01*
X110018Y121553D01*
X109993Y121457D01*
X109987Y121357D01*
X109983Y121336D01*
X109985Y121324D01*
X109983Y121296D01*
X109983Y119282D01*
X109084Y118384D01*
X109024Y118305D01*
X108956Y118233D01*
X108927Y118180D01*
X108890Y118132D01*
X108850Y118041D01*
X108802Y117955D01*
X108787Y117896D01*
X108763Y117841D01*
X108748Y117743D01*
X108723Y117647D01*
X108717Y117547D01*
X108713Y117526D01*
X108715Y117514D01*
X108713Y117486D01*
X108713Y114202D01*
X107168Y112658D01*
X107083Y112548D01*
X106994Y112441D01*
X106986Y112422D01*
X106973Y112406D01*
X106918Y112278D01*
X106859Y112153D01*
X106855Y112133D01*
X106847Y112114D01*
X106825Y111976D01*
X106799Y111841D01*
X106800Y111820D01*
X106797Y111800D01*
X106810Y111661D01*
X106819Y111523D01*
X106825Y111504D01*
X106827Y111484D01*
X106874Y111352D01*
X106917Y111221D01*
X106928Y111203D01*
X106935Y111184D01*
X107013Y111069D01*
X107087Y110952D01*
X107102Y110938D01*
X107113Y110921D01*
X107217Y110829D01*
X107319Y110734D01*
X107336Y110724D01*
X107352Y110711D01*
X107476Y110647D01*
X107597Y110580D01*
X107617Y110575D01*
X107635Y110566D01*
X107771Y110536D01*
X107905Y110501D01*
X107933Y110499D01*
X107945Y110497D01*
X107966Y110497D01*
X108066Y110491D01*
X108830Y110491D01*
X108928Y110503D01*
G37*
D10*
X104280Y133350D03*
X121780Y133350D03*
X104280Y152400D03*
X121780Y152400D03*
D11*
X152400Y114160D03*
X152400Y96660D03*
X171450Y114160D03*
X171450Y96660D03*
D10*
X72250Y69850D03*
X54750Y69850D03*
X53480Y101600D03*
X70980Y101600D03*
D11*
X152400Y62370D03*
X152400Y79870D03*
D12*
X53785Y135890D03*
X83376Y135890D03*
X142685Y146050D03*
X172276Y146050D03*
D13*
X81280Y46600D03*
X81280Y29600D03*
X64770Y29600D03*
X64770Y46600D03*
X97790Y46600D03*
X97790Y29600D03*
X114300Y46600D03*
X114300Y29600D03*
X130810Y29600D03*
X130810Y46600D03*
X147320Y46600D03*
X147320Y29600D03*
X163830Y29600D03*
X163830Y46600D03*
X171450Y62620D03*
X171450Y79620D03*
D14*
X94450Y98150D02*
X87450Y98150D01*
X87450Y99650D01*
X94450Y99650D01*
X94450Y98150D01*
X94450Y99575D02*
X87450Y99575D01*
X87450Y93150D02*
X94450Y93150D01*
X87450Y93150D02*
X87450Y94650D01*
X94450Y94650D01*
X94450Y93150D01*
X94450Y94575D02*
X87450Y94575D01*
X87450Y88150D02*
X94450Y88150D01*
X87450Y88150D02*
X87450Y89650D01*
X94450Y89650D01*
X94450Y88150D01*
X94450Y89575D02*
X87450Y89575D01*
X87450Y83150D02*
X94450Y83150D01*
X87450Y83150D02*
X87450Y84650D01*
X94450Y84650D01*
X94450Y83150D01*
X94450Y84575D02*
X87450Y84575D01*
X87450Y78150D02*
X94450Y78150D01*
X87450Y78150D02*
X87450Y79650D01*
X94450Y79650D01*
X94450Y78150D01*
X94450Y79575D02*
X87450Y79575D01*
X97200Y68400D02*
X98700Y68400D01*
X97200Y68400D02*
X97200Y75400D01*
X98700Y75400D01*
X98700Y68400D01*
X98700Y69825D02*
X97200Y69825D01*
X97200Y71250D02*
X98700Y71250D01*
X98700Y72675D02*
X97200Y72675D01*
X97200Y74100D02*
X98700Y74100D01*
X102200Y68400D02*
X103700Y68400D01*
X102200Y68400D02*
X102200Y75400D01*
X103700Y75400D01*
X103700Y68400D01*
X103700Y69825D02*
X102200Y69825D01*
X102200Y71250D02*
X103700Y71250D01*
X103700Y72675D02*
X102200Y72675D01*
X102200Y74100D02*
X103700Y74100D01*
X107200Y68400D02*
X108700Y68400D01*
X107200Y68400D02*
X107200Y75400D01*
X108700Y75400D01*
X108700Y68400D01*
X108700Y69825D02*
X107200Y69825D01*
X107200Y71250D02*
X108700Y71250D01*
X108700Y72675D02*
X107200Y72675D01*
X107200Y74100D02*
X108700Y74100D01*
X112200Y68400D02*
X113700Y68400D01*
X112200Y68400D02*
X112200Y75400D01*
X113700Y75400D01*
X113700Y68400D01*
X113700Y69825D02*
X112200Y69825D01*
X112200Y71250D02*
X113700Y71250D01*
X113700Y72675D02*
X112200Y72675D01*
X112200Y74100D02*
X113700Y74100D01*
X117200Y68400D02*
X118700Y68400D01*
X117200Y68400D02*
X117200Y75400D01*
X118700Y75400D01*
X118700Y68400D01*
X118700Y69825D02*
X117200Y69825D01*
X117200Y71250D02*
X118700Y71250D01*
X118700Y72675D02*
X117200Y72675D01*
X117200Y74100D02*
X118700Y74100D01*
X121450Y78150D02*
X128450Y78150D01*
X121450Y78150D02*
X121450Y79650D01*
X128450Y79650D01*
X128450Y78150D01*
X128450Y79575D02*
X121450Y79575D01*
X121450Y83150D02*
X128450Y83150D01*
X121450Y83150D02*
X121450Y84650D01*
X128450Y84650D01*
X128450Y83150D01*
X128450Y84575D02*
X121450Y84575D01*
X121450Y88150D02*
X128450Y88150D01*
X121450Y88150D02*
X121450Y89650D01*
X128450Y89650D01*
X128450Y88150D01*
X128450Y89575D02*
X121450Y89575D01*
X121450Y93150D02*
X128450Y93150D01*
X121450Y93150D02*
X121450Y94650D01*
X128450Y94650D01*
X128450Y93150D01*
X128450Y94575D02*
X121450Y94575D01*
X121450Y98150D02*
X128450Y98150D01*
X121450Y98150D02*
X121450Y99650D01*
X128450Y99650D01*
X128450Y98150D01*
X128450Y99575D02*
X121450Y99575D01*
X118700Y102400D02*
X117200Y102400D01*
X117200Y109400D01*
X118700Y109400D01*
X118700Y102400D01*
X118700Y103825D02*
X117200Y103825D01*
X117200Y105250D02*
X118700Y105250D01*
X118700Y106675D02*
X117200Y106675D01*
X117200Y108100D02*
X118700Y108100D01*
X113700Y102400D02*
X112200Y102400D01*
X112200Y109400D01*
X113700Y109400D01*
X113700Y102400D01*
X113700Y103825D02*
X112200Y103825D01*
X112200Y105250D02*
X113700Y105250D01*
X113700Y106675D02*
X112200Y106675D01*
X112200Y108100D02*
X113700Y108100D01*
X108700Y102400D02*
X107200Y102400D01*
X107200Y109400D01*
X108700Y109400D01*
X108700Y102400D01*
X108700Y103825D02*
X107200Y103825D01*
X107200Y105250D02*
X108700Y105250D01*
X108700Y106675D02*
X107200Y106675D01*
X107200Y108100D02*
X108700Y108100D01*
X103700Y102400D02*
X102200Y102400D01*
X102200Y109400D01*
X103700Y109400D01*
X103700Y102400D01*
X103700Y103825D02*
X102200Y103825D01*
X102200Y105250D02*
X103700Y105250D01*
X103700Y106675D02*
X102200Y106675D01*
X102200Y108100D02*
X103700Y108100D01*
X98700Y102400D02*
X97200Y102400D01*
X97200Y109400D01*
X98700Y109400D01*
X98700Y102400D01*
X98700Y103825D02*
X97200Y103825D01*
X97200Y105250D02*
X98700Y105250D01*
X98700Y106675D02*
X97200Y106675D01*
X97200Y108100D02*
X98700Y108100D01*
D15*
X107950Y88900D03*
D16*
X25400Y101600D03*
X25400Y127000D03*
X25400Y76200D03*
X25400Y50800D03*
X203200Y127000D03*
X203200Y101600D03*
X203200Y76200D03*
X203200Y50800D03*
D17*
X81280Y46600D02*
X64770Y46600D01*
X102950Y67390D02*
X102950Y71900D01*
X92710Y57150D02*
X86360Y57150D01*
X81280Y52070D01*
X81280Y46600D01*
X92710Y57150D02*
X102950Y67390D01*
X128760Y78900D02*
X130810Y76850D01*
X130810Y68740D01*
X130810Y46600D02*
X114300Y46600D01*
X130810Y46600D02*
X130810Y68740D01*
X128760Y78900D02*
X124950Y78900D01*
X105800Y54610D02*
X97790Y46600D01*
X105800Y54610D02*
X107950Y54610D01*
X111760Y54610D01*
X117950Y60800D01*
X117950Y71900D01*
X97790Y46600D02*
X114300Y30090D01*
X114300Y29600D01*
X124950Y83900D02*
X132000Y83900D01*
X135890Y63110D02*
X147320Y51680D01*
X135890Y80010D02*
X132000Y83900D01*
X135890Y80010D02*
X135890Y63110D01*
X147320Y46600D02*
X163830Y46600D01*
X147320Y46600D02*
X147320Y51680D01*
X147320Y29600D02*
X136770Y19050D01*
X101600Y19050D01*
X99695Y20955D01*
X97790Y22860D01*
X97790Y29600D01*
X81280Y29600D01*
X108155Y71695D02*
X107950Y71900D01*
X108155Y71695D02*
X108155Y62025D01*
D18*
X108155Y62025D03*
X99695Y20955D03*
X101600Y95250D03*
X101600Y82550D03*
X114300Y82550D03*
X114300Y95250D03*
X68580Y162560D03*
X121920Y162560D03*
D17*
X95410Y78900D02*
X90950Y78900D01*
X95410Y78900D02*
X99060Y82550D01*
X95410Y98900D02*
X90950Y98900D01*
X95410Y98900D02*
X99060Y95250D01*
X112950Y96600D02*
X112950Y105900D01*
X112950Y96600D02*
X114300Y95250D01*
X120490Y98900D02*
X124950Y98900D01*
X120490Y98900D02*
X116840Y95250D01*
X112950Y81200D02*
X112950Y71900D01*
X112950Y81200D02*
X114300Y82550D01*
X101600Y95250D02*
X99060Y95250D01*
X99060Y82550D02*
X101600Y82550D01*
X114300Y95250D02*
X116840Y95250D01*
D18*
X161290Y88900D03*
D17*
X139310Y38100D02*
X130810Y29600D01*
X90950Y98900D02*
X90790Y99060D01*
X86360Y99060D01*
X83820Y101600D01*
X70980Y101600D01*
X171450Y38100D02*
X184150Y50800D01*
X203200Y50800D01*
X171450Y38100D02*
X139310Y38100D01*
X104280Y133350D02*
X104280Y152400D01*
D18*
X64770Y83820D03*
D17*
X78073Y83820D01*
D18*
X101805Y118315D03*
D17*
X102950Y115900D02*
X102950Y105900D01*
X102950Y115900D02*
X101805Y117045D01*
X101805Y118315D02*
X101805Y130875D01*
X104280Y133350D01*
X101805Y118315D02*
X101805Y117045D01*
X90950Y88900D02*
X83153Y88900D01*
X78073Y83820D01*
D18*
X115570Y121920D03*
D19*
X115570Y119052D02*
X107950Y111432D01*
D20*
X107950Y105900D01*
D21*
X115570Y119052D02*
X115570Y121920D01*
D17*
X117950Y106520D02*
X117950Y105900D01*
X142685Y131255D02*
X142685Y146050D01*
X142685Y131255D02*
X117950Y106520D01*
X124950Y93900D02*
X132000Y93900D01*
X134620Y96520D02*
X134620Y107950D01*
X134620Y96520D02*
X132000Y93900D01*
D22*
X152400Y114160D02*
X171450Y114160D01*
D17*
X171450Y145225D01*
X172276Y146050D01*
X152400Y114160D02*
X140830Y114160D01*
X134620Y107950D01*
D22*
X171450Y114160D02*
X177660Y114160D01*
X190500Y127000D01*
X203200Y127000D01*
D17*
X97950Y109060D02*
X97950Y105900D01*
D20*
X97950Y109060D02*
X92710Y114300D01*
D21*
X83376Y114300D01*
D17*
X83376Y135890D01*
X85170Y83900D02*
X90950Y83900D01*
X85170Y83900D02*
X72250Y70980D01*
X72250Y69850D01*
X124950Y88900D02*
X135890Y88900D01*
X140970Y83820D01*
X140970Y76200D01*
X146050Y71120D02*
X162950Y71120D01*
X171450Y79620D01*
X146050Y71120D02*
X140970Y76200D01*
D21*
X171450Y79620D02*
X199780Y79620D01*
X203200Y76200D01*
D17*
X171450Y62620D02*
X161798Y62620D01*
X152650Y62620D01*
X152400Y62370D01*
X97950Y69360D02*
X93360Y64770D01*
X88900Y64770D01*
D18*
X88900Y64770D03*
X161798Y62620D03*
D17*
X97950Y69360D02*
X97950Y71900D01*
X53480Y101600D02*
X53480Y135586D01*
X53480Y101600D02*
X53480Y98920D01*
X60960Y91440D01*
X78740Y91440D01*
X82550Y93900D02*
X90950Y93900D01*
X82550Y93900D02*
X81200Y93900D01*
X78740Y91440D01*
X53480Y135586D02*
X53785Y135890D01*
M02*
