M48
;GenerationSoftware,Autodesk,EAGLE,9.4.0*%
;CreationDate,2019-05-08T17:19:32Z*%
FMAT,2
ICI,OFF
METRIC,TZ,000.000
T2C0.350
T1C1.016
%
G90
M71
T1
X2540Y10160
X2540Y12700
X2540Y7620
X2540Y5080
X20320Y12700
X20320Y10160
X20320Y7620
X20320Y5080
T2
X10815Y6203
X9970Y2096
X10160Y9525
X10160Y8255
X11430Y8255
X11430Y9525
X6858Y16256
X12192Y16256
X16129Y8890
X6477Y8382
X10180Y11831
X11557Y12192
X8890Y6477
X16180Y6262
M30